SplineFontDB: 3.0
FontName: Molengo-Regular
FullName: Molengo
FamilyName: Molengo
Weight: Regular
Copyright: Copyright (c) 2007, Denis Moyogo Jacquerye <moyogo@gmail.com>, with Reserved Font Name Molengo
Version: 0.11
ItalicAngle: 0
UnderlinePosition: -196
UnderlineWidth: 90
Ascent: 1556
Descent: 492
sfntRevision: 0x00001999
LayerCount: 2
Layer: 0 1 "Back"  1
Layer: 1 1 "Fore"  0
XUID: [1021 723 548469661 2599010]
FSType: 0
OS2Version: 2
OS2_WeightWidthSlopeOnly: 0
OS2_UseTypoMetrics: 1
CreationTime: 1182169782
ModificationTime: 1335809529
PfmFamily: 17
TTFWeight: 400
TTFWidth: 5
LineGap: 0
VLineGap: 0
Panose: 2 0 0 0 0 0 0 0 0 0
OS2TypoAscent: 0
OS2TypoAOffset: 1
OS2TypoDescent: 0
OS2TypoDOffset: 1
OS2TypoLinegap: 61
OS2WinAscent: 208
OS2WinAOffset: 1
OS2WinDescent: -39
OS2WinDOffset: 1
HheadAscent: 208
HheadAOffset: 1
HheadDescent: 39
HheadDOffset: 1
OS2SubXSize: 1331
OS2SubYSize: 1229
OS2SubXOff: 0
OS2SubYOff: 154
OS2SupXSize: 1434
OS2SupYSize: 1331
OS2SupXOff: 0
OS2SupYOff: 977
OS2StrikeYSize: 102
OS2StrikeYPos: 512
OS2Vendor: 'PYRS'
OS2CodePages: 00000011.00000000
OS2UnicodeRanges: a000007f.00000002.00000000.00000000
Lookup: 5 0 0 "'ccmp' Glyph Composition/Decomposition in Latin lookup 0"  {"'ccmp' Glyph Composition/Decomposition in Latin lookup 0 subtable"  } ['ccmp' ('DFLT' <'dflt' > 'latn' <'dflt' > ) ]
Lookup: 1 0 0 "Single Substitution lookup 1"  {"Single Substitution lookup 1 subtable"  } []
Lookup: 260 0 0 "'mark' Mark Positioning in Latin lookup 0"  {"'mark' Mark Positioning in Latin lookup 0 anchor 0"  "'mark' Mark Positioning in Latin lookup 0 anchor 1"  "'mark' Mark Positioning in Latin lookup 0 anchor 2"  "'mark' Mark Positioning in Latin lookup 0 anchor 3"  "'mark' Mark Positioning in Latin lookup 0 anchor 4"  } ['mark' ('DFLT' <'dflt' > 'latn' <'dflt' > ) ]

StartChar: .notdef
Encoding: 65536 -1 0
Width: 886
Flags: W
LayerCount: 2
Fore
SplineSet
68 0 m 1,0,-1
 68 1365 l 1,1,-1
 750 1365 l 1,2,-1
 750 0 l 1,3,-1
 68 0 l 1,0,-1
136 68 m 1,4,-1
 682 68 l 1,5,-1
 682 1297 l 1,6,-1
 136 1297 l 1,7,-1
 136 68 l 1,4,-1
EndSplineSet
EndChar

StartChar: exclam
Encoding: 33 33 4
Width: 454
GlyphClass: 2
Flags: W
LayerCount: 2
Fore
SplineSet
107 1392 m 1,0,-1
 347 1392 l 1,1,-1
 283 460 l 1,2,-1
 191 460 l 1,3,-1
 107 1392 l 1,0,-1
109 103 m 256,4,5
 109 153 109 153 143.5 188.5 c 128,-1,6
 178 224 178 224 227 224 c 256,7,8
 276 224 276 224 310.5 188.5 c 128,-1,9
 345 153 345 153 345 103 c 256,10,11
 345 53 345 53 310.5 17.5 c 128,-1,12
 276 -18 276 -18 227 -18 c 256,13,14
 178 -18 178 -18 143.5 17.5 c 128,-1,15
 109 53 109 53 109 103 c 256,4,5
EndSplineSet
EndChar

StartChar: numbersign
Encoding: 35 35 6
Width: 1181
GlyphClass: 2
Flags: W
LayerCount: 2
Fore
SplineSet
524 1475 m 1,0,-1
 652 1475 l 1,1,-1
 554 1011 l 1,2,-1
 850 1011 l 1,3,-1
 948 1475 l 1,4,-1
 1076 1475 l 1,5,-1
 978 1010 l 1,6,-1
 1187 1010 l 1,7,-1
 1187 901 l 1,8,-1
 955 901 l 1,9,-1
 878 539 l 1,10,-1
 1087 539 l 1,11,-1
 1087 430 l 1,12,-1
 855 430 l 1,13,-1
 764 0 l 1,14,-1
 636 0 l 1,15,-1
 727 431 l 1,16,-1
 431 431 l 1,17,-1
 340 0 l 1,18,-1
 212 0 l 1,19,-1
 303 432 l 1,20,-1
 84 432 l 1,21,-1
 84 541 l 1,22,-1
 326 541 l 1,23,-1
 403 903 l 1,24,-1
 184 903 l 1,25,-1
 184 1012 l 1,26,-1
 426 1012 l 1,27,-1
 524 1475 l 1,0,-1
454 540 m 1,28,-1
 750 540 l 1,29,-1
 827 902 l 1,30,-1
 531 902 l 1,31,-1
 454 540 l 1,28,-1
EndSplineSet
EndChar

StartChar: dollar
Encoding: 36 36 7
Width: 966
GlyphClass: 2
Flags: W
LayerCount: 2
Fore
SplineSet
429 683 m 1,0,-1
 429 1040 l 1,1,2
 366 1024 366 1024 326.5 980 c 128,-1,3
 287 936 287 936 287 872 c 256,4,5
 287 808 287 808 324 763.5 c 128,-1,6
 361 719 361 719 429 683 c 1,0,-1
429 1174 m 1,7,-1
 429 1338 l 1,8,-1
 546 1338 l 1,9,-1
 546 1173 l 1,10,11
 695 1159 695 1159 783 1099 c 1,12,-1
 747 971 l 1,13,14
 659 1031 659 1031 546 1044 c 1,15,-1
 546 629 l 1,16,17
 547 628 547 628 550 627 c 0,18,19
 585 612 585 612 602.5 604.5 c 128,-1,20
 620 597 620 597 652.5 581.5 c 128,-1,21
 685 566 685 566 702.5 555 c 128,-1,22
 720 544 720 544 746.5 526 c 128,-1,23
 773 508 773 508 788 492 c 128,-1,24
 803 476 803 476 821 454 c 128,-1,25
 839 432 839 432 848 409 c 128,-1,26
 857 386 857 386 863.5 357 c 128,-1,27
 870 328 870 328 870 296 c 0,28,29
 870 175 870 175 781.5 86.5 c 128,-1,30
 693 -2 693 -2 546 -16 c 1,31,-1
 546 -180 l 1,32,-1
 429 -180 l 1,33,-1
 429 -16 l 1,34,35
 381 -13 381 -13 339 -5.5 c 128,-1,36
 297 2 297 2 265.5 12 c 128,-1,37
 234 22 234 22 204 35 c 128,-1,38
 174 48 174 48 149.5 62 c 128,-1,39
 125 76 125 76 96 91 c 1,40,-1
 154 211 l 1,41,42
 191 187 191 187 208.5 177 c 128,-1,43
 226 167 226 167 262.5 150 c 128,-1,44
 299 133 299 133 339 124.5 c 128,-1,45
 379 116 379 116 429 113 c 1,46,-1
 429 527 l 1,47,48
 391 544 391 544 365 556.5 c 128,-1,49
 339 569 339 569 304 589 c 128,-1,50
 269 609 269 609 246.5 627.5 c 128,-1,51
 224 646 224 646 199 672 c 128,-1,52
 174 698 174 698 159.5 726 c 128,-1,53
 145 754 145 754 135.5 790 c 128,-1,54
 126 826 126 826 126 867 c 0,55,56
 126 989 126 989 209 1074 c 128,-1,57
 292 1159 292 1159 429 1174 c 1,7,-1
546 473 m 1,58,-1
 546 117 l 1,59,60
 625 131 625 131 667 176 c 128,-1,61
 709 221 709 221 709 274 c 0,62,63
 709 341 709 341 667 387 c 128,-1,64
 625 433 625 433 546 473 c 1,58,-1
EndSplineSet
EndChar

StartChar: percent
Encoding: 37 37 8
Width: 1566
GlyphClass: 2
Flags: W
LayerCount: 2
Fore
SplineSet
1117 1391 m 1,0,-1
 1245 1391 l 1,1,-1
 458 0 l 1,2,-1
 330 0 l 1,3,-1
 1117 1391 l 1,0,-1
375 1392 m 0,4,5
 431 1392 431 1392 486 1375 c 128,-1,6
 541 1358 541 1358 592.5 1322 c 128,-1,7
 644 1286 644 1286 676 1219.5 c 128,-1,8
 708 1153 708 1153 708 1065 c 256,9,10
 708 977 708 977 676 910.5 c 128,-1,11
 644 844 644 844 592.5 808.5 c 128,-1,12
 541 773 541 773 486 756 c 128,-1,13
 431 739 431 739 375 739 c 0,14,15
 318 739 318 739 263 756 c 128,-1,16
 208 773 208 773 156.5 808.5 c 128,-1,17
 105 844 105 844 73 910.5 c 128,-1,18
 41 977 41 977 41 1065 c 256,19,20
 41 1153 41 1153 73 1219.5 c 128,-1,21
 105 1286 105 1286 156.5 1322 c 128,-1,22
 208 1358 208 1358 263 1375 c 128,-1,23
 318 1392 318 1392 375 1392 c 0,4,5
375 846 m 256,25,26
 407 846 407 846 438 857.5 c 128,-1,27
 469 869 469 869 498.5 893 c 128,-1,28
 528 917 528 917 546.5 961.5 c 128,-1,29
 565 1006 565 1006 565 1065 c 256,30,31
 565 1124 565 1124 546.5 1168.5 c 128,-1,32
 528 1213 528 1213 498.5 1237 c 128,-1,33
 469 1261 469 1261 438 1272.5 c 128,-1,34
 407 1284 407 1284 375 1284 c 256,35,36
 343 1284 343 1284 311.5 1272.5 c 128,-1,37
 280 1261 280 1261 250.5 1237 c 128,-1,38
 221 1213 221 1213 202.5 1168.5 c 128,-1,39
 184 1124 184 1124 184 1065 c 256,40,41
 184 1006 184 1006 202.5 961.5 c 128,-1,42
 221 917 221 917 250.5 893 c 128,-1,43
 280 869 280 869 311.5 857.5 c 128,-1,24
 343 846 343 846 375 846 c 256,25,26
1153 635 m 0,44,45
 1209 635 1209 635 1264 618 c 128,-1,46
 1319 601 1319 601 1370.5 565 c 128,-1,47
 1422 529 1422 529 1454 462.5 c 128,-1,48
 1486 396 1486 396 1486 308 c 256,49,50
 1486 220 1486 220 1454 153.5 c 128,-1,51
 1422 87 1422 87 1370.5 51.5 c 128,-1,52
 1319 16 1319 16 1264 -1 c 128,-1,53
 1209 -18 1209 -18 1153 -18 c 0,54,55
 1096 -18 1096 -18 1041 -1 c 128,-1,56
 986 16 986 16 934.5 51.5 c 128,-1,57
 883 87 883 87 851 153.5 c 128,-1,58
 819 220 819 220 819 308 c 256,59,60
 819 396 819 396 851 462.5 c 128,-1,61
 883 529 883 529 934.5 565 c 128,-1,62
 986 601 986 601 1041 618 c 128,-1,63
 1096 635 1096 635 1153 635 c 0,44,45
1153 89 m 256,65,66
 1185 89 1185 89 1216 100.5 c 128,-1,67
 1247 112 1247 112 1276.5 136 c 128,-1,68
 1306 160 1306 160 1324.5 204.5 c 128,-1,69
 1343 249 1343 249 1343 308 c 256,70,71
 1343 367 1343 367 1324.5 411.5 c 128,-1,72
 1306 456 1306 456 1276.5 480 c 128,-1,73
 1247 504 1247 504 1216 515.5 c 128,-1,74
 1185 527 1185 527 1153 527 c 256,75,76
 1121 527 1121 527 1089.5 515.5 c 128,-1,77
 1058 504 1058 504 1028.5 480 c 128,-1,78
 999 456 999 456 980.5 411.5 c 128,-1,79
 962 367 962 367 962 308 c 256,80,81
 962 249 962 249 980.5 204.5 c 128,-1,82
 999 160 999 160 1028.5 136 c 128,-1,83
 1058 112 1058 112 1089.5 100.5 c 128,-1,64
 1121 89 1121 89 1153 89 c 256,65,66
EndSplineSet
EndChar

StartChar: ampersand
Encoding: 38 38 9
Width: 1466
GlyphClass: 2
Flags: W
LayerCount: 2
Fore
SplineSet
452 714 m 1,0,1
 354 667 354 667 295.5 574.5 c 128,-1,2
 237 482 237 482 237 372 c 0,3,4
 237 258 237 258 324 184.5 c 128,-1,5
 411 111 411 111 536 111 c 0,6,7
 631 111 631 111 729.5 150.5 c 128,-1,8
 828 190 828 190 876 255 c 1,9,-1
 452 714 l 1,0,1
944 1296 m 1,10,-1
 904 1156 l 1,11,12
 878 1179 878 1179 793.5 1218 c 128,-1,13
 709 1257 709 1257 640 1257 c 0,14,15
 582 1257 582 1257 544 1225 c 128,-1,16
 506 1193 506 1193 493 1153.5 c 128,-1,17
 480 1114 480 1114 480 1072 c 0,18,19
 480 943 480 943 566 828 c 0,20,21
 711 635 711 635 972 374 c 1,22,23
 1030 462 1030 462 1084 627.5 c 128,-1,24
 1138 793 1138 793 1156 920 c 1,25,-1
 1262 852 l 1,26,27
 1249 729 1249 729 1183 554.5 c 128,-1,28
 1117 380 1117 380 1052 286 c 1,29,-1
 1319 0 l 1,30,-1
 1108 0 l 1,31,-1
 960 160 l 1,32,33
 930 136 930 136 904.5 111 c 128,-1,34
 879 86 879 86 843 63 c 128,-1,35
 807 40 807 40 767 22 c 128,-1,36
 727 4 727 4 667.5 -7 c 128,-1,37
 608 -18 608 -18 536 -18 c 0,38,39
 447 -18 447 -18 366.5 5.5 c 128,-1,40
 286 29 286 29 220 74.5 c 128,-1,41
 154 120 154 120 115 197 c 128,-1,42
 76 274 76 274 76 372 c 0,43,44
 76 474 76 474 120.5 565.5 c 128,-1,45
 165 657 165 657 227.5 717 c 128,-1,46
 290 777 290 777 372 828 c 1,47,48
 339 877 339 877 317.5 946.5 c 128,-1,49
 296 1016 296 1016 296 1088 c 0,50,51
 296 1224 296 1224 391 1305 c 128,-1,52
 486 1386 486 1386 616 1386 c 0,53,54
 812 1386 812 1386 944 1296 c 1,10,-1
EndSplineSet
EndChar

StartChar: quotesingle
Encoding: 39 39 10
Width: 264
GlyphClass: 2
Flags: W
LayerCount: 2
Fore
SplineSet
216 1428 m 1,0,-1
 168 980 l 1,1,-1
 64 980 l 1,2,-1
 64 1428 l 1,3,-1
 216 1428 l 1,0,-1
EndSplineSet
EndChar

StartChar: parenleft
Encoding: 40 40 11
Width: 634
GlyphClass: 2
Flags: W
LayerCount: 2
Fore
SplineSet
271 492 m 256,0,1
 271 352 271 352 293 220.5 c 128,-1,2
 315 89 315 89 357.5 -33 c 128,-1,3
 400 -155 400 -155 454 -264.5 c 128,-1,4
 508 -374 508 -374 581 -493 c 1,5,-1
 471 -493 l 1,6,7
 365 -341 365 -341 292 -204 c 128,-1,8
 219 -67 219 -67 180.5 54 c 128,-1,9
 142 175 142 175 126 278.5 c 128,-1,10
 110 382 110 382 110 492 c 0,11,12
 110 600 110 600 126 702.5 c 128,-1,13
 142 805 142 805 180.5 927 c 128,-1,14
 219 1049 219 1049 292 1187.5 c 128,-1,15
 365 1326 365 1326 471 1477 c 1,16,-1
 581 1477 l 1,17,18
 508 1358 508 1358 454 1248.5 c 128,-1,19
 400 1139 400 1139 357.5 1017 c 128,-1,20
 315 895 315 895 293 763.5 c 128,-1,21
 271 632 271 632 271 492 c 256,0,1
EndSplineSet
EndChar

StartChar: parenright
Encoding: 41 41 12
Width: 634
GlyphClass: 2
Flags: W
LayerCount: 2
Fore
SplineSet
363 492 m 256,0,1
 363 632 363 632 341 763.5 c 128,-1,2
 319 895 319 895 276.5 1017 c 128,-1,3
 234 1139 234 1139 180 1248.5 c 128,-1,4
 126 1358 126 1358 53 1477 c 1,5,-1
 163 1477 l 1,6,7
 269 1326 269 1326 342 1187.5 c 128,-1,8
 415 1049 415 1049 453.5 927 c 128,-1,9
 492 805 492 805 508 702.5 c 128,-1,10
 524 600 524 600 524 492 c 0,11,12
 524 382 524 382 508 278.5 c 128,-1,13
 492 175 492 175 453.5 54 c 128,-1,14
 415 -67 415 -67 342 -204 c 128,-1,15
 269 -341 269 -341 163 -493 c 1,16,-1
 53 -493 l 1,17,18
 126 -374 126 -374 180 -264.5 c 128,-1,19
 234 -155 234 -155 276.5 -33 c 128,-1,20
 319 89 319 89 341 220.5 c 128,-1,21
 363 352 363 352 363 492 c 256,0,1
EndSplineSet
EndChar

StartChar: asterisk
Encoding: 42 42 13
Width: 849
GlyphClass: 2
Flags: W
LayerCount: 2
Fore
SplineSet
454 953 m 1,0,-1
 603 704 l 1,1,-1
 477 645 l 1,2,-1
 398 930 l 1,3,-1
 208 711 l 1,4,-1
 113 813 l 1,5,-1
 360 975 l 1,6,-1
 93 1088 l 1,7,-1
 161 1210 l 1,8,-1
 391 1026 l 1,9,-1
 416 1315 l 1,10,-1
 553 1288 l 1,11,-1
 449 1012 l 1,12,-1
 732 1078 l 1,13,-1
 748 939 l 1,14,-1
 454 953 l 1,0,-1
EndSplineSet
EndChar

StartChar: plus
Encoding: 43 43 14
Width: 1130
GlyphClass: 2
Flags: W
LayerCount: 2
Fore
SplineSet
620 558 m 1,0,-1
 1069 558 l 1,1,-1
 1069 449 l 1,2,-1
 620 449 l 1,3,-1
 620 0 l 1,4,-1
 510 0 l 1,5,-1
 510 449 l 1,6,-1
 61 449 l 1,7,-1
 61 558 l 1,8,-1
 510 558 l 1,9,-1
 510 1008 l 1,10,-1
 620 1008 l 1,11,-1
 620 558 l 1,0,-1
EndSplineSet
EndChar

StartChar: comma
Encoding: 44 44 15
Width: 450
GlyphClass: 2
Flags: W
LayerCount: 2
Fore
SplineSet
205 -27 m 0,0,1
 205 -15 205 -15 189.5 -4.5 c 128,-1,2
 174 6 174 6 156 14.5 c 128,-1,3
 138 23 138 23 122.5 48 c 128,-1,4
 107 73 107 73 107 111 c 0,5,6
 107 153 107 153 138.5 188.5 c 128,-1,7
 170 224 170 224 225 224 c 0,8,9
 266 224 266 224 293.5 206.5 c 128,-1,10
 321 189 321 189 332 161 c 128,-1,11
 343 133 343 133 347 112 c 128,-1,12
 351 91 351 91 351 69 c 0,13,14
 351 -9 351 -9 312 -95.5 c 128,-1,15
 273 -182 273 -182 157 -294 c 1,16,-1
 75 -222 l 1,17,18
 205 -98 205 -98 205 -27 c 0,0,1
EndSplineSet
EndChar

StartChar: hyphen
Encoding: 45 45 16
Width: 765
GlyphClass: 2
Flags: W
LayerCount: 2
Fore
SplineSet
690 449 m 1,0,-1
 61 449 l 1,1,-1
 61 558 l 1,2,-1
 690 558 l 1,3,-1
 690 449 l 1,0,-1
EndSplineSet
EndChar

StartChar: period
Encoding: 46 46 17
Width: 450
GlyphClass: 2
Flags: W
LayerCount: 2
Fore
SplineSet
107 103 m 256,0,1
 107 153 107 153 141.5 188.5 c 128,-1,2
 176 224 176 224 225 224 c 256,3,4
 274 224 274 224 308.5 188.5 c 128,-1,5
 343 153 343 153 343 103 c 256,6,7
 343 53 343 53 308.5 17.5 c 128,-1,8
 274 -18 274 -18 225 -18 c 256,9,10
 176 -18 176 -18 141.5 17.5 c 128,-1,11
 107 53 107 53 107 103 c 256,0,1
EndSplineSet
EndChar

StartChar: slash
Encoding: 47 47 18
Width: 645
GlyphClass: 2
Flags: W
LayerCount: 2
Fore
SplineSet
493 1475 m 1,0,-1
 621 1475 l 1,1,-1
 152 0 l 1,2,-1
 24 0 l 1,3,-1
 493 1475 l 1,0,-1
EndSplineSet
EndChar

StartChar: zero
Encoding: 48 48 19
Width: 1231
GlyphClass: 2
Flags: W
LayerCount: 2
Fore
SplineSet
616 111 m 256,0,1
 667 111 667 111 718.5 123.5 c 128,-1,2
 770 136 770 136 824 167 c 0,3,4
 877 197 877 197 918 243 c 0,5,6
 958 289 958 289 984 362 c 0,7,8
 1010 434 1010 434 1010 524 c 256,9,10
 1010 614 1010 614 984 687 c 256,11,12
 958 760 958 760 918 806 c 1,13,14
 877 851 877 851 824 882 c 0,15,16
 770 913 770 913 719 926 c 1,17,18
 667 938 667 938 616 938 c 256,19,20
 565 938 565 938 513 925.5 c 128,-1,21
 461 913 461 913 408 882 c 256,22,23
 355 851 355 851 314 806 c 0,24,25
 273 760 273 760 248 687 c 0,26,27
 222 614 222 614 222 524 c 256,28,29
 222 434 222 434 248 362 c 1,30,31
 273 289 273 289 314 243 c 256,32,33
 355 197 355 197 408 167 c 0,34,35
 461 136 461 136 513 123.5 c 128,-1,36
 565 111 565 111 616 111 c 256,0,1
616 1067 m 256,37,38
 690 1067 690 1067 763 1050.5 c 128,-1,39
 836 1034 836 1034 911 994 c 256,40,41
 986 954 986 954 1043 894 c 0,42,43
 1099 834 1099 834 1135 738 c 256,44,45
 1171 642 1171 642 1171 524 c 256,46,47
 1171 406 1171 406 1135 311 c 0,48,49
 1099 215 1099 215 1043 155 c 0,50,51
 986 95 986 95 911 55 c 256,52,53
 836 15 836 15 763 -1.5 c 128,-1,54
 690 -18 690 -18 616 -18 c 256,55,56
 542 -18 542 -18 469 -1.5 c 128,-1,57
 396 15 396 15 321 55 c 256,58,59
 246 95 246 95 190 155 c 0,60,61
 133 215 133 215 97 311 c 0,62,63
 61 406 61 406 61 524 c 0,64,65
 61 643 61 643 97 739 c 0,66,67
 133 834 133 834 190 894 c 0,68,69
 246 954 246 954 321 994 c 256,70,71
 396 1034 396 1034 469 1050.5 c 128,-1,72
 542 1067 542 1067 616 1067 c 256,37,38
EndSplineSet
EndChar

StartChar: one
Encoding: 49 49 20
Width: 581
GlyphClass: 2
Flags: W
LayerCount: 2
Fore
SplineSet
436 1049 m 1,0,-1
 436 0 l 1,1,-1
 275 0 l 1,2,-1
 275 906 l 1,3,-1
 87 810 l 1,4,-1
 34 925 l 1,5,-1
 275 1049 l 1,6,-1
 436 1049 l 1,0,-1
EndSplineSet
EndChar

StartChar: two
Encoding: 50 50 21
Width: 919
GlyphClass: 2
Flags: W
LayerCount: 2
Fore
SplineSet
400 938 m 0,0,1
 280 938 280 938 150 854 c 1,2,-1
 90 959 l 1,3,4
 139 999 139 999 222 1033 c 0,5,6
 304 1067 304 1067 400 1067 c 0,7,8
 563 1067 563 1067 661 995 c 0,9,10
 758 923 758 923 758 780 c 0,11,12
 758 733 758 733 741 684 c 0,13,14
 724 634 724 634 701 594 c 0,15,16
 678 553 678 553 636 501 c 128,-1,17
 594 449 594 449 562.5 415.5 c 128,-1,18
 531 382 531 382 478 328 c 2,19,-1
 282 128 l 1,20,-1
 802 128 l 1,21,-1
 802 0 l 1,22,-1
 90 0 l 1,23,-1
 90 128 l 1,24,-1
 286 328 l 2,25,26
 341 385 341 385 388 432.5 c 128,-1,27
 435 480 435 480 474 525 c 0,28,29
 512 570 512 570 539 611 c 256,30,31
 566 652 566 652 581 696 c 256,32,33
 596 740 596 740 596 784 c 0,34,35
 596 847 596 847 547 893 c 1,36,37
 497 938 497 938 400 938 c 0,0,1
EndSplineSet
EndChar

StartChar: three
Encoding: 51 51 22
Width: 841
GlyphClass: 2
Flags: W
LayerCount: 2
Fore
SplineSet
788 81 m 0,0,1
 788 -6 788 -6 756 -84 c 0,2,3
 724 -163 724 -163 666 -222 c 256,4,5
 608 -281 608 -281 522.5 -315.5 c 128,-1,6
 437 -350 437 -350 336 -350 c 0,7,8
 153 -350 153 -350 36 -258 c 1,9,-1
 101 -154 l 1,10,11
 146 -184 146 -184 191.5 -199.5 c 128,-1,12
 237 -215 237 -215 263.5 -218 c 128,-1,13
 290 -221 290 -221 327 -221 c 0,14,15
 462 -221 462 -221 544 -133 c 0,16,17
 625 -46 625 -46 625 81 c 0,18,19
 625 224 625 224 534 302 c 256,20,21
 443 380 443 380 316 380 c 2,22,-1
 234 380 l 1,23,-1
 234 508 l 1,24,-1
 288 508 l 2,25,26
 333 508 333 508 377 521 c 128,-1,27
 421 534 421 534 462 560 c 128,-1,28
 503 586 503 586 528.5 635 c 128,-1,29
 554 684 554 684 554 748 c 0,30,31
 554 797 554 797 534.5 835.5 c 128,-1,32
 515 874 515 874 484 896 c 1,33,34
 452 917 452 917 418 928 c 0,35,36
 383 939 383 939 348 939 c 0,37,38
 247 939 247 939 144 894 c 1,39,-1
 102 1006 l 1,40,41
 153 1032 153 1032 223 1049.5 c 128,-1,42
 293 1067 293 1067 346 1067 c 0,43,44
 433 1067 433 1067 500 1047 c 256,45,46
 567 1027 567 1027 607 996 c 0,47,48
 647 964 647 964 673 920.5 c 128,-1,49
 699 877 699 877 708 835 c 128,-1,50
 717 793 717 793 717 747 c 0,51,52
 717 697 717 697 702 652 c 128,-1,53
 687 607 687 607 667.5 578 c 128,-1,54
 648 549 648 549 620 523 c 128,-1,55
 592 497 592 497 574 485 c 128,-1,56
 556 473 556 473 536 462 c 1,57,58
 570 449 570 449 595.5 436.5 c 128,-1,59
 621 424 621 424 660 394 c 0,60,61
 699 363 699 363 725 326 c 1,62,63
 750 288 750 288 769 224 c 128,-1,64
 788 160 788 160 788 81 c 0,0,1
EndSplineSet
EndChar

StartChar: four
Encoding: 52 52 23
Width: 995
GlyphClass: 2
Flags: W
LayerCount: 2
Fore
SplineSet
591 259 m 1,0,-1
 591 822 l 1,1,-1
 232 259 l 1,2,-1
 591 259 l 1,0,-1
62 236 m 1,3,-1
 591 1067 l 1,4,-1
 752 1067 l 1,5,-1
 752 259 l 1,6,-1
 969 259 l 1,7,-1
 969 131 l 1,8,-1
 752 131 l 1,9,-1
 752 -256 l 1,10,-1
 591 -256 l 1,11,-1
 591 131 l 1,12,-1
 62 131 l 1,13,-1
 62 236 l 1,3,-1
EndSplineSet
EndChar

StartChar: five
Encoding: 53 53 24
Width: 835
GlyphClass: 2
Flags: W
LayerCount: 2
Fore
SplineSet
120 1049 m 1,0,-1
 716 1049 l 1,1,-1
 716 921 l 1,2,-1
 282 921 l 1,3,-1
 264 560 l 1,4,5
 333 555 333 555 393.5 542 c 128,-1,6
 454 529 454 529 521.5 496.5 c 128,-1,7
 589 464 589 464 637 416 c 128,-1,8
 685 368 685 368 716.5 287 c 128,-1,9
 748 206 748 206 748 102 c 0,10,11
 748 -103 748 -103 623.5 -226.5 c 128,-1,12
 499 -350 499 -350 276 -350 c 0,13,14
 228 -350 228 -350 160.5 -336.5 c 128,-1,15
 93 -323 93 -323 48 -298 c 1,16,-1
 104 -175 l 1,17,18
 175 -215 175 -215 276 -215 c 0,19,20
 429 -215 429 -215 508 -125 c 128,-1,21
 587 -35 587 -35 587 102 c 0,22,23
 587 180 587 180 559 241 c 128,-1,24
 531 302 531 302 487.5 338.5 c 128,-1,25
 444 375 444 375 384 399 c 128,-1,26
 324 423 324 423 267 431.5 c 128,-1,27
 210 440 210 440 148 440 c 2,28,-1
 85 440 l 1,29,-1
 120 1049 l 1,0,-1
EndSplineSet
EndChar

StartChar: six
Encoding: 54 54 25
Width: 1013
GlyphClass: 2
Flags: W
LayerCount: 2
Fore
SplineSet
522 111 m 0,0,1
 624 111 624 111 700.5 184 c 128,-1,2
 777 257 777 257 781 387 c 1,3,-1
 781 404 l 2,4,5
 781 533 781 533 709 605 c 0,6,7
 632 681 632 681 508 681 c 0,8,9
 422 681 422 681 358.5 654.5 c 128,-1,10
 295 628 295 628 236 572 c 1,11,12
 231 540 231 540 231 510 c 0,13,14
 231 415 231 415 252 341 c 128,-1,15
 273 267 273 267 304.5 225 c 128,-1,16
 336 183 336 183 377.5 156 c 128,-1,17
 419 129 419 129 453.5 120 c 128,-1,18
 488 111 488 111 522 111 c 0,0,1
525 -18 m 0,19,20
 464 -18 464 -18 405 -4 c 128,-1,21
 346 10 346 10 283.5 47 c 128,-1,22
 221 84 221 84 175 141.5 c 128,-1,23
 129 199 129 199 99.5 293.5 c 128,-1,24
 70 388 70 388 70 509 c 0,25,26
 70 584 70 584 80 655 c 128,-1,27
 90 726 90 726 115 802 c 128,-1,28
 140 878 140 878 178.5 944 c 128,-1,29
 217 1010 217 1010 278 1071.5 c 128,-1,30
 339 1133 339 1133 417 1179.5 c 128,-1,31
 495 1226 495 1226 603 1259.5 c 128,-1,32
 711 1293 711 1293 840 1305 c 1,33,-1
 855 1176 l 1,34,35
 611 1154 611 1154 455 1038 c 128,-1,36
 299 922 299 922 253 713 c 1,37,38
 295 758 295 758 374 784 c 128,-1,39
 453 810 453 810 536 810 c 0,40,41
 711 810 711 810 826.5 700.5 c 128,-1,42
 942 591 942 591 942 416 c 0,43,44
 942 232 942 232 831 107 c 128,-1,45
 720 -18 720 -18 525 -18 c 0,19,20
EndSplineSet
EndChar

StartChar: seven
Encoding: 55 55 26
Width: 787
GlyphClass: 2
Flags: W
LayerCount: 2
Fore
SplineSet
379 636 m 1,0,-1
 544 921 l 1,1,-1
 35 921 l 1,2,-1
 35 1049 l 1,3,-1
 771 1049 l 1,4,-1
 607 764 l 2,5,6
 475 535 475 535 392.5 264 c 128,-1,7
 310 -7 310 -7 285 -257 c 1,8,-1
 124 -257 l 1,9,10
 145 -39 145 -39 223 230 c 128,-1,11
 301 499 301 499 379 636 c 1,0,-1
EndSplineSet
EndChar

StartChar: eight
Encoding: 56 56 27
Width: 952
GlyphClass: 2
Flags: W
LayerCount: 2
Fore
SplineSet
673 1012 m 0,0,1
 673 1057 673 1057 651.5 1091 c 128,-1,2
 630 1125 630 1125 597 1142.5 c 128,-1,3
 564 1160 564 1160 532.5 1168 c 128,-1,4
 501 1176 501 1176 472 1176 c 256,5,6
 443 1176 443 1176 411 1168 c 128,-1,7
 379 1160 379 1160 346 1143 c 128,-1,8
 313 1126 313 1126 291.5 1092 c 128,-1,9
 270 1058 270 1058 270 1012 c 0,10,11
 270 967 270 967 286 929 c 128,-1,12
 302 891 302 891 334 860 c 128,-1,13
 366 829 366 829 399.5 806.5 c 128,-1,14
 433 784 433 784 483 757 c 1,15,16
 526 787 526 787 553.5 810 c 128,-1,17
 581 833 581 833 611.5 865.5 c 128,-1,18
 642 898 642 898 657.5 935 c 128,-1,19
 673 972 673 972 673 1012 c 0,0,1
436 605 m 1,20,21
 338 549 338 549 284.5 479.5 c 128,-1,22
 231 410 231 410 231 312 c 0,23,24
 231 233 231 233 303 172 c 128,-1,25
 375 111 375 111 466 111 c 0,26,27
 574 111 574 111 649 165 c 128,-1,28
 724 219 724 219 724 312 c 0,29,30
 724 344 724 344 715.5 372 c 128,-1,31
 707 400 707 400 692.5 423 c 128,-1,32
 678 446 678 446 657 467 c 128,-1,33
 636 488 636 488 611 505 c 128,-1,34
 586 522 586 522 557 539.5 c 128,-1,35
 528 557 528 557 497.5 572.5 c 128,-1,36
 467 588 467 588 436 605 c 1,20,21
316 672 m 1,37,38
 270 702 270 702 235 733.5 c 128,-1,39
 200 765 200 765 170 806.5 c 128,-1,40
 140 848 140 848 124.5 902 c 128,-1,41
 109 956 109 956 109 1020 c 0,42,43
 109 1106 109 1106 162.5 1172.5 c 128,-1,44
 216 1239 216 1239 297.5 1272 c 128,-1,45
 379 1305 379 1305 472 1305 c 256,46,47
 565 1305 565 1305 646 1272 c 128,-1,48
 727 1239 727 1239 780.5 1172.5 c 128,-1,49
 834 1106 834 1106 834 1020 c 0,50,51
 834 964 834 964 815 914.5 c 128,-1,52
 796 865 796 865 762 825 c 128,-1,53
 728 785 728 785 689.5 754.5 c 128,-1,54
 651 724 651 724 603 694 c 1,55,56
 652 667 652 667 688 643.5 c 128,-1,57
 724 620 724 620 763.5 584 c 128,-1,58
 803 548 803 548 828 510 c 128,-1,59
 853 472 853 472 869 419 c 128,-1,60
 885 366 885 366 885 304 c 0,61,62
 885 240 885 240 861 184 c 128,-1,63
 837 128 837 128 789.5 82 c 128,-1,64
 742 36 742 36 660 9 c 128,-1,65
 578 -18 578 -18 472 -18 c 256,66,67
 366 -18 366 -18 286 8.5 c 128,-1,68
 206 35 206 35 160 81 c 128,-1,69
 114 127 114 127 92 183 c 128,-1,70
 70 239 70 239 70 304 c 0,71,72
 70 347 70 347 77.5 385 c 128,-1,73
 85 423 85 423 97 452.5 c 128,-1,74
 109 482 109 482 129 510 c 128,-1,75
 149 538 149 538 167.5 558 c 128,-1,76
 186 578 186 578 214.5 600.5 c 128,-1,77
 243 623 243 623 263.5 637.5 c 128,-1,78
 284 652 284 652 316 672 c 1,37,38
EndSplineSet
EndChar

StartChar: nine
Encoding: 57 57 28
Width: 1013
GlyphClass: 2
Flags: W
LayerCount: 2
Fore
SplineSet
490 938 m 0,0,1
 388 938 388 938 311.5 865 c 128,-1,2
 235 792 235 792 231 662 c 1,3,-1
 231 645 l 2,4,5
 231 516 231 516 303 445 c 0,6,7
 380 368 380 368 504 368 c 0,8,9
 590 368 590 368 653.5 394.5 c 128,-1,10
 717 421 717 421 776 477 c 1,11,12
 781 509 781 509 781 539 c 0,13,14
 781 634 781 634 760 708 c 128,-1,15
 739 782 739 782 707.5 824 c 128,-1,16
 676 866 676 866 634.5 893 c 128,-1,17
 593 920 593 920 558.5 929 c 128,-1,18
 524 938 524 938 490 938 c 0,0,1
487 1067 m 0,19,20
 548 1067 548 1067 607 1053 c 128,-1,21
 666 1039 666 1039 728.5 1002 c 128,-1,22
 791 965 791 965 837 907.5 c 128,-1,23
 883 850 883 850 912.5 755.5 c 128,-1,24
 942 661 942 661 942 540 c 0,25,26
 942 465 942 465 932 394 c 128,-1,27
 922 323 922 323 897 247 c 128,-1,28
 872 171 872 171 833.5 105 c 128,-1,29
 795 39 795 39 734 -22.5 c 128,-1,30
 673 -84 673 -84 595 -130.5 c 128,-1,31
 517 -177 517 -177 409 -210.5 c 128,-1,32
 301 -244 301 -244 172 -256 c 1,33,-1
 157 -127 l 1,34,35
 401 -105 401 -105 557 11 c 128,-1,36
 713 127 713 127 759 336 c 1,37,38
 717 291 717 291 638 265 c 128,-1,39
 559 239 559 239 476 239 c 0,40,41
 301 239 301 239 185.5 348.5 c 128,-1,42
 70 458 70 458 70 633 c 0,43,44
 70 817 70 817 181 942 c 128,-1,45
 292 1067 292 1067 487 1067 c 0,19,20
EndSplineSet
EndChar

StartChar: less
Encoding: 60 60 31
Width: 967
GlyphClass: 2
Flags: W
LayerCount: 2
Fore
SplineSet
0 525 m 1,0,-1
 800 1155 l 1,1,-1
 879 1071 l 1,2,-1
 187 525 l 1,3,-1
 879 -21 l 1,4,-1
 800 -105 l 1,5,-1
 0 525 l 1,0,-1
EndSplineSet
EndChar

StartChar: equal
Encoding: 61 61 32
Width: 1052
GlyphClass: 2
Flags: W
LayerCount: 2
Fore
SplineSet
991 630 m 1,0,-1
 61 630 l 1,1,-1
 61 738 l 1,2,-1
 991 738 l 1,3,-1
 991 630 l 1,0,-1
991 294 m 1,4,-1
 61 294 l 1,5,-1
 61 402 l 1,6,-1
 991 402 l 1,7,-1
 991 294 l 1,4,-1
EndSplineSet
EndChar

StartChar: greater
Encoding: 62 62 33
Width: 967
GlyphClass: 2
Flags: W
LayerCount: 2
Fore
SplineSet
967 525 m 1,0,-1
 167 -105 l 1,1,-1
 88 -21 l 1,2,-1
 780 525 l 1,3,-1
 88 1071 l 1,4,-1
 167 1155 l 1,5,-1
 967 525 l 1,0,-1
EndSplineSet
EndChar

StartChar: question
Encoding: 63 63 34
Width: 864
GlyphClass: 2
Flags: W
LayerCount: 2
Fore
SplineSet
302 103 m 256,0,1
 302 153 302 153 336.5 188.5 c 128,-1,2
 371 224 371 224 420 224 c 256,3,4
 469 224 469 224 503.5 188.5 c 128,-1,5
 538 153 538 153 538 103 c 256,6,7
 538 53 538 53 503.5 17.5 c 128,-1,8
 469 -18 469 -18 420 -18 c 256,9,10
 371 -18 371 -18 336.5 17.5 c 128,-1,11
 302 53 302 53 302 103 c 256,0,1
108 1380 m 1,12,13
 138 1399 138 1399 154.5 1407.5 c 128,-1,14
 171 1416 171 1416 211 1432.5 c 128,-1,15
 251 1449 251 1449 303 1456.5 c 128,-1,16
 355 1464 355 1464 420 1464 c 0,17,18
 556 1464 556 1464 660 1384.5 c 128,-1,19
 764 1305 764 1305 764 1180 c 0,20,21
 764 1113 764 1113 734.5 1040.5 c 128,-1,22
 705 968 705 968 662.5 906.5 c 128,-1,23
 620 845 620 845 577.5 787.5 c 128,-1,24
 535 730 535 730 505.5 673 c 128,-1,25
 476 616 476 616 476 572 c 0,26,27
 476 496 476 496 502 408 c 1,28,-1
 368 388 l 1,29,30
 360 403 360 403 350.5 424.5 c 128,-1,31
 341 446 341 446 333 467 c 128,-1,32
 325 488 325 488 320 517 c 128,-1,33
 315 546 315 546 315 576 c 0,34,35
 315 635 315 635 344.5 700 c 128,-1,36
 374 765 374 765 416.5 822.5 c 128,-1,37
 459 880 459 880 501.5 937 c 128,-1,38
 544 994 544 994 573.5 1058 c 128,-1,39
 603 1122 603 1122 603 1180 c 0,40,41
 603 1242 603 1242 544 1288.5 c 128,-1,42
 485 1335 485 1335 374 1335 c 256,43,44
 263 1335 263 1335 158 1272 c 1,45,-1
 108 1380 l 1,12,13
EndSplineSet
EndChar

StartChar: at
Encoding: 64 64 35
Width: 1994
GlyphClass: 2
Flags: W
LayerCount: 2
Fore
SplineSet
1930 608 m 0,0,1
 1930 511 1930 511 1906.5 418.5 c 128,-1,2
 1883 326 1883 326 1837 248 c 128,-1,3
 1791 170 1791 170 1728.5 111 c 128,-1,4
 1666 52 1666 52 1583.5 18.5 c 128,-1,5
 1501 -15 1501 -15 1409 -15 c 0,6,7
 1348 -15 1348 -15 1303 -5.5 c 128,-1,8
 1258 4 1258 4 1232.5 18 c 128,-1,9
 1207 32 1207 32 1190 54.5 c 128,-1,10
 1173 77 1173 77 1166.5 96.5 c 128,-1,11
 1160 116 1160 116 1156 144 c 1,12,13
 1041 -18 1041 -18 848 -18 c 0,14,15
 784 -18 784 -18 731 1 c 128,-1,16
 678 20 678 20 637.5 58 c 128,-1,17
 597 96 597 96 575 159 c 128,-1,18
 553 222 553 222 553 305 c 0,19,20
 553 426 553 426 588 533 c 128,-1,21
 623 640 623 640 681.5 716 c 128,-1,22
 740 792 740 792 814 847.5 c 128,-1,23
 888 903 888 903 967.5 930 c 128,-1,24
 1047 957 1047 957 1124 957 c 0,25,26
 1223 957 1223 957 1296 933.5 c 128,-1,27
 1369 910 1369 910 1442 859 c 1,28,-1
 1351 392 l 2,29,30
 1327 270 1327 270 1327 209 c 0,31,32
 1327 144 1327 144 1353 119.5 c 128,-1,33
 1379 95 1379 95 1440 95 c 0,34,35
 1526 95 1526 95 1607 169 c 128,-1,36
 1688 243 1688 243 1737.5 359.5 c 128,-1,37
 1787 476 1787 476 1787 596 c 0,38,39
 1787 740 1787 740 1736 868 c 128,-1,40
 1685 996 1685 996 1593 1092 c 128,-1,41
 1501 1188 1501 1188 1363.5 1244 c 128,-1,42
 1226 1300 1226 1300 1064 1300 c 0,43,44
 940 1300 940 1300 818 1259 c 128,-1,45
 696 1218 696 1218 591.5 1139 c 128,-1,46
 487 1060 487 1060 406 954 c 128,-1,47
 325 848 325 848 279 709.5 c 128,-1,48
 233 571 233 571 233 420 c 0,49,50
 233 250 233 250 293.5 100.5 c 128,-1,51
 354 -49 354 -49 459 -155 c 128,-1,52
 564 -261 564 -261 712.5 -322.5 c 128,-1,53
 861 -384 861 -384 1030 -384 c 0,54,55
 1122 -384 1122 -384 1208.5 -366 c 128,-1,56
 1295 -348 1295 -348 1354 -325 c 128,-1,57
 1413 -302 1413 -302 1479.5 -261 c 128,-1,58
 1546 -220 1546 -220 1579 -194.5 c 128,-1,59
 1612 -169 1612 -169 1665 -125 c 1,60,-1
 1755 -195 l 1,61,62
 1634 -324 1634 -324 1446.5 -408 c 128,-1,63
 1259 -492 1259 -492 1030 -492 c 0,64,65
 866 -492 866 -492 726.5 -455 c 128,-1,66
 587 -418 587 -418 486 -352 c 128,-1,67
 385 -286 385 -286 307.5 -198.5 c 128,-1,68
 230 -111 230 -111 183.5 -6 c 128,-1,69
 137 99 137 99 113.5 209.5 c 128,-1,70
 90 320 90 320 90 436 c 0,71,72
 90 594 90 594 139.5 742.5 c 128,-1,73
 189 891 189 891 279 1010.5 c 128,-1,74
 369 1130 369 1130 487.5 1220 c 128,-1,75
 606 1310 606 1310 751.5 1359 c 128,-1,76
 897 1408 897 1408 1050 1408 c 0,77,78
 1213 1408 1213 1408 1354.5 1365.5 c 128,-1,79
 1496 1323 1496 1323 1600 1248.5 c 128,-1,80
 1704 1174 1704 1174 1779.5 1073.5 c 128,-1,81
 1855 973 1855 973 1892.5 854.5 c 128,-1,82
 1930 736 1930 736 1930 608 c 0,0,1
1135 828 m 0,83,84
 1065 828 1065 828 1005.5 808.5 c 128,-1,85
 946 789 946 789 904 757 c 128,-1,86
 862 725 862 725 828 681 c 128,-1,87
 794 637 794 637 773.5 591 c 128,-1,88
 753 545 753 545 739 494.5 c 128,-1,89
 725 444 725 444 719.5 401.5 c 128,-1,90
 714 359 714 359 714 320 c 0,91,92
 714 211 714 211 761 160.5 c 128,-1,93
 808 110 808 110 883 110 c 0,94,95
 931 110 931 110 972.5 124 c 128,-1,96
 1014 138 1014 138 1050 166.5 c 128,-1,97
 1086 195 1086 195 1112 222 c 128,-1,98
 1138 249 1138 249 1171 291 c 1,99,-1
 1268 791 l 1,100,101
 1217 828 1217 828 1135 828 c 0,83,84
EndSplineSet
EndChar

StartChar: A
Encoding: 65 65 36
Width: 1328
GlyphClass: 2
Flags: W
AnchorPoint: "Anchor-4" 664 0 basechar 0 14
AnchorPoint: "Anchor-3" 1166 0 basechar 0 13
AnchorPoint: "Anchor-2" 1166 0 basechar 0 13
AnchorPoint: "Anchor-1" 664 1409 basechar 0 11
AnchorPoint: "Anchor-0" 786 1053 basechar 0 12
LayerCount: 2
Fore
SplineSet
933 404 m 1,0,-1
 385 404 l 1,1,-1
 235 0 l 1,2,-1
 67 0 l 1,3,-1
 589 1391 l 1,4,-1
 739 1391 l 1,5,-1
 1261 0 l 1,6,-1
 1083 0 l 1,7,-1
 933 404 l 1,0,-1
881 544 m 1,8,-1
 659 1144 l 1,9,-1
 436 544 l 1,10,-1
 881 544 l 1,8,-1
EndSplineSet
EndChar

StartChar: B
Encoding: 66 66 37
Width: 1116
GlyphClass: 2
Flags: W
AnchorPoint: "Anchor-4" 540 0 basechar 0 57
AnchorPoint: "Anchor-3" 636 0 basechar 0 56
AnchorPoint: "Anchor-2" 636 0 basechar 0 56
AnchorPoint: "Anchor-1" 540 1409 basechar 0 54
AnchorPoint: "Anchor-0" 892 1053 basechar 0 55
LayerCount: 2
Fore
SplineSet
361 1252 m 1,0,-1
 361 795 l 1,1,-1
 427 795 l 2,2,3
 594 795 594 795 682 858 c 0,4,5
 771 921 771 921 771 1040 c 0,6,7
 771 1095 771 1095 750 1138 c 0,8,9
 729 1180 729 1180 698 1204 c 256,10,11
 667 1228 667 1228 626 1244 c 256,12,13
 585 1260 585 1260 551 1265 c 128,-1,14
 517 1270 517 1270 484 1270 c 0,15,16
 418 1270 418 1270 361 1252 c 1,0,-1
361 655 m 1,17,-1
 361 140 l 1,18,19
 379 134 379 134 425 128 c 128,-1,20
 471 122 471 122 499 122 c 0,21,22
 687 122 687 122 785 192 c 0,23,24
 883 261 883 261 883 390 c 0,25,26
 883 523 883 523 768 589 c 0,27,28
 652 655 652 655 421 655 c 2,29,-1
 361 655 l 1,17,-1
508 -18 m 0,30,31
 433 -18 433 -18 335 -9 c 128,-1,32
 237 0 237 0 180 13 c 1,33,-1
 180 1372 l 1,34,35
 346 1409 346 1409 500 1409 c 0,36,37
 702 1409 702 1409 832 1322 c 0,38,39
 963 1235 963 1235 963 1084 c 0,40,41
 963 953 963 953 894 867 c 128,-1,42
 825 781 825 781 717 752 c 1,43,44
 769 745 769 745 815 732 c 128,-1,45
 861 719 861 719 908 693 c 0,46,47
 956 667 956 667 990 631 c 0,48,49
 1025 595 1025 595 1046 538 c 1,50,51
 1068 482 1068 482 1068 413 c 0,52,53
 1068 271 1068 271 992 172 c 0,54,55
 917 73 917 73 793 28 c 0,56,57
 669 -18 669 -18 508 -18 c 0,30,31
EndSplineSet
EndChar

StartChar: C
Encoding: 67 67 38
Width: 1255
GlyphClass: 2
Flags: W
AnchorPoint: "Anchor-4" 660 0 basechar 0 39
AnchorPoint: "Anchor-3" 660 0 basechar 0 39
AnchorPoint: "Anchor-2" 1080 153 basechar 0 38
AnchorPoint: "Anchor-1" 660 1409 basechar 0 36
AnchorPoint: "Anchor-0" 1080 1245 basechar 0 37
LayerCount: 2
Fore
SplineSet
693 1409 m 0,0,1
 789 1409 789 1409 855 1401.5 c 128,-1,2
 921 1394 921 1394 976 1374 c 0,3,4
 1031 1353 1031 1353 1069 1330.5 c 128,-1,5
 1107 1308 1107 1308 1166 1265 c 1,6,-1
 1078 1146 l 1,7,8
 992 1211 992 1211 909 1241 c 0,9,10
 831 1269 831 1269 740 1269 c 2,11,-1
 728 1269 l 2,12,13
 616 1269 616 1269 517.5 1221 c 128,-1,14
 419 1173 419 1173 359 1093 c 0,15,16
 298 1012 298 1012 265 909 c 0,17,18
 231 806 231 806 231 695 c 256,19,20
 231 584 231 584 265 482 c 1,21,22
 298 379 298 379 359 299 c 1,23,24
 419 218 419 218 513 170 c 0,25,26
 606 122 606 122 728 122 c 2,27,-1
 740 122 l 2,28,29
 831 122 831 122 909 150 c 0,30,31
 992 180 992 180 1078 245 c 1,32,-1
 1166 126 l 1,33,34
 1107 83 1107 83 1069 60.5 c 128,-1,35
 1031 38 1031 38 976 17.5 c 128,-1,36
 921 -3 921 -3 855 -10.5 c 128,-1,37
 789 -18 789 -18 693 -18 c 0,38,39
 497 -18 497 -18 350 72 c 256,40,41
 203 162 203 162 126 324 c 0,42,43
 49 485 49 485 49 696 c 256,44,45
 49 907 49 907 126 1068 c 256,46,47
 203 1229 203 1229 350 1319 c 256,48,49
 497 1409 497 1409 693 1409 c 0,0,1
EndSplineSet
EndChar

StartChar: D
Encoding: 68 68 39
Width: 1375
GlyphClass: 2
Flags: W
AnchorPoint: "Anchor-4" 620 0 basechar 0 34
AnchorPoint: "Anchor-3" 620 0 basechar 0 34
AnchorPoint: "Anchor-2" 620 0 basechar 0 34
AnchorPoint: "Anchor-1" 620 1409 basechar 0 32
AnchorPoint: "Anchor-0" 1135 1053 basechar 0 33
LayerCount: 2
Fore
SplineSet
584 -18 m 0,0,1
 367 -18 367 -18 180 13 c 1,2,-1
 180 1372 l 1,3,4
 391 1409 391 1409 544 1409 c 0,5,6
 663 1409 663 1409 777 1379 c 256,7,8
 891 1349 891 1349 991 1289 c 0,9,10
 1091 1228 1091 1228 1167 1144 c 1,11,12
 1242 1059 1242 1059 1286 942 c 128,-1,13
 1330 825 1330 825 1330 691 c 0,14,15
 1330 524 1330 524 1268 387 c 0,16,17
 1205 250 1205 250 1101 163 c 0,18,19
 996 76 996 76 863 29 c 256,20,21
 730 -18 730 -18 584 -18 c 0,0,1
361 1252 m 1,22,-1
 360 140 l 1,23,24
 452 122 452 122 557 122 c 0,25,26
 665 122 665 122 768 159 c 256,27,28
 871 196 871 196 955 265 c 0,29,30
 1039 333 1039 333 1091 444 c 0,31,32
 1142 554 1142 554 1142 688 c 0,33,34
 1142 799 1142 799 1105.5 895 c 128,-1,35
 1069 991 1069 991 1009 1059 c 0,36,37
 949 1126 949 1126 872 1175 c 0,38,39
 794 1224 794 1224 710.5 1247 c 128,-1,40
 627 1270 627 1270 546 1270 c 0,41,42
 439 1270 439 1270 361 1252 c 1,22,-1
EndSplineSet
EndChar

StartChar: E
Encoding: 69 69 40
Width: 1077
GlyphClass: 2
Flags: W
AnchorPoint: "Anchor-4" 568 0 basechar 0 15
AnchorPoint: "Anchor-3" 568 0 basechar 0 15
AnchorPoint: "Anchor-2" 908 0 basechar 0 12
AnchorPoint: "Anchor-1" 568 1409 basechar 0 13
AnchorPoint: "Anchor-0" 868 1053 basechar 0 14
LayerCount: 2
Fore
SplineSet
361 644 m 1,0,-1
 361 140 l 1,1,-1
 975 140 l 1,2,-1
 975 0 l 1,3,-1
 180 0 l 1,4,-1
 180 1391 l 1,5,-1
 975 1391 l 1,6,-1
 975 1252 l 1,7,-1
 361 1252 l 1,8,-1
 361 784 l 1,9,-1
 779 784 l 1,10,-1
 779 644 l 1,11,-1
 361 644 l 1,0,-1
EndSplineSet
EndChar

StartChar: F
Encoding: 70 70 41
Width: 999
GlyphClass: 2
Flags: W
AnchorPoint: "Anchor-4" 270 0 basechar 0 12
AnchorPoint: "Anchor-3" 270 0 basechar 0 12
AnchorPoint: "Anchor-2" 270 0 basechar 0 12
AnchorPoint: "Anchor-1" 580 1409 basechar 0 10
AnchorPoint: "Anchor-0" 872 1053 basechar 0 11
LayerCount: 2
Fore
SplineSet
361 644 m 1,0,-1
 361 0 l 1,1,-1
 180 0 l 1,2,-1
 180 1391 l 1,3,-1
 975 1391 l 1,4,-1
 975 1252 l 1,5,-1
 361 1252 l 1,6,-1
 361 784 l 1,7,-1
 779 784 l 1,8,-1
 779 644 l 1,9,-1
 361 644 l 1,0,-1
EndSplineSet
EndChar

StartChar: G
Encoding: 71 71 42
Width: 1435
GlyphClass: 2
Flags: W
AnchorPoint: "Anchor-4" 740 0 basechar 0 38
AnchorPoint: "Anchor-3" 740 0 basechar 0 38
AnchorPoint: "Anchor-2" 740 0 basechar 0 38
AnchorPoint: "Anchor-1" 740 1409 basechar 0 36
AnchorPoint: "Anchor-0" 1255 1053 basechar 0 37
LayerCount: 2
Fore
SplineSet
49 696 m 0,0,1
 49 907 49 907 136 1068 c 0,2,3
 222 1229 222 1229 386 1319 c 256,4,5
 550 1409 550 1409 770 1409 c 0,6,7
 867 1409 867 1409 938.5 1400 c 128,-1,8
 1010 1391 1010 1391 1070.5 1369.5 c 128,-1,9
 1131 1348 1131 1348 1171.5 1326.5 c 128,-1,10
 1212 1305 1212 1305 1276 1264 c 1,11,-1
 1206 1131 l 1,12,13
 992 1269 992 1269 774 1269 c 0,14,15
 652 1269 652 1269 550 1221 c 0,16,17
 447 1173 447 1173 381 1093 c 0,18,19
 314 1013 314 1013 278 911 c 0,20,21
 241 808 241 808 241 697 c 0,22,23
 241 608 241 608 262 524 c 256,24,25
 283 440 283 440 325 367 c 256,26,27
 367 294 367 294 425 240 c 1,28,29
 482 185 482 185 561 154 c 0,30,31
 640 122 640 122 730 122 c 2,32,-1
 742 122 l 2,33,34
 904 122 904 122 1071 197 c 1,35,-1
 1071 526 l 1,36,-1
 774 526 l 1,37,-1
 774 665 l 1,38,-1
 1252 666 l 1,39,-1
 1251 126 l 1,40,41
 1140 51 1140 51 1018.5 16.5 c 128,-1,42
 897 -18 897 -18 742 -18 c 0,43,44
 424 -18 424 -18 237 179 c 0,45,46
 49 376 49 376 49 696 c 0,0,1
EndSplineSet
EndChar

StartChar: H
Encoding: 72 72 43
Width: 1364
GlyphClass: 2
Flags: W
AnchorPoint: "Anchor-4" 682 0 basechar 0 15
AnchorPoint: "Anchor-3" 1093 0 basechar 0 14
AnchorPoint: "Anchor-2" 1093 0 basechar 0 14
AnchorPoint: "Anchor-1" 682 1409 basechar 0 12
AnchorPoint: "Anchor-0" 1096 1053 basechar 0 13
LayerCount: 2
Fore
SplineSet
1184 1390 m 1,0,-1
 1184 0 l 1,1,-1
 1003 0 l 1,2,-1
 1003 664 l 1,3,-1
 361 664 l 1,4,-1
 361 0 l 1,5,-1
 180 0 l 1,6,-1
 180 1391 l 1,7,-1
 361 1391 l 1,8,-1
 361 804 l 1,9,-1
 1003 804 l 1,10,-1
 1003 1390 l 1,11,-1
 1184 1390 l 1,0,-1
EndSplineSet
EndChar

StartChar: I
Encoding: 73 73 44
Width: 541
GlyphClass: 2
Flags: W
AnchorPoint: "Anchor-4" 270 0 basechar 0 6
AnchorPoint: "Anchor-3" 270 0 basechar 0 6
AnchorPoint: "Anchor-2" 270 0 basechar 0 6
AnchorPoint: "Anchor-1" 270 1409 basechar 0 4
AnchorPoint: "Anchor-0" 270 1053 basechar 0 5
LayerCount: 2
Fore
SplineSet
361 1391 m 1,0,-1
 361 0 l 1,1,-1
 180 0 l 1,2,-1
 180 1391 l 1,3,-1
 361 1391 l 1,0,-1
EndSplineSet
EndChar

StartChar: J
Encoding: 74 74 45
Width: 541
GlyphClass: 2
Flags: W
AnchorPoint: "Anchor-4" 180 -492 basechar 0 17
AnchorPoint: "Anchor-3" 60 -492 basechar 0 18
AnchorPoint: "Anchor-2" 60 -492 basechar 0 18
AnchorPoint: "Anchor-1" 270 1409 basechar 0 15
AnchorPoint: "Anchor-0" 270 1053 basechar 0 16
LayerCount: 2
Fore
SplineSet
361 1391 m 1,0,-1
 361 140 l 1,1,2
 359 74 359 74 359 33 c 0,3,4
 359 -9 359 -9 351.5 -67.5 c 128,-1,5
 344 -126 344 -126 331.5 -166.5 c 128,-1,6
 319 -207 319 -207 295 -257 c 128,-1,7
 271 -307 271 -307 237.5 -344.5 c 128,-1,8
 204 -382 204 -382 153 -422 c 128,-1,9
 102 -462 102 -462 37 -495 c 1,10,-1
 -41 -396 l 1,11,12
 76 -306 76 -306 128 -200.5 c 128,-1,13
 180 -95 180 -95 180 69 c 2,14,-1
 180 1391 l 1,15,-1
 361 1391 l 1,0,-1
EndSplineSet
EndChar

StartChar: K
Encoding: 75 75 46
Width: 1115
GlyphClass: 2
Flags: W
AnchorPoint: "Anchor-4" 620 0 basechar 0 14
AnchorPoint: "Anchor-3" 997 0 basechar 0 13
AnchorPoint: "Anchor-2" 997 0 basechar 0 13
AnchorPoint: "Anchor-1" 620 1409 basechar 0 11
AnchorPoint: "Anchor-0" 999 1053 basechar 0 12
LayerCount: 2
Fore
SplineSet
361 0 m 1,0,-1
 180 0 l 1,1,-1
 180 1391 l 1,2,-1
 361 1391 l 1,3,-1
 361 693 l 1,4,-1
 871 1391 l 1,5,-1
 1059 1391 l 1,6,-1
 555 701 l 1,7,-1
 1103 0 l 1,8,-1
 892 0 l 1,9,-1
 361 679 l 1,10,-1
 361 0 l 1,0,-1
EndSplineSet
EndChar

StartChar: L
Encoding: 76 76 47
Width: 1010
GlyphClass: 2
Flags: W
AnchorPoint: "Anchor-4" 580 0 basechar 0 8
AnchorPoint: "Anchor-3" 580 0 basechar 0 8
AnchorPoint: "Anchor-2" 580 0 basechar 0 8
AnchorPoint: "Anchor-1" 270 1409 basechar 0 6
AnchorPoint: "Anchor-0" 270 1053 basechar 0 7
LayerCount: 2
Fore
SplineSet
180 0 m 1,0,-1
 180 1391 l 1,1,-1
 361 1391 l 1,2,-1
 361 140 l 1,3,-1
 975 140 l 1,4,-1
 975 0 l 1,5,-1
 180 0 l 1,0,-1
EndSplineSet
EndChar

StartChar: M
Encoding: 77 77 48
Width: 1774
GlyphClass: 2
Flags: W
AnchorPoint: "Anchor-4" 886 0 basechar 0 16
AnchorPoint: "Anchor-3" 1575 0 basechar 0 15
AnchorPoint: "Anchor-2" 1575 0 basechar 0 15
AnchorPoint: "Anchor-1" 886 1409 basechar 0 13
AnchorPoint: "Anchor-0" 1455 1053 basechar 0 14
LayerCount: 2
Fore
SplineSet
893 249 m 1,0,-1
 1323 1392 l 1,1,-1
 1491 1392 l 1,2,-1
 1664 0 l 1,3,-1
 1486 0 l 1,4,-1
 1362 1039 l 1,5,-1
 981 0 l 1,6,-1
 816 0 l 1,7,-1
 399 1087 l 1,8,-1
 269 0 l 1,9,-1
 109 0 l 1,10,-1
 282 1392 l 1,11,-1
 460 1392 l 1,12,-1
 893 249 l 1,0,-1
EndSplineSet
EndChar

StartChar: N
Encoding: 78 78 49
Width: 1385
GlyphClass: 2
Flags: W
AnchorPoint: "Anchor-4" 692 0 basechar 0 13
AnchorPoint: "Anchor-3" 1114 0 basechar 0 12
AnchorPoint: "Anchor-2" 1114 0 basechar 0 12
AnchorPoint: "Anchor-1" 692 1409 basechar 0 10
AnchorPoint: "Anchor-0" 1114 1053 basechar 0 11
LayerCount: 2
Fore
SplineSet
1205 1391 m 1,0,-1
 1205 0 l 1,1,-1
 1024 0 l 1,2,-1
 361 1042 l 1,3,-1
 361 0 l 1,4,-1
 180 0 l 1,5,-1
 180 1391 l 1,6,-1
 361 1391 l 1,7,-1
 1024 348 l 1,8,-1
 1024 1391 l 1,9,-1
 1205 1391 l 1,0,-1
EndSplineSet
EndChar

StartChar: O
Encoding: 79 79 50
Width: 1444
GlyphClass: 2
Flags: W
AnchorPoint: "Anchor-4" 727 0 basechar 0 40
AnchorPoint: "Anchor-3" 727 0 basechar 0 40
AnchorPoint: "Anchor-2" 727 0 basechar 0 40
AnchorPoint: "Anchor-1" 727 1409 basechar 0 0
AnchorPoint: "Anchor-0" 1263 1053 basechar 0 39
LayerCount: 2
Fore
SplineSet
727 1409 m 0,0,1
 856 1409 856 1409 965.5 1373 c 128,-1,2
 1075 1337 1075 1337 1155 1272 c 0,3,4
 1234 1207 1234 1207 1290 1119 c 1,5,6
 1345 1030 1345 1030 1372 925 c 128,-1,7
 1399 820 1399 820 1399 703 c 0,8,9
 1399 587 1399 587 1371 479.5 c 128,-1,10
 1343 372 1343 372 1286 282 c 0,11,12
 1229 191 1229 191 1150 124 c 0,13,14
 1070 57 1070 57 962 20 c 0,15,16
 853 -18 853 -18 727 -18 c 0,17,18
 562 -18 562 -18 431 38 c 0,19,20
 300 93 300 93 217 191 c 1,21,22
 133 288 133 288 89 419 c 0,23,24
 45 549 45 549 45 703 c 0,25,26
 45 855 45 855 90.5 984 c 128,-1,27
 136 1113 136 1113 221 1208 c 0,28,29
 305 1302 305 1302 435 1355.5 c 128,-1,30
 565 1409 565 1409 727 1409 c 0,0,1
727 1271 m 0,31,32
 573 1271 573 1271 461 1196 c 0,33,34
 348 1121 348 1121 293 994 c 0,35,36
 237 867 237 867 237 703 c 0,37,38
 237 537 237 537 291 408 c 256,39,40
 345 279 345 279 458 201 c 0,41,42
 570 123 570 123 727 123 c 0,43,44
 840 123 840 123 933 170 c 0,45,46
 1025 217 1025 217 1085 297 c 256,47,48
 1145 377 1145 377 1178 482 c 0,49,50
 1210 586 1210 586 1210 703 c 0,51,52
 1210 861 1210 861 1157 988 c 0,53,54
 1103 1115 1103 1115 992 1193 c 0,55,56
 880 1271 880 1271 727 1271 c 0,31,32
EndSplineSet
EndChar

StartChar: P
Encoding: 80 80 51
Width: 1083
GlyphClass: 2
Flags: W
AnchorPoint: "Anchor-4" 270 0 basechar 0 28
AnchorPoint: "Anchor-3" 270 0 basechar 0 28
AnchorPoint: "Anchor-2" 270 0 basechar 0 28
AnchorPoint: "Anchor-1" 540 1409 basechar 0 26
AnchorPoint: "Anchor-0" 950 1053 basechar 0 27
LayerCount: 2
Fore
SplineSet
515 1409 m 0,0,1
 631 1409 631 1409 723 1386 c 1,2,3
 814 1362 814 1362 872 1323 c 0,4,5
 929 1284 929 1284 966.5 1229.5 c 128,-1,6
 1004 1175 1004 1175 1019.5 1117.5 c 128,-1,7
 1035 1060 1035 1060 1035 996 c 0,8,9
 1035 813 1035 813 895 695 c 0,10,11
 755 576 755 576 531 576 c 2,12,-1
 361 576 l 1,13,-1
 361 0 l 1,14,-1
 180 0 l 1,15,-1
 180 1372 l 1,16,17
 248 1385 248 1385 348.5 1397 c 128,-1,18
 449 1409 449 1409 515 1409 c 0,0,1
361 1252 m 1,19,-1
 361 716 l 1,20,-1
 427 716 l 2,21,22
 649 716 649 716 746 782 c 0,23,24
 843 847 843 847 843 996 c 0,25,26
 843 1124 843 1124 762 1197 c 0,27,28
 680 1270 680 1270 520 1270 c 0,29,30
 434 1270 434 1270 361 1252 c 1,19,-1
EndSplineSet
EndChar

StartChar: Q
Encoding: 81 81 52
Width: 1449
GlyphClass: 2
Flags: W
AnchorPoint: "Anchor-4" 727 0 basechar 0 52
AnchorPoint: "Anchor-3" 727 0 basechar 0 52
AnchorPoint: "Anchor-2" 727 0 basechar 0 52
AnchorPoint: "Anchor-1" 727 1409 basechar 0 0
AnchorPoint: "Anchor-0" 1263 1053 basechar 0 51
LayerCount: 2
Fore
SplineSet
727 1409 m 0,0,1
 856 1409 856 1409 965.5 1373 c 128,-1,2
 1075 1337 1075 1337 1155 1272 c 0,3,4
 1234 1207 1234 1207 1290 1119 c 1,5,6
 1345 1030 1345 1030 1372 925 c 256,7,8
 1399 820 1399 820 1399 703 c 0,9,10
 1399 554 1399 554 1354 423 c 0,11,12
 1308 292 1308 292 1217 190 c 256,13,14
 1126 88 1126 88 1000 34 c 1,15,16
 1028 19 1028 19 1084.5 -15.5 c 128,-1,17
 1141 -50 1141 -50 1176 -70 c 128,-1,18
 1211 -90 1211 -90 1265.5 -111.5 c 128,-1,19
 1320 -133 1320 -133 1372 -142 c 1,20,-1
 1319 -272 l 1,21,22
 1254 -261 1254 -261 1190 -232.5 c 128,-1,23
 1126 -204 1126 -204 1073 -171 c 128,-1,24
 1020 -138 1020 -138 966.5 -106 c 128,-1,25
 913 -74 913 -74 849.5 -49 c 128,-1,26
 786 -24 786 -24 721 -18 c 1,27,28
 590 -17 590 -17 479.5 19.5 c 128,-1,29
 369 56 369 56 290 121 c 0,30,31
 210 186 210 186 155 276 c 1,32,33
 99 365 99 365 72 473 c 256,34,35
 45 581 45 581 45 703 c 0,36,37
 45 855 45 855 91 984 c 0,38,39
 136 1113 136 1113 221 1208 c 0,40,41
 305 1302 305 1302 435 1356 c 0,42,43
 565 1409 565 1409 727 1409 c 0,0,1
727 1271 m 0,44,45
 573 1271 573 1271 461 1196 c 0,46,47
 348 1121 348 1121 293 994 c 0,48,49
 237 867 237 867 237 703 c 0,50,51
 237 537 237 537 291 408 c 256,52,53
 345 279 345 279 458 201 c 0,54,55
 570 123 570 123 727 123 c 0,56,57
 840 123 840 123 933 170 c 0,58,59
 1025 217 1025 217 1085 297 c 256,60,61
 1145 377 1145 377 1178 482 c 0,62,63
 1210 586 1210 586 1210 703 c 0,64,65
 1210 861 1210 861 1157 988 c 0,66,67
 1103 1115 1103 1115 992 1193 c 0,68,69
 880 1271 880 1271 727 1271 c 0,44,45
EndSplineSet
EndChar

StartChar: R
Encoding: 82 82 53
Width: 1045
GlyphClass: 2
Flags: W
AnchorPoint: "Anchor-4" 548 0 basechar 0 27
AnchorPoint: "Anchor-3" 997 0 basechar 0 26
AnchorPoint: "Anchor-2" 997 0 basechar 0 26
AnchorPoint: "Anchor-1" 548 1409 basechar 0 24
AnchorPoint: "Anchor-0" 900 1053 basechar 0 25
LayerCount: 2
Fore
SplineSet
1079 0 m 1,0,-1
 878 0 l 1,1,-1
 361 628 l 1,2,-1
 361 0 l 1,3,-1
 180 0 l 1,4,-1
 180 1372 l 1,5,6
 367 1409 367 1409 500 1409 c 0,7,8
 732 1409 732 1409 863 1303 c 0,9,10
 994 1196 994 1196 994 1030 c 0,11,12
 994 866 994 866 876 757 c 256,13,14
 758 648 758 648 559 631 c 1,15,-1
 1079 0 l 1,0,-1
361 1252 m 1,16,-1
 361 768 l 1,17,-1
 386 768 l 2,18,19
 594 768 594 768 698 832 c 256,20,21
 802 896 802 896 802 1024 c 0,22,23
 802 1133 802 1133 709 1202 c 1,24,25
 615 1270 615 1270 491 1270 c 0,26,27
 457 1270 457 1270 416 1263.5 c 128,-1,28
 375 1257 375 1257 361 1252 c 1,16,-1
EndSplineSet
EndChar

StartChar: S
Encoding: 83 83 54
Width: 1007
GlyphClass: 2
Flags: W
AnchorPoint: "Anchor-4" 504 0 basechar 0 60
AnchorPoint: "Anchor-3" 504 0 basechar 0 60
AnchorPoint: "Anchor-2" 504 0 basechar 0 60
AnchorPoint: "Anchor-1" 504 1409 basechar 0 58
AnchorPoint: "Anchor-0" 772 1053 basechar 0 59
LayerCount: 2
Fore
SplineSet
157 253 m 1,0,1
 185 233 185 233 208.5 214 c 128,-1,2
 232 195 232 195 262 178.5 c 128,-1,3
 292 162 292 162 324 149.5 c 128,-1,4
 356 137 356 137 401 129.5 c 128,-1,5
 446 122 446 122 499 122 c 0,6,7
 568 122 568 122 613 142 c 0,8,9
 657 161 657 161 682 193 c 0,10,11
 706 224 706 224 718 260 c 0,12,13
 729 295 729 295 729 332 c 0,14,15
 729 373 729 373 717 407 c 0,16,17
 704 441 704 441 679 469 c 0,18,19
 653 497 653 497 625 518 c 1,20,21
 596 538 596 538 556 561 c 1,22,-1
 392 642 l 1,23,24
 346 667 346 667 311.5 691 c 128,-1,25
 277 715 277 715 241 751 c 1,26,27
 204 786 204 786 181 826 c 1,28,29
 157 865 157 865 142 921 c 0,30,31
 127 976 127 976 127 1040 c 0,32,33
 127 1199 127 1199 230 1304 c 256,34,35
 333 1409 333 1409 498 1409 c 0,36,37
 603 1409 603 1409 686.5 1382 c 128,-1,38
 770 1355 770 1355 819 1317 c 1,39,-1
 781 1179 l 1,40,41
 662 1271 662 1271 511 1271 c 0,42,43
 416 1271 416 1271 363 1208 c 0,44,45
 309 1145 309 1145 309 1046 c 0,46,47
 309 1001 309 1001 324 964 c 1,48,49
 338 926 338 926 367 897 c 0,50,51
 396 867 396 867 428 846 c 1,52,53
 459 824 459 824 514 800 c 1,54,-1
 671 720 l 1,55,56
 713 697 713 697 746 675 c 1,57,58
 778 652 778 652 811 620 c 1,59,60
 843 587 843 587 864 551 c 0,61,62
 885 514 885 514 898 465 c 0,63,64
 911 415 911 415 911 357 c 0,65,66
 911 200 911 200 802 91 c 256,67,68
 693 -18 693 -18 518 -18 c 0,69,70
 463 -18 463 -18 415.5 -13 c 128,-1,71
 368 -8 368 -8 331.5 1 c 128,-1,72
 295 10 295 10 262 22.5 c 128,-1,73
 229 35 229 35 202.5 49.5 c 128,-1,74
 176 64 176 64 148.5 80 c 128,-1,75
 121 96 121 96 96 113 c 1,76,-1
 157 253 l 1,0,1
EndSplineSet
EndChar

StartChar: T
Encoding: 84 84 55
Width: 1183
GlyphClass: 2
Flags: W
AnchorPoint: "Anchor-4" 591 0 basechar 0 10
AnchorPoint: "Anchor-3" 591 0 basechar 0 10
AnchorPoint: "Anchor-2" 591 0 basechar 0 10
AnchorPoint: "Anchor-1" 591 1409 basechar 0 8
AnchorPoint: "Anchor-0" 1008 1053 basechar 0 9
LayerCount: 2
Fore
SplineSet
57 1391 m 1,0,-1
 1126 1391 l 1,1,-1
 1126 1252 l 1,2,-1
 682 1252 l 1,3,-1
 682 0 l 1,4,-1
 501 0 l 1,5,-1
 501 1252 l 1,6,-1
 57 1252 l 1,7,-1
 57 1391 l 1,0,-1
EndSplineSet
EndChar

StartChar: U
Encoding: 85 85 56
Width: 1310
GlyphClass: 2
Flags: W
AnchorPoint: "Anchor-4" 655 0 basechar 0 17
AnchorPoint: "Anchor-3" 655 0 basechar 0 17
AnchorPoint: "Anchor-2" 655 0 basechar 0 17
AnchorPoint: "Anchor-1" 655 1392 basechar 0 19
AnchorPoint: "Anchor-0" 1048 1053 basechar 0 18
LayerCount: 2
Fore
SplineSet
361 486 m 2,0,1
 361 299 361 299 447 211 c 256,2,3
 533 123 533 123 681 123 c 0,4,5
 814 123 814 123 887 219 c 0,6,7
 959 314 959 314 959 513 c 2,8,-1
 959 1391 l 1,9,-1
 1130 1391 l 1,10,-1
 1130 469 l 2,11,12
 1130 248 1130 248 1012 115 c 256,13,14
 894 -18 894 -18 681 -18 c 0,15,16
 431 -18 431 -18 305 96 c 0,17,18
 180 210 180 210 180 438 c 2,19,-1
 180 1391 l 1,20,-1
 361 1391 l 1,21,-1
 361 486 l 2,0,1
EndSplineSet
EndChar

StartChar: V
Encoding: 86 86 57
Width: 1328
GlyphClass: 2
Flags: W
AnchorPoint: "Anchor-4" 664 0 basechar 0 9
AnchorPoint: "Anchor-3" 664 0 basechar 0 9
AnchorPoint: "Anchor-2" 664 0 basechar 0 9
AnchorPoint: "Anchor-1" 664 1409 basechar 0 7
AnchorPoint: "Anchor-0" 1048 1053 basechar 0 8
LayerCount: 2
Fore
SplineSet
669 248 m 1,0,-1
 1093 1391 l 1,1,-1
 1261 1391 l 1,2,-1
 739 0 l 1,3,-1
 589 0 l 1,4,-1
 67 1391 l 1,5,-1
 245 1391 l 1,6,-1
 669 248 l 1,0,-1
EndSplineSet
EndChar

StartChar: W
Encoding: 87 87 58
Width: 2027
GlyphClass: 2
Flags: W
AnchorPoint: "Anchor-4" 1013 0 basechar 0 15
AnchorPoint: "Anchor-3" 1424 0 basechar 0 16
AnchorPoint: "Anchor-2" 1424 0 basechar 0 16
AnchorPoint: "Anchor-1" 1013 1409 basechar 0 13
AnchorPoint: "Anchor-0" 1772 1053 basechar 0 14
LayerCount: 2
Fore
SplineSet
1792 1391 m 1,0,-1
 1960 1391 l 1,1,-1
 1499 0 l 1,2,-1
 1349 0 l 1,3,-1
 1013 1014 l 1,4,-1
 677 0 l 1,5,-1
 527 0 l 1,6,-1
 67 1391 l 1,7,-1
 245 1391 l 1,8,-1
 607 248 l 1,9,-1
 970 1391 l 1,10,-1
 1067 1391 l 1,11,-1
 1429 248 l 1,12,-1
 1792 1391 l 1,0,-1
EndSplineSet
EndChar

StartChar: X
Encoding: 88 88 59
Width: 1288
GlyphClass: 2
Flags: W
AnchorPoint: "Anchor-4" 644 0 basechar 0 15
AnchorPoint: "Anchor-3" 1098 0 basechar 0 12
AnchorPoint: "Anchor-2" 1098 0 basechar 0 12
AnchorPoint: "Anchor-1" 644 1409 basechar 0 13
AnchorPoint: "Anchor-0" 892 1053 basechar 0 14
LayerCount: 2
Fore
SplineSet
108 1392 m 1,0,-1
 319 1392 l 1,1,-1
 662 854 l 1,2,-1
 1002 1391 l 1,3,-1
 1190 1391 l 1,4,-1
 756 706 l 1,5,-1
 1204 1 l 1,6,-1
 992 1 l 1,7,-1
 633 566 l 1,8,-1
 272 -5 l 1,9,-1
 84 -5 l 1,10,-1
 539 714 l 1,11,-1
 108 1392 l 1,0,-1
EndSplineSet
EndChar

StartChar: Y
Encoding: 89 89 60
Width: 1241
GlyphClass: 2
Flags: W
AnchorPoint: "Anchor-4" 620 0 basechar 0 11
AnchorPoint: "Anchor-3" 620 0 basechar 0 11
AnchorPoint: "Anchor-2" 620 0 basechar 0 11
AnchorPoint: "Anchor-1" 620 1409 basechar 0 9
AnchorPoint: "Anchor-0" 896 1053 basechar 0 10
LayerCount: 2
Fore
SplineSet
1014 1391 m 1,0,-1
 1182 1391 l 1,1,-1
 711 618 l 1,2,-1
 711 0 l 1,3,-1
 530 0 l 1,4,-1
 530 619 l 1,5,-1
 59 1391 l 1,6,-1
 237 1391 l 1,7,-1
 626 754 l 1,8,-1
 1014 1391 l 1,0,-1
EndSplineSet
EndChar

StartChar: Z
Encoding: 90 90 61
Width: 1259
GlyphClass: 2
Flags: W
LayerCount: 2
Fore
SplineSet
87 1391 m 1,0,-1
 1116 1391 l 1,1,-1
 320 139 l 1,2,-1
 1116 139 l 1,3,-1
 1116 -1 l 1,4,-1
 50 0 l 1,5,-1
 846 1252 l 1,6,-1
 87 1252 l 1,7,-1
 87 1391 l 1,0,-1
EndSplineSet
EndChar

StartChar: bracketleft
Encoding: 91 91 62
Width: 581
GlyphClass: 2
Flags: W
LayerCount: 2
Fore
SplineSet
100 -490 m 1,0,-1
 100 1475 l 1,1,-1
 522 1475 l 1,2,-1
 522 1347 l 1,3,-1
 261 1347 l 1,4,-1
 261 -362 l 1,5,-1
 522 -362 l 1,6,-1
 522 -490 l 1,7,-1
 100 -490 l 1,0,-1
EndSplineSet
EndChar

StartChar: backslash
Encoding: 92 92 63
Width: 645
GlyphClass: 2
Flags: W
LayerCount: 2
Fore
SplineSet
152 1475 m 1,0,-1
 621 0 l 1,1,-1
 493 0 l 1,2,-1
 24 1475 l 1,3,-1
 152 1475 l 1,0,-1
EndSplineSet
EndChar

StartChar: bracketright
Encoding: 93 93 64
Width: 581
GlyphClass: 2
Flags: W
LayerCount: 2
Fore
SplineSet
522 -490 m 1,0,-1
 100 -490 l 1,1,-1
 100 -362 l 1,2,-1
 361 -362 l 1,3,-1
 361 1347 l 1,4,-1
 100 1347 l 1,5,-1
 100 1475 l 1,6,-1
 522 1475 l 1,7,-1
 522 -490 l 1,0,-1
EndSplineSet
EndChar

StartChar: asciicircum
Encoding: 94 94 65
Width: 1085
GlyphClass: 2
Flags: W
LayerCount: 2
Fore
SplineSet
600 1409 m 1,0,-1
 1015 828 l 1,1,-1
 915 795 l 1,2,-1
 540 1310 l 1,3,-1
 165 795 l 1,4,-1
 65 828 l 1,5,-1
 480 1409 l 1,6,-1
 600 1409 l 1,0,-1
EndSplineSet
EndChar

StartChar: underscore
Encoding: 95 95 66
Width: 1048
GlyphClass: 2
Flags: W
LayerCount: 2
Fore
SplineSet
983 -297 m 1,0,-1
 65 -297 l 1,1,-1
 65 -188 l 1,2,-1
 983 -188 l 1,3,-1
 983 -297 l 1,0,-1
EndSplineSet
EndChar

StartChar: grave
Encoding: 96 96 67
Width: 491
GlyphClass: 2
Flags: W
LayerCount: 2
Fore
SplineSet
10 1475 m 1,0,-1
 198 1475 l 1,1,-1
 360 1100 l 1,2,-1
 249 1100 l 1,3,-1
 10 1475 l 1,0,-1
EndSplineSet
EndChar

StartChar: a
Encoding: 97 97 68
Width: 894
GlyphClass: 2
Flags: W
AnchorPoint: "Anchor-4" 439 0 basechar 0 54
AnchorPoint: "Anchor-3" 693 0 basechar 0 53
AnchorPoint: "Anchor-2" 720 0 basechar 0 55
AnchorPoint: "Anchor-1" 439 956 basechar 0 52
AnchorPoint: "Anchor-0" 774 828 basechar 0 56
LayerCount: 2
Fore
SplineSet
611 422 m 1,0,-1
 605 422 l 2,1,2
 497 422 497 422 413 404 c 0,3,4
 329 385 329 385 283 345 c 0,5,6
 237 304 237 304 237 239 c 0,7,8
 237 190 237 190 267.5 148 c 128,-1,9
 298 106 298 106 337 106 c 2,10,-1
 376 106 l 2,11,12
 596 106 596 106 611 337 c 1,13,-1
 611 422 l 1,0,-1
145 893 m 1,14,15
 325 956 325 956 444 956 c 0,16,17
 555 956 555 956 641 899 c 256,18,19
 727 842 727 842 756 730 c 0,20,21
 772 667 772 667 772 473 c 2,22,-1
 772 160 l 2,23,24
 772 72 772 72 786 0 c 1,25,-1
 624 0 l 1,26,27
 611 41 611 41 611 93 c 2,28,-1
 611 100 l 1,29,30
 586 70 586 70 556 48 c 0,31,32
 462 -21 462 -21 356 -21 c 0,33,34
 292 -21 292 -21 241 -3 c 256,35,36
 190 15 190 15 160 43 c 0,37,38
 130 70 130 70 111 106 c 0,39,40
 91 142 91 142 83.5 173.5 c 128,-1,41
 76 205 76 205 76 235 c 0,42,43
 76 301 76 301 103.5 351 c 128,-1,44
 131 401 131 401 179 434 c 0,45,46
 226 467 226 467 281 488 c 256,47,48
 336 509 336 509 399 521 c 0,49,50
 474 535 474 535 593 535 c 2,51,-1
 611 535 l 1,52,-1
 611 636 l 2,53,54
 611 667 611 667 609.5 686.5 c 128,-1,55
 608 706 608 706 598 737 c 128,-1,56
 588 768 588 768 569 786 c 256,57,58
 550 804 550 804 512 818 c 256,59,60
 474 832 474 832 420 832 c 0,61,62
 292 832 292 832 153 768 c 1,63,-1
 145 893 l 1,14,15
EndSplineSet
EndChar

StartChar: b
Encoding: 98 98 69
Width: 1059
GlyphClass: 2
Flags: W
AnchorPoint: "Anchor-4" 555 0 basechar 0 34
AnchorPoint: "Anchor-3" 555 0 basechar 0 34
AnchorPoint: "Anchor-2" 555 0 basechar 0 34
AnchorPoint: "Anchor-1" 244 1475 basechar 0 36
AnchorPoint: "Anchor-0" 841 828 basechar 0 35
LayerCount: 2
Fore
SplineSet
594 828 m 0,0,1
 513 828 513 828 445 783 c 0,2,3
 378 738 378 738 325 648 c 1,4,-1
 325 148 l 1,5,6
 383 111 383 111 490 111 c 0,7,8
 576 111 576 111 644 141 c 0,9,10
 711 171 711 171 753 223 c 256,11,12
 795 275 795 275 817 343 c 0,13,14
 838 411 838 411 838 490 c 0,15,16
 838 582 838 582 817 651 c 1,17,18
 795 719 795 719 759 756 c 0,19,20
 722 793 722 793 681 811 c 0,21,22
 640 828 640 828 594 828 c 0,0,1
606 956 m 0,23,24
 684 956 684 956 753 929 c 0,25,26
 822 901 822 901 878 846 c 256,27,28
 934 791 934 791 967 698 c 1,29,30
 999 604 999 604 999 482 c 0,31,32
 999 387 999 387 971 305 c 0,33,34
 942 222 942 222 895 164 c 0,35,36
 847 106 847 106 786 64 c 0,37,38
 724 22 724 22 658 2 c 128,-1,39
 592 -18 592 -18 526 -18 c 0,40,41
 323 -18 323 -18 164 80 c 1,42,-1
 164 1475 l 1,43,-1
 325 1475 l 1,44,-1
 325 828 l 1,45,46
 390 901 390 901 457 928.5 c 128,-1,47
 524 956 524 956 606 956 c 0,23,24
EndSplineSet
EndChar

StartChar: c
Encoding: 99 99 70
Width: 888
GlyphClass: 2
Flags: W
AnchorPoint: "Anchor-4" 486 0 basechar 0 28
AnchorPoint: "Anchor-3" 516 0 basechar 0 29
AnchorPoint: "Anchor-2" 516 0 basechar 0 29
AnchorPoint: "Anchor-1" 486 956 basechar 0 26
AnchorPoint: "Anchor-0" 773 828 basechar 0 27
LayerCount: 2
Fore
SplineSet
61 469 m 256,0,1
 61 690 61 690 182 823 c 0,2,3
 302 956 302 956 508 956 c 0,4,5
 633 956 633 956 695 935 c 128,-1,6
 757 914 757 914 836 856 c 1,7,-1
 774 748 l 1,8,9
 715 791 715 791 661 810 c 0,10,11
 610 827 610 827 549 827 c 2,12,-1
 543 827 l 2,13,14
 397 827 397 827 310 722 c 0,15,16
 222 617 222 617 222 469 c 256,17,18
 222 321 222 321 310 216 c 0,19,20
 397 111 397 111 543 111 c 2,21,-1
 549 111 l 2,22,23
 610 111 610 111 661 129 c 0,24,25
 715 147 715 147 774 190 c 1,26,-1
 836 82 l 1,27,28
 757 24 757 24 695 3 c 128,-1,29
 633 -18 633 -18 508 -18 c 0,30,31
 302 -18 302 -18 182 115 c 0,32,33
 61 248 61 248 61 469 c 256,0,1
EndSplineSet
EndChar

StartChar: d
Encoding: 100 100 71
Width: 1063
GlyphClass: 2
Flags: W
AnchorPoint: "Anchor-4" 482 0 basechar 0 31
AnchorPoint: "Anchor-3" 482 0 basechar 0 31
AnchorPoint: "Anchor-2" 816 0 basechar 0 33
AnchorPoint: "Anchor-1" 816 1475 basechar 0 30
AnchorPoint: "Anchor-0" 816 828 basechar 0 32
LayerCount: 2
Fore
SplineSet
465 -18 m 0,0,1
 349 -18 349 -18 255 46 c 256,2,3
 161 110 161 110 111 213 c 0,4,5
 61 315 61 315 61 432 c 0,6,7
 61 665 61 665 197 811 c 0,8,9
 332 956 332 956 533 956 c 0,10,11
 617 956 617 956 734 924 c 1,12,-1
 734 1475 l 1,13,-1
 899 1475 l 1,14,-1
 899 0 l 1,15,-1
 734 0 l 1,16,-1
 734 110 l 1,17,18
 621 -18 621 -18 465 -18 c 0,0,1
734 784 m 1,19,20
 651 828 651 828 543 828 c 0,21,22
 488 828 488 828 431.5 799.5 c 128,-1,23
 375 771 375 771 328 722 c 0,24,25
 281 672 281 672 252 597 c 0,26,27
 222 522 222 522 222 436 c 0,28,29
 222 297 222 297 297 204 c 0,30,31
 371 111 371 111 480 111 c 0,32,33
 554 111 554 111 621 161.5 c 128,-1,34
 688 212 688 212 734 290 c 1,35,-1
 734 784 l 1,19,20
EndSplineSet
EndChar

StartChar: e
Encoding: 101 101 72
Width: 939
GlyphClass: 2
Flags: W
AnchorPoint: "Anchor-4" 495 0 basechar 0 42
AnchorPoint: "Anchor-3" 495 0 basechar 0 42
AnchorPoint: "Anchor-2" 740 0 basechar 0 41
AnchorPoint: "Anchor-1" 495 956 basechar 0 39
AnchorPoint: "Anchor-0" 773 828 basechar 0 40
LayerCount: 2
Fore
SplineSet
500 828 m 0,0,1
 361 828 361 828 292 744 c 0,2,3
 244 686 244 686 229 580 c 1,4,-1
 714 580 l 1,5,6
 705 689 705 689 649 759 c 1,7,8
 592 828 592 828 500 828 c 0,0,1
222 460 m 1,9,10
 224 294 224 294 310 204 c 0,11,12
 398 111 398 111 543 111 c 0,13,14
 586 111 586 111 605.5 112.5 c 128,-1,15
 625 114 625 114 675 127.5 c 128,-1,16
 725 141 725 141 795 170 c 1,17,-1
 838 55 l 1,18,19
 782 17 782 17 700.5 -0.5 c 128,-1,20
 619 -18 619 -18 546 -18 c 0,21,22
 313 -18 313 -18 187 115 c 256,23,24
 61 248 61 248 61 469 c 0,25,26
 61 571 61 571 86 654.5 c 128,-1,27
 111 738 111 738 152 793 c 256,28,29
 193 848 193 848 248 886 c 0,30,31
 303 923 303 923 361 939.5 c 128,-1,32
 419 956 419 956 480 956 c 0,33,34
 552 956 552 956 611 938 c 128,-1,35
 670 920 670 920 709.5 891 c 128,-1,36
 749 862 749 862 779.5 821.5 c 128,-1,37
 810 781 810 781 826.5 742 c 128,-1,38
 843 703 843 703 854 658.5 c 128,-1,39
 865 614 865 614 868 582.5 c 128,-1,40
 871 551 871 551 872 520 c 1,41,-1
 848 460 l 1,42,-1
 222 460 l 1,9,10
EndSplineSet
EndChar

StartChar: f
Encoding: 102 102 73
Width: 675
GlyphClass: 2
Flags: W
AnchorPoint: "Anchor-4" 302 0 basechar 0 25
AnchorPoint: "Anchor-3" 302 0 basechar 0 25
AnchorPoint: "Anchor-2" 302 0 basechar 0 25
AnchorPoint: "Anchor-1" 564 1475 basechar 0 27
AnchorPoint: "Anchor-0" 580 828 basechar 0 26
LayerCount: 2
Fore
SplineSet
383 0 m 1,0,-1
 222 0 l 1,1,-1
 222 810 l 1,2,-1
 56 810 l 1,3,-1
 56 938 l 1,4,-1
 222 938 l 1,5,-1
 222 1020 l 2,6,7
 222 1242 222 1242 310 1353 c 256,8,9
 398 1464 398 1464 573 1464 c 0,10,11
 632 1464 632 1464 681 1452.5 c 128,-1,12
 730 1441 730 1441 753.5 1429.5 c 128,-1,13
 777 1418 777 1418 807 1398.5 c 128,-1,14
 837 1379 837 1379 846 1374 c 1,15,-1
 802 1247 l 1,16,17
 761 1283 761 1283 699.5 1309.5 c 128,-1,18
 638 1336 638 1336 575 1336 c 0,19,20
 500 1336 500 1336 442 1264 c 0,21,22
 383 1192 383 1192 383 1107 c 2,23,-1
 383 938 l 1,24,-1
 612 938 l 1,25,-1
 612 810 l 1,26,-1
 383 810 l 1,27,-1
 383 0 l 1,0,-1
EndSplineSet
EndChar

StartChar: g
Encoding: 103 103 74
Width: 980
GlyphClass: 2
Flags: W
AnchorPoint: "Anchor-4" 495 -492 basechar 0
AnchorPoint: "Anchor-3" 516 -492 basechar 0 93
AnchorPoint: "Anchor-2" 516 -492 basechar 0 93
AnchorPoint: "Anchor-1" 516 956 basechar 0 94
AnchorPoint: "Anchor-0" 892 828 basechar 0 95
LayerCount: 2
Fore
SplineSet
492 827 m 256,0,1
 435 827 435 827 392 806.5 c 128,-1,2
 349 786 349 786 325 752 c 128,-1,3
 301 718 301 718 289.5 680 c 128,-1,4
 278 642 278 642 278 602 c 0,5,6
 278 519 278 519 329 467 c 0,7,8
 380 414 380 414 492 414 c 0,9,10
 549 414 549 414 592 433 c 128,-1,11
 635 452 635 452 659 484 c 0,12,13
 683 515 683 515 694.5 550 c 128,-1,14
 706 585 706 585 706 621 c 0,15,16
 706 655 706 655 694.5 689.5 c 128,-1,17
 683 724 683 724 659 756 c 0,18,19
 635 787 635 787 592 807 c 256,20,21
 549 827 549 827 492 827 c 256,0,1
805 810 m 1,22,23
 867 722 867 722 867 621 c 0,24,25
 867 574 867 574 855 528 c 128,-1,26
 843 482 843 482 815 437.5 c 128,-1,27
 787 393 787 393 745 359.5 c 128,-1,28
 703 326 703 326 638 305.5 c 128,-1,29
 573 285 573 285 492 285 c 0,30,31
 406 285 406 285 338 303 c 1,32,33
 279 258 279 258 279 201 c 0,34,35
 279 176 279 176 301 159 c 128,-1,36
 323 142 323 142 364 134.5 c 128,-1,37
 405 127 405 127 444 124.5 c 128,-1,38
 483 122 483 122 536 122 c 0,39,40
 594 122 594 122 646.5 115.5 c 128,-1,41
 699 109 699 109 754 92 c 128,-1,42
 809 75 809 75 848.5 49 c 128,-1,43
 888 23 888 23 913 -21 c 128,-1,44
 938 -65 938 -65 938 -121 c 0,45,46
 938 -244 938 -244 869 -329 c 128,-1,47
 800 -414 800 -414 686.5 -453 c 128,-1,48
 573 -492 573 -492 424 -492 c 0,49,50
 265 -492 265 -492 165.5 -428 c 128,-1,51
 66 -364 66 -364 66 -241 c 0,52,53
 66 -195 66 -195 78 -157 c 128,-1,54
 90 -119 90 -119 114.5 -88 c 128,-1,55
 139 -57 139 -57 168.5 -33 c 128,-1,56
 198 -9 198 -9 242 18 c 1,57,58
 118 60 118 60 118 170 c 0,59,60
 118 211 118 211 146 262 c 128,-1,61
 174 313 174 313 231 353 c 1,62,63
 120 433 120 433 117 598 c 1,64,-1
 117 604 l 2,65,66
 117 665 117 665 136 723 c 0,67,68
 156 783 156 783 198 837 c 128,-1,69
 240 891 240 891 316 923.5 c 128,-1,70
 392 956 392 956 492 956 c 0,71,72
 563 956 563 956 624 938 c 1,73,-1
 938 938 l 1,74,-1
 938 810 l 1,75,-1
 805 810 l 1,22,23
396 -6 m 1,76,77
 369 -21 369 -21 350.5 -32 c 128,-1,78
 332 -43 332 -43 306.5 -63.5 c 128,-1,79
 281 -84 281 -84 265.5 -105 c 128,-1,80
 250 -126 250 -126 238.5 -156.5 c 128,-1,81
 227 -187 227 -187 227 -222 c 0,82,83
 227 -273 227 -273 262 -306 c 256,84,85
 297 -339 297 -339 345 -351 c 256,86,87
 393 -363 393 -363 454 -363 c 0,88,89
 537 -363 537 -363 608 -342 c 0,90,91
 678 -322 678 -322 728 -273 c 0,92,93
 777 -225 777 -225 777 -156 c 0,94,95
 777 -122 777 -122 763 -95.5 c 128,-1,96
 749 -69 749 -69 721 -53 c 0,97,98
 693 -38 693 -38 664 -28 c 256,99,100
 635 -18 635 -18 592 -13 c 1,101,102
 548 -9 548 -9 517.5 -8 c 128,-1,103
 487 -7 487 -7 442 -7 c 0,104,105
 418 -7 418 -7 396 -6 c 1,76,77
EndSplineSet
EndChar

StartChar: h
Encoding: 104 104 75
Width: 1121
GlyphClass: 2
Flags: W
AnchorPoint: "Anchor-4" 555 0 basechar 0 24
AnchorPoint: "Anchor-3" 876 0 basechar 0 25
AnchorPoint: "Anchor-2" 876 0 basechar 0 25
AnchorPoint: "Anchor-1" 244 1475 basechar 0 27
AnchorPoint: "Anchor-0" 907 828 basechar 0 26
LayerCount: 2
Fore
SplineSet
164 0 m 1,0,-1
 164 1475 l 1,1,-1
 325 1475 l 1,2,-1
 325 766 l 1,3,4
 415 956 415 956 618 956 c 0,5,6
 654 956 654 956 694 946.5 c 128,-1,7
 734 937 734 937 782.5 910 c 128,-1,8
 831 883 831 883 869 841 c 0,9,10
 906 799 906 799 932 727 c 0,11,12
 957 655 957 655 957 563 c 2,13,-1
 957 0 l 1,14,-1
 796 0 l 1,15,-1
 796 507 l 2,16,17
 796 678 796 678 736 753 c 256,18,19
 676 828 676 828 566 828 c 0,20,21
 507 828 507 828 458 797 c 0,22,23
 409 765 409 765 382 721 c 256,24,25
 355 677 355 677 340 638.5 c 128,-1,26
 325 600 325 600 325 578 c 2,27,-1
 325 0 l 1,28,-1
 164 0 l 1,0,-1
EndSplineSet
EndChar

StartChar: k
Encoding: 107 107 78
Width: 935
GlyphClass: 2
Flags: W
AnchorPoint: "Anchor-4" 555 0 basechar 0 11
AnchorPoint: "Anchor-3" 555 0 basechar 0 12
AnchorPoint: "Anchor-2" 555 0 basechar 0 12
AnchorPoint: "Anchor-1" 244 1475 basechar 0 14
AnchorPoint: "Anchor-0" 632 828 basechar 0 13
LayerCount: 2
Fore
SplineSet
325 0 m 1,0,-1
 164 0 l 1,1,-1
 164 1475 l 1,2,-1
 325 1475 l 1,3,-1
 325 624 l 1,4,-1
 644 938 l 1,5,-1
 844 938 l 1,6,-1
 458 562 l 1,7,-1
 913 0 l 1,8,-1
 714 0 l 1,9,-1
 325 479 l 1,10,-1
 325 0 l 1,0,-1
EndSplineSet
EndChar

StartChar: l
Encoding: 108 108 79
Width: 593
GlyphClass: 2
Flags: W
AnchorPoint: "Anchor-4" 344 0 basechar 0 14
AnchorPoint: "Anchor-3" 344 0 basechar 0 14
AnchorPoint: "Anchor-2" 344 0 basechar 0 14
AnchorPoint: "Anchor-1" 244 1475 basechar 0 16
AnchorPoint: "Anchor-0" 244 828 basechar 0 15
LayerCount: 2
Fore
SplineSet
325 1475 m 1,0,-1
 325 256 l 2,1,2
 325 179 325 179 355.5 145.5 c 128,-1,3
 386 112 386 112 423 112 c 0,4,5
 438 112 438 112 526 120 c 1,6,-1
 539 3 l 1,7,8
 439 -18 439 -18 372 -18 c 0,9,10
 270 -18 270 -18 217 44.5 c 128,-1,11
 164 107 164 107 164 246 c 2,12,-1
 164 1475 l 1,13,-1
 325 1475 l 1,0,-1
EndSplineSet
EndChar

StartChar: m
Encoding: 109 109 80
Width: 1645
GlyphClass: 2
Flags: W
AnchorPoint: "Anchor-4" 825 0 basechar 0 35
AnchorPoint: "Anchor-3" 1403 0 basechar 0 38
AnchorPoint: "Anchor-2" 1403 0 basechar 0 38
AnchorPoint: "Anchor-1" 825 956 basechar 0 36
AnchorPoint: "Anchor-0" 1431 828 basechar 0 37
LayerCount: 2
Fore
SplineSet
164 0 m 1,0,-1
 164 938 l 1,1,-1
 325 938 l 1,2,-1
 325 789 l 1,3,4
 356 862 356 862 416.5 909 c 128,-1,5
 477 956 477 956 567 956 c 0,6,7
 793 956 793 956 867 731 c 1,8,9
 946 956 946 956 1145 956 c 0,10,11
 1310 956 1310 956 1396 833 c 0,12,13
 1481 710 1481 710 1481 469 c 2,14,-1
 1481 1 l 1,15,-1
 1325 0 l 1,16,-1
 1325 469 l 2,17,18
 1325 649 1325 649 1272 738 c 0,19,20
 1218 828 1218 828 1111 828 c 0,21,22
 1053 828 1053 828 1006 785 c 128,-1,23
 959 742 959 742 934 680 c 1,24,25
 903 617 903 617 903 549 c 2,26,-1
 903 0 l 1,27,-1
 747 0 l 1,28,-1
 747 469 l 2,29,30
 747 649 747 649 694 738 c 0,31,32
 640 828 640 828 533 828 c 0,33,34
 475 828 475 828 428 785 c 128,-1,35
 381 742 381 742 356 680 c 1,36,37
 325 617 325 617 325 549 c 2,38,-1
 325 0 l 1,39,-1
 164 0 l 1,0,-1
EndSplineSet
EndChar

StartChar: n
Encoding: 110 110 81
Width: 1121
GlyphClass: 2
Flags: W
AnchorPoint: "Anchor-4" 555 0 basechar 0 24
AnchorPoint: "Anchor-3" 876 0 basechar 0 27
AnchorPoint: "Anchor-2" 876 0 basechar 0 27
AnchorPoint: "Anchor-1" 555 956 basechar 0 25
AnchorPoint: "Anchor-0" 795 828 basechar 0 26
LayerCount: 2
Fore
SplineSet
796 507 m 2,0,1
 796 678 796 678 736 753 c 256,2,3
 676 828 676 828 566 828 c 0,4,5
 507 828 507 828 458 797 c 0,6,7
 409 765 409 765 382 721 c 256,8,9
 355 677 355 677 340 638.5 c 128,-1,10
 325 600 325 600 325 578 c 2,11,-1
 325 0 l 1,12,-1
 164 0 l 1,13,-1
 164 938 l 1,14,-1
 325 938 l 1,15,-1
 325 766 l 1,16,17
 415 956 415 956 618 956 c 0,18,19
 654 956 654 956 694 946.5 c 128,-1,20
 734 937 734 937 783 910 c 0,21,22
 831 883 831 883 869 841 c 0,23,24
 906 799 906 799 932 727 c 0,25,26
 957 655 957 655 957 563 c 2,27,-1
 957 0 l 1,28,-1
 796 0 l 1,29,-1
 796 507 l 2,0,1
EndSplineSet
EndChar

StartChar: o
Encoding: 111 111 82
Width: 1012
GlyphClass: 2
Flags: W
AnchorPoint: "Anchor-4" 506 0 basechar 0 46
AnchorPoint: "Anchor-3" 506 0 basechar 0 46
AnchorPoint: "Anchor-2" 506 0 basechar 0 46
AnchorPoint: "Anchor-1" 506 956 basechar 0 44
AnchorPoint: "Anchor-0" 773 828 basechar 0 45
LayerCount: 2
Fore
SplineSet
222 469 m 256,0,1
 222 372 222 372 247 300 c 1,2,3
 271 227 271 227 313 188 c 1,4,5
 354 148 354 148 403 130 c 1,6,7
 451 111 451 111 506 111 c 256,8,9
 561 111 561 111 609 129.5 c 128,-1,10
 657 148 657 148 699 188 c 0,11,12
 740 227 740 227 764 300 c 0,13,14
 788 372 788 372 788 469 c 256,15,16
 788 566 788 566 764 638.5 c 128,-1,17
 740 711 740 711 699 751 c 1,18,19
 657 790 657 790 609 809 c 0,20,21
 561 827 561 827 506 827 c 256,22,23
 451 827 451 827 402.5 808.5 c 128,-1,24
 354 790 354 790 313 751 c 0,25,26
 271 711 271 711 247 639 c 0,27,28
 222 566 222 566 222 469 c 256,0,1
61 469 m 256,29,30
 61 576 61 576 86.5 661 c 128,-1,31
 112 746 112 746 154.5 800.5 c 128,-1,32
 197 855 197 855 256 891 c 0,33,34
 314 926 314 926 376 941 c 256,35,36
 438 956 438 956 506 956 c 256,37,38
 574 956 574 956 636 941 c 128,-1,39
 698 926 698 926 757 891 c 1,40,41
 815 855 815 855 858 801 c 1,42,43
 900 746 900 746 926 661 c 0,44,45
 951 576 951 576 951 469 c 256,46,47
 951 362 951 362 925.5 277 c 128,-1,48
 900 192 900 192 858 138 c 0,49,50
 815 83 815 83 757 48 c 0,51,52
 698 12 698 12 636 -3 c 256,53,54
 574 -18 574 -18 506 -18 c 256,55,56
 438 -18 438 -18 376 -3 c 128,-1,57
 314 12 314 12 256 48 c 1,58,59
 197 83 197 83 155 138 c 1,60,61
 112 192 112 192 87 277 c 0,62,63
 61 362 61 362 61 469 c 256,29,30
EndSplineSet
EndChar

StartChar: p
Encoding: 112 112 83
Width: 1063
GlyphClass: 2
Flags: W
AnchorPoint: "Anchor-4" 244 -492 basechar 0 32
AnchorPoint: "Anchor-3" 244 -492 basechar 0 32
AnchorPoint: "Anchor-2" 244 -492 basechar 0 32
AnchorPoint: "Anchor-1" 555 956 basechar 0 30
AnchorPoint: "Anchor-0" 841 828 basechar 0 31
LayerCount: 2
Fore
SplineSet
329 154 m 1,0,1
 409 110 409 110 520 110 c 0,2,3
 575 110 575 110 631.5 138.5 c 128,-1,4
 688 167 688 167 735 217 c 0,5,6
 782 266 782 266 812 341 c 0,7,8
 841 416 841 416 841 502 c 0,9,10
 841 641 841 641 767 734 c 0,11,12
 692 827 692 827 583 827 c 0,13,14
 509 827 509 827 442 777 c 0,15,16
 375 726 375 726 329 648 c 1,17,-1
 329 154 l 1,0,1
598 956 m 0,18,19
 714 956 714 956 808 892 c 256,20,21
 902 828 902 828 952 726 c 0,22,23
 1002 623 1002 623 1002 506 c 0,24,25
 1002 273 1002 273 867 128 c 0,26,27
 731 -18 731 -18 530 -18 c 0,28,29
 446 -18 446 -18 329 14 c 1,30,-1
 329 -492 l 1,31,-1
 164 -492 l 1,32,-1
 164 938 l 1,33,-1
 329 938 l 1,34,-1
 329 828 l 1,35,36
 442 956 442 956 598 956 c 0,18,19
EndSplineSet
EndChar

StartChar: q
Encoding: 113 113 84
Width: 1060
GlyphClass: 2
Flags: W
AnchorPoint: "Anchor-4" 816 -492 basechar 0 36
AnchorPoint: "Anchor-3" 816 -492 basechar 0 36
AnchorPoint: "Anchor-2" 816 -492 basechar 0 36
AnchorPoint: "Anchor-1" 555 956 basechar 0 34
AnchorPoint: "Anchor-0" 816 828 basechar 0 35
LayerCount: 2
Fore
SplineSet
454 -18 m 0,0,1
 376 -18 376 -18 307 10 c 0,2,3
 238 37 238 37 182 92 c 256,4,5
 126 147 126 147 94 241 c 1,6,7
 61 334 61 334 61 456 c 0,8,9
 61 551 61 551 90 634 c 0,10,11
 118 716 118 716 166 774 c 0,12,13
 213 832 213 832 275 874 c 0,14,15
 336 916 336 916 402 936 c 128,-1,16
 468 956 468 956 534 956 c 0,17,18
 737 956 737 956 896 858 c 1,19,-1
 896 -492 l 1,20,-1
 735 -492 l 1,21,-1
 735 110 l 1,22,23
 670 37 670 37 603 9.5 c 128,-1,24
 536 -18 536 -18 454 -18 c 0,0,1
464 110 m 0,25,26
 628 110 628 110 735 290 c 1,27,-1
 735 790 l 1,28,29
 677 827 677 827 570 827 c 0,30,31
 484 827 484 827 417 797 c 0,32,33
 349 767 349 767 307 715 c 256,34,35
 265 663 265 663 244 595 c 0,36,37
 222 527 222 527 222 448 c 0,38,39
 222 357 222 357 244 289 c 1,40,41
 265 220 265 220 301 183 c 0,42,43
 337 145 337 145 377.5 127.5 c 128,-1,44
 418 110 418 110 464 110 c 0,25,26
EndSplineSet
EndChar

StartChar: r
Encoding: 114 114 85
Width: 830
GlyphClass: 2
Flags: W
AnchorPoint: "Anchor-4" 244 0 basechar 0 20
AnchorPoint: "Anchor-3" 244 0 basechar 0 20
AnchorPoint: "Anchor-2" 244 0 basechar 0 20
AnchorPoint: "Anchor-1" 465 956 basechar 0 21
AnchorPoint: "Anchor-0" 728 828 basechar 0 22
LayerCount: 2
Fore
SplineSet
164 0 m 1,0,-1
 164 938 l 1,1,-1
 325 938 l 1,2,-1
 325 766 l 1,3,4
 361 844 361 844 428 900 c 0,5,6
 494 956 494 956 589 956 c 0,7,8
 663 956 663 956 717.5 926.5 c 128,-1,9
 772 897 772 897 790 864 c 1,10,-1
 722 762 l 1,11,12
 708 780 708 780 695 792.5 c 128,-1,13
 682 805 682 805 650.5 816.5 c 128,-1,14
 619 828 619 828 578 828 c 0,15,16
 514 828 514 828 456 782 c 0,17,18
 398 735 398 735 364 668 c 256,19,20
 330 601 330 601 325 534 c 1,21,-1
 325 0 l 1,22,-1
 164 0 l 1,0,-1
EndSplineSet
EndChar

StartChar: s
Encoding: 115 115 86
Width: 782
GlyphClass: 2
Flags: W
AnchorPoint: "Anchor-4" 400 0 basechar 0 38
AnchorPoint: "Anchor-3" 400 0 basechar 0 38
AnchorPoint: "Anchor-2" 400 0 basechar 0 38
AnchorPoint: "Anchor-1" 400 956 basechar 0 39
AnchorPoint: "Anchor-0" 597 828 basechar 0 40
LayerCount: 2
Fore
SplineSet
396 956 m 0,0,1
 486 956 486 956 556 932.5 c 128,-1,2
 626 909 626 909 664 879 c 1,3,-1
 607 759 l 1,4,5
 576 784 576 784 519 806 c 128,-1,6
 462 828 462 828 406 828 c 0,7,8
 331 828 331 828 289 789 c 256,9,10
 247 750 247 750 247 705 c 0,11,12
 247 654 247 654 279 622 c 256,13,14
 311 590 311 590 408 556 c 2,15,-1
 506 522 l 2,16,17
 613 485 613 485 665 425 c 1,18,19
 716 364 716 364 716 264 c 0,20,21
 716 134 716 134 628 58 c 256,22,23
 540 -18 540 -18 388 -18 c 0,24,25
 307 -18 307 -18 232.5 -1.5 c 128,-1,26
 158 15 158 15 66 68 c 1,27,-1
 124 192 l 1,28,29
 201 146 201 146 255 128.5 c 128,-1,30
 309 111 309 111 382 111 c 0,31,32
 469 111 469 111 512 148 c 0,33,34
 555 186 555 186 555 260 c 0,35,36
 555 305 555 305 514 341 c 256,37,38
 473 377 473 377 390 404 c 1,39,-1
 292 438 l 2,40,41
 187 475 187 475 137 544 c 1,42,43
 86 612 86 612 86 695 c 0,44,45
 86 799 86 799 173 878 c 0,46,47
 260 956 260 956 396 956 c 0,0,1
EndSplineSet
EndChar

StartChar: t
Encoding: 116 116 87
Width: 669
GlyphClass: 2
Flags: W
AnchorPoint: "Anchor-4" 372 0 basechar 0 22
AnchorPoint: "Anchor-3" 372 0 basechar 0 22
AnchorPoint: "Anchor-2" 372 0 basechar 0 22
AnchorPoint: "Anchor-1" 254 956 basechar 0 23
AnchorPoint: "Anchor-0" 510 828 basechar 0 24
LayerCount: 2
Fore
SplineSet
335 1188 m 1,0,-1
 335 938 l 1,1,-1
 564 938 l 1,2,-1
 564 810 l 1,3,-1
 335 810 l 1,4,-1
 335 256 l 2,5,6
 335 179 335 179 374 146 c 0,7,8
 413 112 413 112 461 112 c 0,9,10
 554 112 554 112 606 128 c 1,11,-1
 626 15 l 1,12,13
 534 -18 534 -18 412 -18 c 0,14,15
 295 -18 295 -18 235 45 c 1,16,17
 174 107 174 107 174 246 c 2,18,-1
 174 810 l 1,19,-1
 8 810 l 1,20,-1
 8 938 l 1,21,-1
 174 938 l 1,22,-1
 174 1128 l 1,23,-1
 335 1188 l 1,0,-1
EndSplineSet
EndChar

StartChar: u
Encoding: 117 117 88
Width: 1121
GlyphClass: 2
Flags: W
AnchorPoint: "Anchor-4" 555 0 basechar 0 24
AnchorPoint: "Anchor-3" 876 0 basechar 0 27
AnchorPoint: "Anchor-2" 876 0 basechar 0 27
AnchorPoint: "Anchor-1" 555 956 basechar 0 25
AnchorPoint: "Anchor-0" 907 828 basechar 0 26
LayerCount: 2
Fore
SplineSet
325 431 m 2,0,1
 325 260 325 260 385 185 c 256,2,3
 445 110 445 110 555 110 c 0,4,5
 614 110 614 110 663 142 c 0,6,7
 712 173 712 173 739 217 c 256,8,9
 766 261 766 261 781 299.5 c 128,-1,10
 796 338 796 338 796 360 c 2,11,-1
 796 938 l 1,12,-1
 957 938 l 1,13,-1
 957 0 l 1,14,-1
 796 0 l 1,15,-1
 796 172 l 1,16,17
 751 77 751 77 678 30 c 0,18,19
 605 -18 605 -18 503 -18 c 0,20,21
 467 -18 467 -18 427 -8 c 0,22,23
 387 1 387 1 339 28 c 0,24,25
 290 55 290 55 253 97 c 0,26,27
 215 139 215 139 190 211 c 0,28,29
 164 283 164 283 164 375 c 2,30,-1
 164 938 l 1,31,-1
 325 938 l 1,32,-1
 325 431 l 2,0,1
EndSplineSet
EndChar

StartChar: v
Encoding: 118 118 89
Width: 984
GlyphClass: 2
Flags: W
AnchorPoint: "Anchor-4" 492 0 basechar 0 7
AnchorPoint: "Anchor-3" 492 0 basechar 0 7
AnchorPoint: "Anchor-2" 492 0 basechar 0 7
AnchorPoint: "Anchor-1" 492 956 basechar 0 8
AnchorPoint: "Anchor-0" 846 828 basechar 0 9
LayerCount: 2
Fore
SplineSet
801 938 m 1,0,-1
 963 938 l 1,1,-1
 546 0 l 1,2,-1
 440 0 l 1,3,-1
 21 938 l 1,4,-1
 194 938 l 1,5,-1
 498 266 l 1,6,-1
 801 938 l 1,0,-1
EndSplineSet
EndChar

StartChar: w
Encoding: 119 119 90
Width: 1512
GlyphClass: 2
Flags: W
AnchorPoint: "Anchor-4" 756 0 basechar 0 13
AnchorPoint: "Anchor-3" 1068 0 basechar 0 16
AnchorPoint: "Anchor-2" 1068 0 basechar 0 16
AnchorPoint: "Anchor-1" 756 956 basechar 0 14
AnchorPoint: "Anchor-0" 1362 828 basechar 0 15
LayerCount: 2
Fore
SplineSet
1329 938 m 1,0,-1
 1491 938 l 1,1,-1
 1124 0 l 1,2,-1
 1020 0 l 1,3,-1
 756 671 l 1,4,-1
 494 0 l 1,5,-1
 390 0 l 1,6,-1
 21 938 l 1,7,-1
 194 938 l 1,8,-1
 447 266 l 1,9,-1
 699 938 l 1,10,-1
 824 938 l 1,11,-1
 1077 266 l 1,12,-1
 1329 938 l 1,0,-1
EndSplineSet
EndChar

StartChar: x
Encoding: 120 120 91
Width: 945
GlyphClass: 2
Flags: W
AnchorPoint: "Anchor-4" 472 0 basechar 0 12
AnchorPoint: "Anchor-3" 790 0 basechar 0 15
AnchorPoint: "Anchor-2" 790 0 basechar 0 15
AnchorPoint: "Anchor-1" 472 956 basechar 0 13
AnchorPoint: "Anchor-0" 738 828 basechar 0 14
LayerCount: 2
Fore
SplineSet
61 938 m 1,0,-1
 247 938 l 1,1,-1
 482 592 l 1,2,-1
 726 935 l 1,3,-1
 898 935 l 1,4,-1
 562 474 l 1,5,-1
 883 0 l 1,6,-1
 697 0 l 1,7,-1
 463 345 l 1,8,-1
 218 0 l 1,9,-1
 46 0 l 1,10,-1
 383 463 l 1,11,-1
 61 938 l 1,0,-1
EndSplineSet
EndChar

StartChar: y
Encoding: 121 121 92
Width: 1027
GlyphClass: 2
Flags: W
AnchorPoint: "Anchor-4" 515 -492 basechar 0 24
AnchorPoint: "Anchor-3" 170 -492 basechar 0 27
AnchorPoint: "Anchor-2" 170 -492 basechar 0 27
AnchorPoint: "Anchor-1" 515 956 basechar 0 25
AnchorPoint: "Anchor-0" 880 828 basechar 0 26
LayerCount: 2
Fore
SplineSet
24 938 m 1,0,-1
 197 938 l 1,1,-1
 520 207 l 1,2,-1
 844 938 l 1,3,-1
 1006 938 l 1,4,-1
 592 18 l 1,5,6
 503 -187 503 -187 433 -299 c 0,7,8
 363 -412 363 -412 304 -454 c 0,9,10
 244 -496 244 -496 170 -496 c 0,11,12
 70 -496 70 -496 -1 -420 c 1,13,-1
 57 -322 l 1,14,15
 76 -338 76 -338 87.5 -345.5 c 128,-1,16
 99 -353 99 -353 118 -360 c 128,-1,17
 137 -367 137 -367 157 -367 c 0,18,19
 181 -367 181 -367 205 -354 c 128,-1,20
 229 -341 229 -341 253 -313 c 0,21,22
 277 -286 277 -286 298 -255 c 0,23,24
 319 -225 319 -225 344 -177 c 0,25,26
 368 -130 368 -130 387 -89 c 128,-1,27
 406 -48 406 -48 433 11 c 1,28,-1
 24 938 l 1,0,-1
EndSplineSet
EndChar

StartChar: z
Encoding: 122 122 93
Width: 972
GlyphClass: 2
Flags: W
AnchorPoint: "Anchor-4" 508 0 basechar 0 8
AnchorPoint: "Anchor-3" 820 0 basechar 0 11
AnchorPoint: "Anchor-2" 820 0 basechar 0 11
AnchorPoint: "Anchor-1" 508 956 basechar 0 9
AnchorPoint: "Anchor-0" 738 828 basechar 0 10
LayerCount: 2
Fore
SplineSet
111 938 m 1,0,-1
 889 938 l 1,1,-1
 340 128 l 1,2,-1
 905 128 l 1,3,-1
 905 0 l 1,4,-1
 67 0 l 1,5,-1
 616 810 l 1,6,-1
 111 810 l 1,7,-1
 111 938 l 1,0,-1
EndSplineSet
EndChar

StartChar: braceleft
Encoding: 123 123 94
Width: 667
GlyphClass: 2
Flags: W
LayerCount: 2
Fore
SplineSet
214 492 m 1,0,1
 281 470 281 470 320.5 437 c 128,-1,2
 360 404 360 404 383.5 339.5 c 128,-1,3
 407 275 407 275 407 174 c 0,4,5
 407 114 407 114 395 -12 c 128,-1,6
 383 -138 383 -138 383 -156 c 0,7,8
 383 -194 383 -194 387.5 -223.5 c 128,-1,9
 392 -253 392 -253 406.5 -293 c 128,-1,10
 421 -333 421 -333 456.5 -370.5 c 128,-1,11
 492 -408 492 -408 546 -441 c 1,12,-1
 520 -522 l 1,13,14
 222 -441 222 -441 222 -152 c 0,15,16
 222 -76 222 -76 234 31.5 c 128,-1,17
 246 139 246 139 246 174 c 0,18,19
 246 246 246 246 226 302 c 128,-1,20
 206 358 206 358 175.5 388 c 128,-1,21
 145 418 145 418 113.5 432.5 c 128,-1,22
 82 447 82 447 53 447 c 1,23,-1
 53 537 l 1,24,25
 82 537 82 537 113.5 551.5 c 128,-1,26
 145 566 145 566 175.5 596 c 128,-1,27
 206 626 206 626 226 682 c 128,-1,28
 246 738 246 738 246 810 c 0,29,30
 246 845 246 845 234 952.5 c 128,-1,31
 222 1060 222 1060 222 1136 c 0,32,33
 222 1425 222 1425 520 1506 c 1,34,-1
 546 1425 l 1,35,36
 492 1392 492 1392 456.5 1354.5 c 128,-1,37
 421 1317 421 1317 406.5 1277 c 128,-1,38
 392 1237 392 1237 387.5 1207.5 c 128,-1,39
 383 1178 383 1178 383 1140 c 0,40,41
 383 1122 383 1122 395 996 c 128,-1,42
 407 870 407 870 407 810 c 0,43,44
 407 709 407 709 383.5 644.5 c 128,-1,45
 360 580 360 580 320.5 547 c 128,-1,46
 281 514 281 514 214 492 c 1,0,1
EndSplineSet
EndChar

StartChar: bar
Encoding: 124 124 95
Width: 310
GlyphClass: 2
Flags: W
LayerCount: 2
Fore
SplineSet
210 1477 m 1,0,-1
 210 -488 l 1,1,-1
 100 -488 l 1,2,-1
 100 1477 l 1,3,-1
 210 1477 l 1,0,-1
EndSplineSet
EndChar

StartChar: braceright
Encoding: 125 125 96
Width: 667
GlyphClass: 2
Flags: W
LayerCount: 2
Fore
SplineSet
453 492 m 1,0,1
 386 514 386 514 346.5 547 c 128,-1,2
 307 580 307 580 283.5 644.5 c 128,-1,3
 260 709 260 709 260 810 c 0,4,5
 260 870 260 870 272 996 c 128,-1,6
 284 1122 284 1122 284 1140 c 0,7,8
 284 1178 284 1178 279.5 1207.5 c 128,-1,9
 275 1237 275 1237 260.5 1277 c 128,-1,10
 246 1317 246 1317 210.5 1354.5 c 128,-1,11
 175 1392 175 1392 121 1425 c 1,12,-1
 147 1506 l 1,13,14
 445 1425 445 1425 445 1136 c 0,15,16
 445 1060 445 1060 433 952.5 c 128,-1,17
 421 845 421 845 421 810 c 0,18,19
 421 738 421 738 441 682 c 128,-1,20
 461 626 461 626 491.5 596 c 128,-1,21
 522 566 522 566 553.5 551.5 c 128,-1,22
 585 537 585 537 614 537 c 1,23,-1
 614 447 l 1,24,25
 585 447 585 447 553.5 432.5 c 128,-1,26
 522 418 522 418 491.5 388 c 128,-1,27
 461 358 461 358 441 302 c 128,-1,28
 421 246 421 246 421 174 c 0,29,30
 421 139 421 139 433 31.5 c 128,-1,31
 445 -76 445 -76 445 -152 c 0,32,33
 445 -441 445 -441 147 -522 c 1,34,-1
 121 -441 l 1,35,36
 175 -408 175 -408 210.5 -370.5 c 128,-1,37
 246 -333 246 -333 260.5 -293 c 128,-1,38
 275 -253 275 -253 279.5 -223.5 c 128,-1,39
 284 -194 284 -194 284 -156 c 0,40,41
 284 -138 284 -138 272 -12 c 128,-1,42
 260 114 260 114 260 174 c 0,43,44
 260 275 260 275 283.5 339.5 c 128,-1,45
 307 404 307 404 346.5 437 c 128,-1,46
 386 470 386 470 453 492 c 1,0,1
EndSplineSet
EndChar

StartChar: asciitilde
Encoding: 126 126 97
Width: 1144
GlyphClass: 2
Flags: W
LayerCount: 2
Fore
SplineSet
167 423 m 1,0,-1
 59 489 l 1,1,2
 205 695 205 695 375 695 c 0,3,4
 437 695 437 695 512.5 669 c 128,-1,5
 588 643 588 643 660 617 c 128,-1,6
 732 591 732 591 785 591 c 0,7,8
 893 591 893 591 978 699 c 1,9,-1
 1086 633 l 1,10,11
 940 427 940 427 770 427 c 0,12,13
 708 427 708 427 632.5 453 c 128,-1,14
 557 479 557 479 485 505 c 128,-1,15
 413 531 413 531 360 531 c 0,16,17
 252 531 252 531 167 423 c 1,0,-1
EndSplineSet
EndChar

StartChar: exclamdown
Encoding: 161 161 99
Width: 442
GlyphClass: 2
Flags: W
LayerCount: 2
Fore
SplineSet
339 946 m 256,0,1
 339 896 339 896 304.5 860.5 c 128,-1,2
 270 825 270 825 221 825 c 256,3,4
 172 825 172 825 137.5 860.5 c 128,-1,5
 103 896 103 896 103 946 c 256,6,7
 103 996 103 996 137.5 1031.5 c 128,-1,8
 172 1067 172 1067 221 1067 c 256,9,10
 270 1067 270 1067 304.5 1031.5 c 128,-1,11
 339 996 339 996 339 946 c 256,0,1
341 -343 m 1,12,-1
 101 -343 l 1,13,-1
 165 589 l 1,14,-1
 257 589 l 1,15,-1
 341 -343 l 1,12,-1
EndSplineSet
EndChar

StartChar: sterling
Encoding: 163 163 100
Width: 1052
GlyphClass: 2
Flags: W
LayerCount: 2
Fore
SplineSet
200 869 m 0,0,1
 200 1002 200 1002 297.5 1090 c 128,-1,2
 395 1178 395 1178 552 1178 c 0,3,4
 651 1178 651 1178 731 1155.5 c 128,-1,5
 811 1133 811 1133 857 1101 c 1,6,-1
 821 973 l 1,7,8
 709 1049 709 1049 564 1049 c 0,9,10
 480 1049 480 1049 421 1001 c 128,-1,11
 362 953 362 953 361 874 c 1,12,-1
 361 867 l 2,13,14
 361 819 361 819 375 775 c 0,15,16
 389 728 389 728 416 672 c 1,17,-1
 785 672 l 1,18,-1
 785 563 l 1,19,-1
 467 563 l 1,20,21
 489 505 489 505 489 456 c 0,22,23
 489 358 489 358 452.5 294 c 128,-1,24
 416 230 416 230 336 153 c 1,25,26
 458 200 458 200 594 200 c 0,27,28
 691 200 691 200 795.5 167 c 128,-1,29
 900 134 900 134 976 93 c 1,30,-1
 896 -18 l 1,31,32
 720 71 720 71 570 71 c 0,33,34
 493 71 493 71 416 55 c 128,-1,35
 339 39 339 39 302.5 26 c 128,-1,36
 266 13 266 13 189 -18 c 1,37,-1
 129 111 l 1,38,39
 208 170 208 170 268 250.5 c 128,-1,40
 328 331 328 331 328 423 c 0,41,42
 328 489 328 489 299 563 c 1,43,-1
 156 563 l 1,44,-1
 156 672 l 1,45,-1
 250 672 l 1,46,47
 200 781 200 781 200 869 c 0,0,1
EndSplineSet
EndChar

StartChar: currency
Encoding: 164 164 101
Width: 1130
GlyphClass: 2
Flags: W
LayerCount: 2
Fore
SplineSet
454 504 m 256,1,2
 454 458 454 458 486.5 425.5 c 128,-1,3
 519 393 519 393 565 393 c 256,4,5
 611 393 611 393 643.5 425.5 c 128,-1,6
 676 458 676 458 676 504 c 256,7,8
 676 550 676 550 643.5 582.5 c 128,-1,9
 611 615 611 615 565 615 c 256,10,11
 519 615 519 615 486.5 582.5 c 128,-1,0
 454 550 454 550 454 504 c 256,1,2
375 390 m 1,12,13
 343 442 343 442 343 504 c 0,14,15
 343 565 343 565 374 617 c 1,16,-1
 170 821 l 1,17,-1
 248 899 l 1,18,-1
 452 695 l 1,19,20
 504 726 504 726 565 726 c 0,21,22
 627 726 627 726 679 694 c 1,23,-1
 883 899 l 1,24,-1
 960 821 l 1,25,-1
 756 617 l 1,26,27
 787 565 787 565 787 504 c 256,28,29
 787 443 787 443 756 391 c 1,30,-1
 960 187 l 1,31,-1
 882 109 l 1,32,-1
 678 313 l 1,33,34
 626 282 626 282 565 282 c 256,35,36
 504 282 504 282 452 313 c 1,37,-1
 248 109 l 1,38,-1
 170 186 l 1,39,-1
 375 390 l 1,12,13
EndSplineSet
EndChar

StartChar: brokenbar
Encoding: 166 166 102
Width: 310
GlyphClass: 2
Flags: W
LayerCount: 2
Fore
SplineSet
210 298 m 1,0,-1
 210 -488 l 1,1,-1
 100 -488 l 1,2,-1
 100 298 l 1,3,-1
 210 298 l 1,0,-1
210 1477 m 1,4,-1
 210 691 l 1,5,-1
 100 691 l 1,6,-1
 100 1477 l 1,7,-1
 210 1477 l 1,4,-1
EndSplineSet
EndChar

StartChar: guillemotleft
Encoding: 171 171 104
Width: 978
GlyphClass: 2
Flags: W
LayerCount: 2
Fore
SplineSet
646 525 m 1,0,-1
 873 268 l 1,1,-1
 840 168 l 1,2,-1
 488 525 l 1,3,-1
 840 882 l 1,4,-1
 873 782 l 1,5,-1
 646 525 l 1,0,-1
187 525 m 1,6,-1
 467 268 l 1,7,-1
 434 168 l 1,8,-1
 18 525 l 1,9,-1
 434 882 l 1,10,-1
 467 782 l 1,11,-1
 187 525 l 1,6,-1
EndSplineSet
EndChar

StartChar: paragraph
Encoding: 182 182 105
Width: 960
GlyphClass: 2
Flags: W
LayerCount: 2
Fore
SplineSet
662 940 m 1,0,-1
 662 0 l 1,1,-1
 552 0 l 1,2,-1
 552 940 l 1,3,-1
 442 940 l 1,4,-1
 442 0 l 1,5,-1
 332 0 l 1,6,-1
 332 468 l 1,7,8
 266 468 266 468 204.5 509 c 128,-1,9
 143 550 143 550 105 619.5 c 128,-1,10
 67 689 67 689 67 764 c 0,11,12
 67 878 67 878 147.5 963.5 c 128,-1,13
 228 1049 228 1049 332 1049 c 2,14,-1
 774 1049 l 1,15,-1
 774 940 l 1,16,-1
 662 940 l 1,0,-1
EndSplineSet
EndChar

StartChar: guillemotright
Encoding: 187 187 106
Width: 978
GlyphClass: 2
Flags: W
LayerCount: 2
Fore
SplineSet
332 525 m 1,0,-1
 105 782 l 1,1,-1
 138 882 l 1,2,-1
 490 525 l 1,3,-1
 138 168 l 1,4,-1
 105 268 l 1,5,-1
 332 525 l 1,0,-1
791 525 m 1,6,-1
 511 782 l 1,7,-1
 544 882 l 1,8,-1
 960 525 l 1,9,-1
 544 168 l 1,10,-1
 511 268 l 1,11,-1
 791 525 l 1,6,-1
EndSplineSet
EndChar

StartChar: questiondown
Encoding: 191 191 107
Width: 863
GlyphClass: 2
Flags: W
LayerCount: 2
Fore
SplineSet
763 -408 m 1,0,1
 733 -427 733 -427 716.5 -435.5 c 128,-1,2
 700 -444 700 -444 660 -460.5 c 128,-1,3
 620 -477 620 -477 568 -484.5 c 128,-1,4
 516 -492 516 -492 451 -492 c 0,5,6
 364 -492 364 -492 286 -458 c 128,-1,7
 208 -424 208 -424 157.5 -358 c 128,-1,8
 107 -292 107 -292 107 -208 c 0,9,10
 107 -141 107 -141 136.5 -68.5 c 128,-1,11
 166 4 166 4 208.5 65.5 c 128,-1,12
 251 127 251 127 293.5 184.5 c 128,-1,13
 336 242 336 242 365.5 299 c 128,-1,14
 395 356 395 356 395 400 c 0,15,16
 395 446 395 446 389.5 479 c 128,-1,17
 384 512 384 512 369 564 c 1,18,-1
 503 584 l 1,19,20
 511 569 511 569 520.5 547.5 c 128,-1,21
 530 526 530 526 538 505 c 128,-1,22
 546 484 546 484 551 455 c 128,-1,23
 556 426 556 426 556 396 c 0,24,25
 556 337 556 337 526.5 272 c 128,-1,26
 497 207 497 207 454.5 149.5 c 128,-1,27
 412 92 412 92 369.5 35 c 128,-1,28
 327 -22 327 -22 297.5 -86 c 128,-1,29
 268 -150 268 -150 268 -208 c 0,30,31
 268 -270 268 -270 327 -316.5 c 128,-1,32
 386 -363 386 -363 497 -363 c 256,33,34
 608 -363 608 -363 713 -300 c 1,35,-1
 763 -408 l 1,0,1
569 869 m 256,36,37
 569 819 569 819 534.5 783.5 c 128,-1,38
 500 748 500 748 451 748 c 256,39,40
 402 748 402 748 367.5 783.5 c 128,-1,41
 333 819 333 819 333 869 c 256,42,43
 333 919 333 919 367.5 954.5 c 128,-1,44
 402 990 402 990 451 990 c 256,45,46
 500 990 500 990 534.5 954.5 c 128,-1,47
 569 919 569 919 569 869 c 256,36,37
EndSplineSet
EndChar

StartChar: AE
Encoding: 198 198 114
Width: 1818
GlyphClass: 2
Flags: W
LayerCount: 2
Fore
SplineSet
1102 644 m 1,0,-1
 1102 139 l 1,1,-1
 1716 140 l 1,2,-1
 1716 0 l 1,3,-1
 921 0 l 1,4,-1
 921 404 l 1,5,-1
 489 404 l 1,6,-1
 255 0 l 1,7,-1
 67 0 l 1,8,-1
 871 1391 l 1,9,-1
 1716 1391 l 1,10,-1
 1716 1252 l 1,11,-1
 1102 1252 l 1,12,-1
 1102 784 l 1,13,-1
 1520 784 l 1,14,-1
 1520 644 l 1,15,-1
 1102 644 l 1,0,-1
921 544 m 1,16,-1
 921 1152 l 1,17,-1
 569 543 l 1,18,-1
 921 544 l 1,16,-1
EndSplineSet
EndChar

StartChar: Ccedilla
Encoding: 199 199 115
Width: 1255
GlyphClass: 2
Flags: W
LayerCount: 2
Fore
SplineSet
579 -10 m 1,0,1
 453 9 453 9 350 72 c 0,2,3
 203 162 203 162 126 324 c 0,4,5
 49 485 49 485 49 696 c 256,6,7
 49 907 49 907 126 1068 c 256,8,9
 203 1229 203 1229 350 1319 c 256,10,11
 497 1409 497 1409 693 1409 c 0,12,13
 789 1409 789 1409 855 1401.5 c 128,-1,14
 921 1394 921 1394 976 1374 c 0,15,16
 1031 1353 1031 1353 1069 1330.5 c 128,-1,17
 1107 1308 1107 1308 1166 1265 c 1,18,-1
 1078 1146 l 1,19,20
 992 1211 992 1211 909 1241 c 0,21,22
 831 1269 831 1269 740 1269 c 2,23,-1
 728 1269 l 2,24,25
 616 1269 616 1269 522.5 1221 c 128,-1,26
 429 1173 429 1173 369 1093 c 0,27,28
 308 1012 308 1012 275 909 c 0,29,30
 241 806 241 806 241 695 c 256,31,32
 241 584 241 584 275 482 c 1,33,34
 308 379 308 379 369 299 c 1,35,36
 429 218 429 218 523 170 c 0,37,38
 616 122 616 122 728 122 c 2,39,-1
 740 122 l 2,40,41
 831 122 831 122 909 150 c 0,42,43
 992 180 992 180 1078 245 c 1,44,-1
 1166 126 l 1,45,46
 1107 83 1107 83 1069 60.5 c 128,-1,47
 1031 38 1031 38 976 17.5 c 128,-1,48
 921 -3 921 -3 855 -10.5 c 128,-1,49
 789 -18 789 -18 693 -18 c 2,50,-1
 679 -18 l 1,51,52
 663 -62 663 -62 663 -106 c 1,53,54
 713 -119 713 -119 749 -170 c 128,-1,55
 785 -221 785 -221 785 -288 c 0,56,57
 785 -370 785 -370 742.5 -414.5 c 128,-1,58
 700 -459 700 -459 614 -494 c 1,59,-1
 535 -419 l 1,60,61
 597 -393 597 -393 630.5 -364 c 128,-1,62
 664 -335 664 -335 664 -288 c 0,63,64
 664 -235 664 -235 630.5 -203.5 c 128,-1,65
 597 -172 597 -172 539 -172 c 1,66,67
 539 -79 539 -79 579 -10 c 1,0,1
EndSplineSet
EndChar

StartChar: Eth
Encoding: 208 208 124
Width: 1375
GlyphClass: 2
Flags: W
AnchorPoint: "Anchor-4" 620 0 basechar 0 42
AnchorPoint: "Anchor-3" 620 0 basechar 0 42
AnchorPoint: "Anchor-2" 620 0 basechar 0 42
AnchorPoint: "Anchor-1" 620 1409 basechar 0 40
AnchorPoint: "Anchor-0" 1135 1053 basechar 0 41
LayerCount: 2
Fore
SplineSet
584 -18 m 0,0,1
 367 -18 367 -18 180 13 c 1,2,-1
 180 656 l 1,3,-1
 61 656 l 1,4,-1
 61 795 l 1,5,-1
 180 795 l 1,6,-1
 180 1372 l 1,7,8
 391 1409 391 1409 544 1409 c 0,9,10
 663 1409 663 1409 777 1379 c 128,-1,11
 891 1349 891 1349 991 1288.5 c 128,-1,12
 1091 1228 1091 1228 1166.5 1143.5 c 128,-1,13
 1242 1059 1242 1059 1286 942 c 128,-1,14
 1330 825 1330 825 1330 691 c 0,15,16
 1330 524 1330 524 1267.5 387 c 128,-1,17
 1205 250 1205 250 1100.5 163 c 128,-1,18
 996 76 996 76 863 29 c 128,-1,19
 730 -18 730 -18 584 -18 c 0,0,1
360 655 m 1,20,-1
 360 140 l 1,21,22
 452 122 452 122 557 122 c 0,23,24
 665 122 665 122 768 159 c 128,-1,25
 871 196 871 196 955 264.5 c 128,-1,26
 1039 333 1039 333 1090.5 443.5 c 128,-1,27
 1142 554 1142 554 1142 688 c 0,28,29
 1142 799 1142 799 1105.5 895 c 128,-1,30
 1069 991 1069 991 1009 1058.5 c 128,-1,31
 949 1126 949 1126 871.5 1175 c 128,-1,32
 794 1224 794 1224 710.5 1247 c 128,-1,33
 627 1270 627 1270 546 1270 c 0,34,35
 439 1270 439 1270 361 1252 c 1,36,-1
 361 795 l 1,37,-1
 504 795 l 1,38,-1
 504 655 l 1,39,-1
 360 655 l 1,20,-1
EndSplineSet
EndChar

StartChar: multiply
Encoding: 215 215 131
Width: 1130
GlyphClass: 2
Flags: W
LayerCount: 2
Fore
SplineSet
566 581 m 1,0,-1
 883 899 l 1,1,-1
 960 821 l 1,2,-1
 643 504 l 1,3,-1
 960 187 l 1,4,-1
 882 109 l 1,5,-1
 565 426 l 1,6,-1
 248 109 l 1,7,-1
 170 186 l 1,8,-1
 488 503 l 1,9,-1
 170 821 l 1,10,-1
 248 899 l 1,11,-1
 566 581 l 1,0,-1
EndSplineSet
EndChar

StartChar: Oslash
Encoding: 216 216 132
Width: 1444
GlyphClass: 2
Flags: W
LayerCount: 2
Fore
SplineSet
727 1271 m 0,0,1
 573 1271 573 1271 460.5 1196 c 128,-1,2
 348 1121 348 1121 292.5 994 c 128,-1,3
 237 867 237 867 237 703 c 0,4,5
 237 501 237 501 317 356 c 1,6,-1
 1003 1186 l 1,7,8
 887 1271 887 1271 727 1271 c 0,0,1
202 0 m 1,9,-1
 102 96 l 1,10,-1
 198 212 l 1,11,12
 45 404 45 404 45 703 c 0,13,14
 45 855 45 855 90.5 984 c 128,-1,15
 136 1113 136 1113 220.5 1207.5 c 128,-1,16
 305 1302 305 1302 435 1355.5 c 128,-1,17
 565 1409 565 1409 727 1409 c 0,18,19
 945 1409 945 1409 1103 1308 c 1,20,-1
 1172 1391 l 1,21,-1
 1272 1295 l 1,22,-1
 1210 1221 l 1,23,24
 1303 1125 1303 1125 1351 991 c 128,-1,25
 1399 857 1399 857 1399 703 c 0,26,27
 1399 587 1399 587 1371 479.5 c 128,-1,28
 1343 372 1343 372 1286 281.5 c 128,-1,29
 1229 191 1229 191 1149.5 124 c 128,-1,30
 1070 57 1070 57 961.5 19.5 c 128,-1,31
 853 -18 853 -18 727 -18 c 0,32,33
 469 -18 469 -18 297 115 c 1,34,-1
 202 0 l 1,9,-1
1100 1087 m 1,35,-1
 403 244 l 1,36,37
 530 123 530 123 727 123 c 0,38,39
 840 123 840 123 932.5 170 c 128,-1,40
 1025 217 1025 217 1085 297 c 128,-1,41
 1145 377 1145 377 1177.5 481.5 c 128,-1,42
 1210 586 1210 586 1210 703 c 0,43,44
 1210 933 1210 933 1100 1087 c 1,35,-1
EndSplineSet
EndChar

StartChar: Thorn
Encoding: 222 222 138
Width: 1083
GlyphClass: 2
Flags: W
LayerCount: 2
Fore
SplineSet
843 696 m 0,0,1
 843 844 843 844 746 910 c 128,-1,2
 649 976 649 976 427 976 c 2,3,-1
 361 976 l 1,4,-1
 361 416 l 1,5,-1
 427 416 l 2,6,7
 649 416 649 416 746 481.5 c 128,-1,8
 843 547 843 547 843 696 c 0,0,1
361 276 m 1,9,-1
 361 0 l 1,10,-1
 180 0 l 1,11,-1
 180 1391 l 1,12,-1
 361 1391 l 1,13,-1
 361 1116 l 1,14,-1
 531 1116 l 2,15,16
 679 1116 679 1116 794 1061.5 c 128,-1,17
 909 1007 909 1007 972 911.5 c 128,-1,18
 1035 816 1035 816 1035 696 c 0,19,20
 1035 575 1035 575 972 479.5 c 128,-1,21
 909 384 909 384 794 330 c 128,-1,22
 679 276 679 276 531 276 c 2,23,-1
 361 276 l 1,9,-1
EndSplineSet
EndChar

StartChar: germandbls
Encoding: 223 223 139
Width: 1162
GlyphClass: 2
Flags: W
LayerCount: 2
Fore
SplineSet
505 1336 m 0,0,1
 416 1336 416 1336 370.5 1269 c 128,-1,2
 325 1202 325 1202 325 1082 c 2,3,-1
 325 0 l 1,4,-1
 164 0 l 1,5,-1
 164 1044 l 2,6,7
 164 1464 164 1464 503 1464 c 0,8,9
 616 1464 616 1464 694 1438.5 c 128,-1,10
 772 1413 772 1413 815.5 1362.5 c 128,-1,11
 859 1312 859 1312 878 1245 c 128,-1,12
 897 1178 897 1178 897 1086 c 0,13,14
 897 1035 897 1035 881.5 993.5 c 128,-1,15
 866 952 866 952 840.5 924.5 c 128,-1,16
 815 897 815 897 785 873.5 c 128,-1,17
 755 850 755 850 724.5 831 c 128,-1,18
 694 812 694 812 669 792.5 c 128,-1,19
 644 773 644 773 628 747.5 c 128,-1,20
 612 722 612 722 612 692 c 0,21,22
 612 643 612 643 645.5 612 c 128,-1,23
 679 581 679 581 774 549 c 2,24,-1
 852 522 l 2,25,26
 959 485 959 485 1010.5 424.5 c 128,-1,27
 1062 364 1062 364 1062 264 c 0,28,29
 1062 134 1062 134 974 58 c 128,-1,30
 886 -18 886 -18 734 -18 c 0,31,32
 653 -18 653 -18 578.5 -1.5 c 128,-1,33
 504 15 504 15 412 68 c 1,34,-1
 470 192 l 1,35,36
 547 146 547 146 601 128.5 c 128,-1,37
 655 111 655 111 728 111 c 0,38,39
 901 111 901 111 901 260 c 0,40,41
 901 350 901 350 736 404 c 1,42,-1
 658 431 l 2,43,44
 553 468 553 468 502.5 539.5 c 128,-1,45
 452 611 452 611 452 695 c 0,46,47
 452 744 452 744 467.5 783.5 c 128,-1,48
 483 823 483 823 508 848.5 c 128,-1,49
 533 874 533 874 563.5 895.5 c 128,-1,50
 594 917 594 917 624 936.5 c 128,-1,51
 654 956 654 956 679.5 977.5 c 128,-1,52
 705 999 705 999 720.5 1029.5 c 128,-1,53
 736 1060 736 1060 736 1098 c 0,54,55
 736 1336 736 1336 505 1336 c 0,0,1
EndSplineSet
EndChar

StartChar: ae
Encoding: 230 230 146
Width: 1444
GlyphClass: 2
Flags: W
AnchorPoint: "Anchor-4" 718 0 basechar 0 78
AnchorPoint: "Anchor-3" 1080 0 basechar 0 79
AnchorPoint: "Anchor-2" 1320 93 basechar 0 82
AnchorPoint: "Anchor-1" 718 956 basechar 0 81
AnchorPoint: "Anchor-0" 1230 820 basechar 0 80
LayerCount: 2
Fore
SplineSet
117 866 m 1,0,1
 209 912 209 912 289 934 c 128,-1,2
 369 956 369 956 484 956 c 0,3,4
 559 956 559 956 623 920 c 128,-1,5
 687 884 687 884 727 822 c 1,6,7
 787 889 787 889 867 922.5 c 128,-1,8
 947 956 947 956 1032 956 c 0,9,10
 1104 956 1104 956 1163 938 c 128,-1,11
 1222 920 1222 920 1261.5 891 c 128,-1,12
 1301 862 1301 862 1331.5 821.5 c 128,-1,13
 1362 781 1362 781 1378.5 742 c 128,-1,14
 1395 703 1395 703 1406 658.5 c 128,-1,15
 1417 614 1417 614 1420 582.5 c 128,-1,16
 1423 551 1423 551 1424 520 c 1,17,-1
 1400 460 l 1,18,-1
 774 460 l 1,19,20
 776 291 776 291 863.5 201 c 128,-1,21
 951 111 951 111 1094 111 c 0,22,23
 1137 111 1137 111 1156.5 112.5 c 128,-1,24
 1176 114 1176 114 1226 127.5 c 128,-1,25
 1276 141 1276 141 1346 170 c 1,26,-1
 1390 55 l 1,27,28
 1334 17 1334 17 1252.5 -0.5 c 128,-1,29
 1171 -18 1171 -18 1098 -18 c 0,30,31
 828 -18 828 -18 699 162 c 1,32,33
 643 81 643 81 547.5 31.5 c 128,-1,34
 452 -18 452 -18 319 -18 c 0,35,36
 210 -18 210 -18 139 36.5 c 128,-1,37
 68 91 68 91 68 200 c 0,38,39
 68 234 68 234 78 264.5 c 128,-1,40
 88 295 88 295 110 322.5 c 128,-1,41
 132 350 132 350 155 372.5 c 128,-1,42
 178 395 178 395 216.5 418.5 c 128,-1,43
 255 442 255 442 285.5 459 c 128,-1,44
 316 476 316 476 365.5 497.5 c 128,-1,45
 415 519 415 519 446 531.5 c 128,-1,46
 477 544 477 544 531 565.5 c 128,-1,47
 585 587 585 587 612 598 c 1,48,-1
 613 655 l 1,49,50
 605 828 605 828 430 828 c 0,51,52
 357 828 357 828 295 811 c 128,-1,53
 233 794 233 794 150 752 c 1,54,-1
 117 866 l 1,0,1
612 481 m 1,55,56
 557 458 557 458 502.5 437 c 128,-1,57
 448 416 448 416 397 390 c 128,-1,58
 346 364 346 364 307.5 338 c 128,-1,59
 269 312 269 312 245.5 279 c 128,-1,60
 222 246 222 246 222 210 c 0,61,62
 222 171 222 171 247.5 147 c 128,-1,63
 273 123 273 123 301 117 c 128,-1,64
 329 111 329 111 361 111 c 0,65,66
 424 111 424 111 476 135 c 128,-1,67
 528 159 528 159 555.5 193 c 128,-1,68
 583 227 583 227 597.5 259 c 128,-1,69
 612 291 612 291 612 312 c 2,70,-1
 612 481 l 1,55,56
781 580 m 1,71,-1
 1266 580 l 1,72,73
 1257 689 1257 689 1200.5 758.5 c 128,-1,74
 1144 828 1144 828 1052 828 c 0,75,76
 935 828 935 828 867.5 769 c 128,-1,77
 800 710 800 710 781 580 c 1,71,-1
EndSplineSet
EndChar

StartChar: ccedilla
Encoding: 231 231 147
Width: 888
GlyphClass: 2
Flags: W
AnchorPoint: "Anchor-6" 516 -492 basemark 0 48
AnchorPoint: "Anchor-1" 486 956 basechar 0 26
AnchorPoint: "Anchor-0" 773 828 basechar 0 27
LayerCount: 2
Fore
SplineSet
433 -13 m 1,0,1
 279 7 279 7 182 115 c 0,2,3
 61 248 61 248 61 469 c 256,4,5
 61 690 61 690 181.5 823 c 128,-1,6
 302 956 302 956 508 956 c 0,7,8
 633 956 633 956 695 935 c 128,-1,9
 757 914 757 914 836 856 c 1,10,-1
 774 748 l 1,11,12
 715 791 715 791 661 810 c 0,13,14
 610 827 610 827 549 827 c 2,15,-1
 543 827 l 2,16,17
 397 827 397 827 309.5 722 c 128,-1,18
 222 617 222 617 222 469 c 256,19,20
 222 321 222 321 309.5 216 c 128,-1,21
 397 111 397 111 543 111 c 2,22,-1
 549 111 l 2,23,24
 610 111 610 111 661 129 c 0,25,26
 715 147 715 147 774 190 c 1,27,-1
 836 82 l 1,28,29
 757 24 757 24 695 3 c 0,30,31
 640 -16 640 -16 535 -18 c 1,32,33
 519 -62 519 -62 519 -106 c 1,34,35
 569 -119 569 -119 605 -170 c 128,-1,36
 641 -221 641 -221 641 -288 c 0,37,38
 641 -370 641 -370 598.5 -414.5 c 128,-1,39
 556 -459 556 -459 470 -494 c 1,40,-1
 391 -419 l 1,41,42
 453 -393 453 -393 486.5 -364 c 128,-1,43
 520 -335 520 -335 520 -288 c 0,44,45
 520 -235 520 -235 486.5 -203.5 c 128,-1,46
 453 -172 453 -172 395 -172 c 1,47,48
 395 -82 395 -82 433 -13 c 1,0,1
EndSplineSet
EndChar

StartChar: eth
Encoding: 240 240 156
Width: 1012
GlyphClass: 2
Flags: W
LayerCount: 2
Fore
SplineSet
222 469 m 0,0,1
 222 372 222 372 246.5 299.5 c 128,-1,2
 271 227 271 227 312.5 187.5 c 128,-1,3
 354 148 354 148 402.5 129.5 c 128,-1,4
 451 111 451 111 506 111 c 0,5,6
 550 111 550 111 589 123 c 128,-1,7
 628 135 628 135 665.5 165 c 128,-1,8
 703 195 703 195 729 241 c 128,-1,9
 755 287 755 287 771.5 360.5 c 128,-1,10
 788 434 788 434 788 528 c 0,11,12
 788 642 788 642 764 752 c 1,13,14
 663 828 663 828 534 828 c 0,15,16
 409 828 409 828 315.5 732 c 128,-1,17
 222 636 222 636 222 469 c 0,0,1
707 931 m 1,18,19
 662 1037 662 1037 597 1128 c 1,20,-1
 408 1015 l 1,21,-1
 352 1108 l 1,22,-1
 527 1213 l 1,23,24
 427 1319 427 1319 336 1350 c 1,25,-1
 416 1475 l 1,26,27
 554 1420 554 1420 666 1297 c 1,28,-1
 823 1391 l 1,29,-1
 879 1298 l 1,30,-1
 735 1211 l 1,31,32
 840 1063 840 1063 895.5 879 c 128,-1,33
 951 695 951 695 951 540 c 0,34,35
 951 416 951 416 925.5 318 c 128,-1,36
 900 220 900 220 857.5 158 c 128,-1,37
 815 96 815 96 756.5 55.5 c 128,-1,38
 698 15 698 15 636.5 -1.5 c 128,-1,39
 575 -18 575 -18 506 -18 c 0,40,41
 438 -18 438 -18 376 -3 c 128,-1,42
 314 12 314 12 255.5 47.5 c 128,-1,43
 197 83 197 83 154.5 137.5 c 128,-1,44
 112 192 112 192 86.5 277 c 128,-1,45
 61 362 61 362 61 469 c 0,46,47
 61 678 61 678 197.5 817 c 128,-1,48
 334 956 334 956 540 956 c 0,49,50
 637 956 637 956 707 931 c 1,18,19
EndSplineSet
EndChar

StartChar: divide
Encoding: 247 247 163
Width: 1130
GlyphClass: 2
Flags: W
LayerCount: 2
Fore
SplineSet
1069 449 m 1,0,-1
 61 449 l 1,1,-1
 61 558 l 1,2,-1
 1069 558 l 1,3,-1
 1069 449 l 1,0,-1
447 829 m 256,4,5
 447 879 447 879 481.5 914.5 c 128,-1,6
 516 950 516 950 565 950 c 256,7,8
 614 950 614 950 648.5 914.5 c 128,-1,9
 683 879 683 879 683 829 c 256,10,11
 683 779 683 779 648.5 743.5 c 128,-1,12
 614 708 614 708 565 708 c 256,13,14
 516 708 516 708 481.5 743.5 c 128,-1,15
 447 779 447 779 447 829 c 256,4,5
447 178 m 256,16,17
 447 228 447 228 481.5 263.5 c 128,-1,18
 516 299 516 299 565 299 c 256,19,20
 614 299 614 299 648.5 263.5 c 128,-1,21
 683 228 683 228 683 178 c 256,22,23
 683 128 683 128 648.5 92.5 c 128,-1,24
 614 57 614 57 565 57 c 256,25,26
 516 57 516 57 481.5 92.5 c 128,-1,27
 447 128 447 128 447 178 c 256,16,17
EndSplineSet
EndChar

StartChar: oslash
Encoding: 248 248 164
Width: 1012
GlyphClass: 2
Flags: W
LayerCount: 2
Fore
SplineSet
61 469 m 0,0,1
 61 576 61 576 86.5 661 c 128,-1,2
 112 746 112 746 154.5 800.5 c 128,-1,3
 197 855 197 855 255.5 890.5 c 128,-1,4
 314 926 314 926 376 941 c 128,-1,5
 438 956 438 956 506 956 c 0,6,7
 680 956 680 956 794 864 c 1,8,-1
 860 938 l 1,9,-1
 927 870 l 1,10,-1
 860 796 l 1,11,12
 951 673 951 673 951 469 c 0,13,14
 951 362 951 362 925.5 277 c 128,-1,15
 900 192 900 192 857.5 137.5 c 128,-1,16
 815 83 815 83 756.5 47.5 c 128,-1,17
 698 12 698 12 636 -3 c 128,-1,18
 574 -18 574 -18 506 -18 c 0,19,20
 332 -18 332 -18 218 74 c 1,21,-1
 152 0 l 1,22,-1
 85 68 l 1,23,-1
 152 142 l 1,24,25
 61 265 61 265 61 469 c 0,0,1
751 672 m 1,26,-1
 316 184 l 1,27,28
 390 111 390 111 506 111 c 0,29,30
 561 111 561 111 609 129.5 c 128,-1,31
 657 148 657 148 698.5 187.5 c 128,-1,32
 740 227 740 227 764 299.5 c 128,-1,33
 788 372 788 372 788 469 c 0,34,35
 788 590 788 590 751 672 c 1,26,-1
696 753 m 1,36,37
 622 827 622 827 506 827 c 0,38,39
 451 827 451 827 402.5 808.5 c 128,-1,40
 354 790 354 790 312.5 750.5 c 128,-1,41
 271 711 271 711 246.5 638.5 c 128,-1,42
 222 566 222 566 222 469 c 0,43,44
 222 348 222 348 260 265 c 1,45,-1
 696 753 l 1,36,37
EndSplineSet
EndChar

StartChar: thorn
Encoding: 254 254 170
Width: 1063
GlyphClass: 2
Flags: W
AnchorPoint: "Anchor-4" 244 -492 basechar 0 30
AnchorPoint: "Anchor-3" 244 -492 basechar 0 30
AnchorPoint: "Anchor-2" 244 -492 basechar 0 30
AnchorPoint: "Anchor-1" 244 1475 basechar 0 32
AnchorPoint: "Anchor-0" 841 828 basechar 0 31
LayerCount: 2
Fore
SplineSet
329 154 m 1,0,1
 409 110 409 110 520 110 c 0,2,3
 575 110 575 110 631.5 138.5 c 128,-1,4
 688 167 688 167 735 216.5 c 128,-1,5
 782 266 782 266 811.5 341 c 128,-1,6
 841 416 841 416 841 502 c 0,7,8
 841 641 841 641 766.5 734 c 128,-1,9
 692 827 692 827 583 827 c 0,10,11
 509 827 509 827 442 776.5 c 128,-1,12
 375 726 375 726 329 648 c 1,13,-1
 329 154 l 1,0,1
598 956 m 0,14,15
 714 956 714 956 808 892 c 128,-1,16
 902 828 902 828 952 725.5 c 128,-1,17
 1002 623 1002 623 1002 506 c 0,18,19
 1002 273 1002 273 866.5 127.5 c 128,-1,20
 731 -18 731 -18 530 -18 c 0,21,22
 446 -18 446 -18 329 14 c 1,23,-1
 329 -492 l 1,24,-1
 164 -492 l 1,25,-1
 164 1475 l 1,26,-1
 329 1475 l 1,27,-1
 329 828 l 1,28,29
 442 956 442 956 598 956 c 0,14,15
EndSplineSet
EndChar

StartChar: dcroat
Encoding: 273 273 180
Width: 1124
GlyphClass: 2
Flags: W
AnchorPoint: "Anchor-4" 482 0 basechar 0 39
AnchorPoint: "Anchor-3" 482 0 basechar 0 39
AnchorPoint: "Anchor-2" 816 0 basechar 0 41
AnchorPoint: "Anchor-1" 816 1475 basechar 0 38
AnchorPoint: "Anchor-0" 816 828 basechar 0 40
LayerCount: 2
Fore
SplineSet
734 784 m 1,0,1
 651 828 651 828 543 828 c 0,2,3
 488 828 488 828 431.5 799.5 c 128,-1,4
 375 771 375 771 328 721.5 c 128,-1,5
 281 672 281 672 251.5 597 c 128,-1,6
 222 522 222 522 222 436 c 0,7,8
 222 297 222 297 296.5 204 c 128,-1,9
 371 111 371 111 480 111 c 0,10,11
 554 111 554 111 621 161.5 c 128,-1,12
 688 212 688 212 734 290 c 1,13,-1
 734 784 l 1,0,1
465 -18 m 0,14,15
 349 -18 349 -18 255 46 c 128,-1,16
 161 110 161 110 111 212.5 c 128,-1,17
 61 315 61 315 61 432 c 0,18,19
 61 665 61 665 196.5 810.5 c 128,-1,20
 332 956 332 956 533 956 c 0,21,22
 617 956 617 956 734 924 c 1,23,-1
 734 1143 l 1,24,-1
 505 1143 l 1,25,-1
 505 1252 l 1,26,-1
 734 1252 l 1,27,-1
 734 1475 l 1,28,-1
 899 1475 l 1,29,-1
 899 1251 l 1,30,-1
 1063 1251 l 1,31,-1
 1063 1142 l 1,32,-1
 899 1142 l 1,33,-1
 899 0 l 1,34,-1
 734 0 l 1,35,-1
 734 110 l 1,36,37
 621 -18 621 -18 465 -18 c 0,14,15
EndSplineSet
EndChar

StartChar: dotlessi
Encoding: 305 305 192
Width: 547
GlyphClass: 2
Flags: W
AnchorPoint: "Anchor-4" 302 0 basechar 0 8
AnchorPoint: "Anchor-3" 302 0 basechar 0 8
AnchorPoint: "Anchor-2" 302 0 basechar 0 8
AnchorPoint: "Anchor-1" 302 956 basechar 0 6
AnchorPoint: "Anchor-0" 302 828 basechar 0 7
LayerCount: 2
Fore
SplineSet
383 938 m 1,0,-1
 383 0 l 1,1,-1
 222 0 l 1,2,-1
 222 810 l 1,3,-1
 56 810 l 1,4,-1
 56 938 l 1,5,-1
 383 938 l 1,0,-1
EndSplineSet
EndChar

StartChar: Eng
Encoding: 330 330 193
Width: 1490
GlyphClass: 2
Flags: W
AnchorPoint: "Anchor-4" 755 -492 basechar 0 48
AnchorPoint: "Anchor-3" 755 -492 basechar 0 48
AnchorPoint: "Anchor-2" 755 -492 basechar 0 48
AnchorPoint: "Anchor-1" 755 1409 basechar 0 46
AnchorPoint: "Anchor-0" 1170 1053 basechar 0 47
LayerCount: 2
Fore
SplineSet
1127 684 m 2,0,1
 1127 985 1127 985 1028 1128 c 128,-1,2
 929 1271 929 1271 753 1271 c 0,3,4
 678 1271 678 1271 610.5 1247 c 128,-1,5
 543 1223 543 1223 499 1189 c 128,-1,6
 455 1155 455 1155 422 1117.5 c 128,-1,7
 389 1080 389 1080 374 1052 c 128,-1,8
 359 1024 359 1024 359 1012 c 2,9,-1
 361 0 l 1,10,-1
 180 0 l 1,11,-1
 180 1391 l 1,12,-1
 361 1391 l 1,13,-1
 361 1219 l 1,14,15
 372 1234 372 1234 390.5 1254 c 128,-1,16
 409 1274 409 1274 446.5 1302.5 c 128,-1,17
 484 1331 484 1331 528.5 1353.5 c 128,-1,18
 573 1376 573 1376 637.5 1392.5 c 128,-1,19
 702 1409 702 1409 772 1409 c 0,20,21
 822 1409 822 1409 868.5 1402.5 c 128,-1,22
 915 1396 915 1396 970.5 1376 c 128,-1,23
 1026 1356 1026 1356 1072.5 1324 c 128,-1,24
 1119 1292 1119 1292 1164 1236.5 c 128,-1,25
 1209 1181 1209 1181 1240.5 1108 c 128,-1,26
 1272 1035 1272 1035 1291 928.5 c 128,-1,27
 1310 822 1310 822 1310 693 c 2,28,-1
 1310 28 l 2,29,30
 1310 -379 1310 -379 940 -465 c 0,31,32
 826 -492 826 -492 631 -492 c 1,33,-1
 600 -354 l 1,34,35
 676 -352 676 -352 735 -347.5 c 128,-1,36
 794 -343 794 -343 844.5 -333 c 128,-1,37
 895 -323 895 -323 932 -312 c 128,-1,38
 969 -301 969 -301 999 -281 c 128,-1,39
 1029 -261 1029 -261 1049 -241 c 128,-1,40
 1069 -221 1069 -221 1084 -187.5 c 128,-1,41
 1099 -154 1099 -154 1107 -123 c 128,-1,42
 1115 -92 1115 -92 1119.5 -42.5 c 128,-1,43
 1124 7 1124 7 1125.5 52.5 c 128,-1,44
 1127 98 1127 98 1127 166 c 2,45,-1
 1127 684 l 2,0,1
EndSplineSet
EndChar

StartChar: eng
Encoding: 331 331 194
Width: 1121
GlyphClass: 2
Flags: W
AnchorPoint: "Anchor-4" 555 -492 basechar 0 42
AnchorPoint: "Anchor-3" 555 -492 basechar 0 42
AnchorPoint: "Anchor-2" 555 -492 basechar 0 42
AnchorPoint: "Anchor-1" 555 956 basechar 0 40
AnchorPoint: "Anchor-0" 795 828 basechar 0 41
LayerCount: 2
Fore
SplineSet
796 68 m 2,0,-1
 796 507 l 2,1,2
 796 678 796 678 736 753 c 128,-1,3
 676 828 676 828 566 828 c 0,4,5
 507 828 507 828 458 796.5 c 128,-1,6
 409 765 409 765 382 721 c 128,-1,7
 355 677 355 677 340 638.5 c 128,-1,8
 325 600 325 600 325 578 c 2,9,-1
 325 0 l 1,10,-1
 164 0 l 1,11,-1
 164 938 l 1,12,-1
 325 938 l 1,13,-1
 325 766 l 1,14,15
 415 956 415 956 618 956 c 0,16,17
 654 956 654 956 694 946.5 c 128,-1,18
 734 937 734 937 782.5 910 c 128,-1,19
 831 883 831 883 868.5 841 c 128,-1,20
 906 799 906 799 931.5 727 c 128,-1,21
 957 655 957 655 957 563 c 2,22,-1
 957 28 l 2,23,24
 957 -76 957 -76 939 -159.5 c 128,-1,25
 921 -243 921 -243 893.5 -296 c 128,-1,26
 866 -349 866 -349 825.5 -388 c 128,-1,27
 785 -427 785 -427 749 -446.5 c 128,-1,28
 713 -466 713 -466 668 -477 c 128,-1,29
 623 -488 623 -488 597 -490 c 128,-1,30
 571 -492 571 -492 540 -492 c 1,31,-1
 527 -364 l 1,32,33
 566 -359 566 -359 590 -354.5 c 128,-1,34
 614 -350 614 -350 646 -337.5 c 128,-1,35
 678 -325 678 -325 697 -307.5 c 128,-1,36
 716 -290 716 -290 737 -258 c 128,-1,37
 758 -226 758 -226 769.5 -183 c 128,-1,38
 781 -140 781 -140 788.5 -76.5 c 128,-1,39
 796 -13 796 -13 796 68 c 2,0,-1
EndSplineSet
EndChar

StartChar: OE
Encoding: 338 338 199
Width: 1832
GlyphClass: 2
Flags: W
LayerCount: 2
Fore
SplineSet
672 1271 m 0,0,1
 535 1271 535 1271 435.5 1196 c 128,-1,2
 336 1121 336 1121 286.5 994 c 128,-1,3
 237 867 237 867 237 703 c 0,4,5
 237 580 237 580 265 475 c 128,-1,6
 293 370 293 370 346 291 c 128,-1,7
 399 212 399 212 483 167.5 c 128,-1,8
 567 123 567 123 672 123 c 0,9,10
 804 123 804 123 903.5 204 c 128,-1,11
 1003 285 1003 285 1052 415 c 128,-1,12
 1101 545 1101 545 1101 703 c 0,13,14
 1101 820 1101 820 1073 922.5 c 128,-1,15
 1045 1025 1045 1025 992.5 1103 c 128,-1,16
 940 1181 940 1181 857.5 1226 c 128,-1,17
 775 1271 775 1271 672 1271 c 0,0,1
1288 644 m 1,18,-1
 1288 139 l 1,19,-1
 1786 140 l 1,20,-1
 1786 0 l 1,21,-1
 1107 0 l 1,22,-1
 1107 171 l 1,23,24
 939 -18 939 -18 673 -18 c 0,25,26
 521 -18 521 -18 400.5 37.5 c 128,-1,27
 280 93 280 93 203 190.5 c 128,-1,28
 126 288 126 288 85.5 418.5 c 128,-1,29
 45 549 45 549 45 703 c 0,30,31
 45 907 45 907 116.5 1065.5 c 128,-1,32
 188 1224 188 1224 331.5 1316.5 c 128,-1,33
 475 1409 475 1409 673 1409 c 0,34,35
 943 1409 943 1409 1107 1231 c 1,36,-1
 1107 1391 l 1,37,-1
 1786 1391 l 1,38,-1
 1786 1252 l 1,39,-1
 1288 1252 l 1,40,-1
 1288 784 l 1,41,-1
 1590 784 l 1,42,-1
 1590 644 l 1,43,-1
 1288 644 l 1,18,-1
EndSplineSet
EndChar

StartChar: oe
Encoding: 339 339 200
Width: 1666
GlyphClass: 2
Flags: W
AnchorPoint: "Anchor-4" 882 0 basechar 0
AnchorPoint: "Anchor-3" 1222 0 basechar 0
AnchorPoint: "Anchor-2" 1447 0 basechar 0
AnchorPoint: "Anchor-1" 882 956 basechar 0
AnchorPoint: "Anchor-0" 1445 828 basechar 0
LayerCount: 2
Fore
SplineSet
956 580 m 1,0,-1
 1441 580 l 1,1,2
 1432 689 1432 689 1375.5 758.5 c 128,-1,3
 1319 828 1319 828 1227 828 c 0,4,5
 1110 828 1110 828 1042.5 769 c 128,-1,6
 975 710 975 710 956 580 c 1,0,-1
222 469 m 256,8,9
 222 372 222 372 246.5 299.5 c 128,-1,10
 271 227 271 227 312.5 187.5 c 128,-1,11
 354 148 354 148 402.5 129.5 c 128,-1,12
 451 111 451 111 506 111 c 256,13,14
 561 111 561 111 609 129.5 c 128,-1,15
 657 148 657 148 698.5 187.5 c 128,-1,16
 740 227 740 227 764 299.5 c 128,-1,17
 788 372 788 372 788 469 c 256,18,19
 788 566 788 566 764 638.5 c 128,-1,20
 740 711 740 711 698.5 750.5 c 128,-1,21
 657 790 657 790 609 808.5 c 128,-1,22
 561 827 561 827 506 827 c 256,23,24
 451 827 451 827 402.5 808.5 c 128,-1,25
 354 790 354 790 312.5 750.5 c 128,-1,26
 271 711 271 711 246.5 638.5 c 128,-1,7
 222 566 222 566 222 469 c 256,8,9
61 469 m 256,28,29
 61 576 61 576 86.5 661 c 128,-1,30
 112 746 112 746 154.5 800.5 c 128,-1,31
 197 855 197 855 255.5 890.5 c 128,-1,32
 314 926 314 926 376 941 c 128,-1,33
 438 956 438 956 506 956 c 0,34,35
 618 956 618 956 714 914 c 128,-1,36
 810 872 810 872 871 781 c 1,37,38
 930 869 930 869 1020 912.5 c 128,-1,39
 1110 956 1110 956 1207 956 c 0,40,41
 1279 956 1279 956 1338 938 c 128,-1,42
 1397 920 1397 920 1436.5 891 c 128,-1,43
 1476 862 1476 862 1506.5 821.5 c 128,-1,44
 1537 781 1537 781 1553.5 742 c 128,-1,45
 1570 703 1570 703 1581 658.5 c 128,-1,46
 1592 614 1592 614 1595 582.5 c 128,-1,47
 1598 551 1598 551 1599 520 c 1,48,-1
 1575 460 l 1,49,-1
 951 460 l 1,50,51
 951 441 951 441 950 431 c 1,52,53
 960 276 960 276 1047 193.5 c 128,-1,54
 1134 111 1134 111 1270 111 c 0,55,56
 1313 111 1313 111 1332.5 112.5 c 128,-1,57
 1352 114 1352 114 1402 127.5 c 128,-1,58
 1452 141 1452 141 1522 170 c 1,59,-1
 1565 55 l 1,60,61
 1509 17 1509 17 1427.5 -0.5 c 128,-1,62
 1346 -18 1346 -18 1273 -18 c 0,63,64
 1002 -18 1002 -18 875 163 c 1,65,66
 815 69 815 69 717.5 25.5 c 128,-1,67
 620 -18 620 -18 506 -18 c 0,68,69
 438 -18 438 -18 376 -3 c 128,-1,70
 314 12 314 12 255.5 47.5 c 128,-1,71
 197 83 197 83 154.5 137.5 c 128,-1,72
 112 192 112 192 86.5 277 c 128,-1,27
 61 362 61 362 61 469 c 256,28,29
EndSplineSet
EndChar

StartChar: longs
Encoding: 383 383 211
Width: 675
GlyphClass: 2
Flags: W
LayerCount: 2
Fore
SplineSet
383 0 m 1,0,-1
 222 0 l 1,1,-1
 222 810 l 1,2,-1
 56 810 l 1,3,-1
 56 938 l 1,4,-1
 222 938 l 1,5,-1
 222 1020 l 2,6,7
 222 1464 222 1464 573 1464 c 0,8,9
 632 1464 632 1464 681 1452.5 c 128,-1,10
 730 1441 730 1441 753.5 1429.5 c 128,-1,11
 777 1418 777 1418 807 1398.5 c 128,-1,12
 837 1379 837 1379 846 1374 c 1,13,-1
 802 1247 l 1,14,15
 761 1283 761 1283 699.5 1309.5 c 128,-1,16
 638 1336 638 1336 575 1336 c 0,17,18
 500 1336 500 1336 441.5 1265.5 c 128,-1,19
 383 1195 383 1195 383 1107 c 2,20,-1
 383 0 l 1,0,-1
EndSplineSet
EndChar

StartChar: uni0181
Encoding: 385 385 212
Width: 1116
GlyphClass: 2
Flags: W
LayerCount: 2
Fore
SplineSet
180 1202 m 1,0,1
 -22 1125 -22 1125 -22 1018 c 0,2,3
 -22 953 -22 953 0 896 c 1,4,-1
 -174 870 l 1,5,6
 -207 932 -207 932 -207 1026 c 0,7,8
 -207 1128 -207 1128 -138.5 1205.5 c 128,-1,9
 -70 1283 -70 1283 39.5 1325.5 c 128,-1,10
 149 1368 149 1368 266 1388.5 c 128,-1,11
 383 1409 383 1409 500 1409 c 0,12,13
 702 1409 702 1409 832.5 1322 c 128,-1,14
 963 1235 963 1235 963 1084 c 0,15,16
 963 953 963 953 894 867 c 128,-1,17
 825 781 825 781 717 752 c 1,18,19
 769 745 769 745 815 732 c 128,-1,20
 861 719 861 719 908.5 693 c 128,-1,21
 956 667 956 667 990.5 631 c 128,-1,22
 1025 595 1025 595 1046.5 538.5 c 128,-1,23
 1068 482 1068 482 1068 413 c 0,24,25
 1068 271 1068 271 992.5 172 c 128,-1,26
 917 73 917 73 793 27.5 c 128,-1,27
 669 -18 669 -18 508 -18 c 0,28,29
 433 -18 433 -18 335 -9 c 128,-1,30
 237 0 237 0 180 13 c 1,31,-1
 180 1202 l 1,0,1
361 1252 m 1,32,-1
 361 795 l 1,33,-1
 427 795 l 2,34,35
 594 795 594 795 682.5 858 c 128,-1,36
 771 921 771 921 771 1040 c 0,37,38
 771 1095 771 1095 750 1137.5 c 128,-1,39
 729 1180 729 1180 698 1204 c 128,-1,40
 667 1228 667 1228 626 1244 c 128,-1,41
 585 1260 585 1260 551 1265 c 128,-1,42
 517 1270 517 1270 484 1270 c 0,43,44
 420 1270 420 1270 361 1252 c 1,32,-1
361 655 m 1,45,-1
 361 140 l 1,46,47
 379 134 379 134 425 128 c 128,-1,48
 471 122 471 122 499 122 c 0,49,50
 687 122 687 122 785 191.5 c 128,-1,51
 883 261 883 261 883 390 c 0,52,53
 883 655 883 655 421 655 c 2,54,-1
 361 655 l 1,45,-1
EndSplineSet
EndChar

StartChar: uni0186
Encoding: 390 390 213
Width: 1255
GlyphClass: 2
Flags: W
AnchorPoint: "Anchor-4" 584 0 basechar 0 32
AnchorPoint: "Anchor-3" 584 0 basechar 0 32
AnchorPoint: "Anchor-2" 584 0 basechar 0 32
AnchorPoint: "Anchor-1" 584 1409 basechar 0 30
AnchorPoint: "Anchor-0" 1048 1053 basechar 0 31
LayerCount: 2
Fore
SplineSet
549 -18 m 0,0,1
 198 -18 198 -18 61 276 c 1,2,-1
 176 340 l 1,3,4
 219 242 219 242 310 182 c 128,-1,5
 401 122 401 122 543 122 c 0,6,7
 777 122 777 122 895.5 275 c 128,-1,8
 1014 428 1014 428 1014 696 c 0,9,10
 1014 807 1014 807 980.5 909.5 c 128,-1,11
 947 1012 947 1012 886.5 1092.5 c 128,-1,12
 826 1173 826 1173 732.5 1221 c 128,-1,13
 639 1269 639 1269 527 1269 c 2,14,-1
 515 1269 l 2,15,16
 424 1269 424 1269 346 1241 c 0,17,18
 263 1211 263 1211 177 1146 c 1,19,-1
 89 1265 l 1,20,21
 148 1308 148 1308 186 1330.5 c 128,-1,22
 224 1353 224 1353 279 1373.5 c 128,-1,23
 334 1394 334 1394 400 1401.5 c 128,-1,24
 466 1409 466 1409 562 1409 c 0,25,26
 758 1409 758 1409 905 1319 c 128,-1,27
 1052 1229 1052 1229 1129 1067.5 c 128,-1,28
 1206 906 1206 906 1206 695 c 0,29,30
 1206 374 1206 374 1029.5 178 c 128,-1,31
 853 -18 853 -18 549 -18 c 0,0,1
EndSplineSet
EndChar

StartChar: uni018A
Encoding: 394 394 214
Width: 1375
GlyphClass: 2
Flags: W
LayerCount: 2
Fore
SplineSet
544 1409 m 0,0,1
 663 1409 663 1409 777 1379 c 128,-1,2
 891 1349 891 1349 991 1288.5 c 128,-1,3
 1091 1228 1091 1228 1166.5 1143.5 c 128,-1,4
 1242 1059 1242 1059 1286 942 c 128,-1,5
 1330 825 1330 825 1330 691 c 0,6,7
 1330 524 1330 524 1267.5 387 c 128,-1,8
 1205 250 1205 250 1100.5 163 c 128,-1,9
 996 76 996 76 863 29 c 128,-1,10
 730 -18 730 -18 584 -18 c 0,11,12
 367 -18 367 -18 180 13 c 1,13,-1
 180 1210 l 1,14,15
 -22 1141 -22 1141 -22 1018 c 0,16,17
 -22 952 -22 952 0 896 c 1,18,-1
 -174 870 l 1,19,20
 -207 932 -207 932 -207 1026 c 0,21,22
 -207 1101 -207 1101 -172 1162.5 c 128,-1,23
 -137 1224 -137 1224 -76 1264.5 c 128,-1,24
 -15 1305 -15 1305 59 1334.5 c 128,-1,25
 133 1364 133 1364 221 1379.5 c 128,-1,26
 309 1395 309 1395 387 1402 c 128,-1,27
 465 1409 465 1409 544 1409 c 0,0,1
361 1252 m 1,28,-1
 360 140 l 1,29,30
 452 122 452 122 557 122 c 0,31,32
 665 122 665 122 768 159 c 128,-1,33
 871 196 871 196 955 264.5 c 128,-1,34
 1039 333 1039 333 1090.5 443.5 c 128,-1,35
 1142 554 1142 554 1142 688 c 0,36,37
 1142 799 1142 799 1105.5 895 c 128,-1,38
 1069 991 1069 991 1009 1058.5 c 128,-1,39
 949 1126 949 1126 871.5 1175 c 128,-1,40
 794 1224 794 1224 710.5 1247 c 128,-1,41
 627 1270 627 1270 546 1270 c 0,42,43
 439 1270 439 1270 361 1252 c 1,28,-1
EndSplineSet
EndChar

StartChar: uni018E
Encoding: 398 398 215
Width: 1077
GlyphClass: 2
Flags: W
LayerCount: 2
Fore
SplineSet
716 747 m 1,0,-1
 716 1252 l 1,1,-1
 102 1251 l 1,2,-1
 102 1391 l 1,3,-1
 897 1391 l 1,4,-1
 897 0 l 1,5,-1
 102 0 l 1,6,-1
 102 139 l 1,7,-1
 716 139 l 1,8,-1
 716 608 l 1,9,-1
 298 607 l 1,10,-1
 298 747 l 1,11,-1
 716 747 l 1,0,-1
EndSplineSet
EndChar

StartChar: uni018F
Encoding: 399 399 216
Width: 1333
GlyphClass: 2
Flags: W
AnchorPoint: "Anchor-4" 652 0 basechar 0 43
AnchorPoint: "Anchor-3" 652 0 basechar 0 43
AnchorPoint: "Anchor-2" 652 0 basechar 0 43
AnchorPoint: "Anchor-1" 652 1409 basechar 0 41
AnchorPoint: "Anchor-0" 1188 1053 basechar 0 42
LayerCount: 2
Fore
SplineSet
646 -18 m 0,0,1
 515 -18 515 -18 406.5 21 c 128,-1,2
 298 60 298 60 215 137.5 c 128,-1,3
 132 215 132 215 86 340 c 128,-1,4
 40 465 40 465 40 627 c 1,5,-1
 128 720 l 1,6,-1
 1092 720 l 1,7,8
 1089 803 1089 803 1068.5 882 c 128,-1,9
 1048 961 1048 961 1008 1031.5 c 128,-1,10
 968 1102 968 1102 913 1154.5 c 128,-1,11
 858 1207 858 1207 781 1238 c 128,-1,12
 704 1269 704 1269 615 1269 c 0,13,14
 499 1269 499 1269 406.5 1232 c 128,-1,15
 314 1195 314 1195 222 1132 c 1,16,-1
 134 1251 l 1,17,18
 235 1323 235 1323 346.5 1366 c 128,-1,19
 458 1409 458 1409 614 1409 c 0,20,21
 778 1409 778 1409 908 1352 c 128,-1,22
 1038 1295 1038 1295 1119 1196 c 128,-1,23
 1200 1097 1200 1097 1242 969.5 c 128,-1,24
 1284 842 1284 842 1284 695 c 0,25,26
 1284 363 1284 363 1117.5 172.5 c 128,-1,27
 951 -18 951 -18 646 -18 c 0,0,1
1087 580 m 1,28,-1
 222 580 l 1,29,30
 222 490 222 490 247 413 c 128,-1,31
 272 336 272 336 313.5 283.5 c 128,-1,32
 355 231 355 231 410 194 c 128,-1,33
 465 157 465 157 524.5 139.5 c 128,-1,34
 584 122 584 122 646 122 c 0,35,36
 733 122 733 122 803 144.5 c 128,-1,37
 873 167 873 167 922 207 c 128,-1,38
 971 247 971 247 1006 305.5 c 128,-1,39
 1041 364 1041 364 1060 431.5 c 128,-1,40
 1079 499 1079 499 1087 580 c 1,28,-1
EndSplineSet
EndChar

StartChar: uni0190
Encoding: 400 400 217
Width: 1001
GlyphClass: 2
Flags: W
AnchorPoint: "Anchor-4" 516 0 basechar 0 51
AnchorPoint: "Anchor-3" 516 0 basechar 0 51
AnchorPoint: "Anchor-2" 516 0 basechar 0 51
AnchorPoint: "Anchor-1" 516 1409 basechar 0 49
AnchorPoint: "Anchor-0" 808 1053 basechar 0 50
LayerCount: 2
Fore
SplineSet
564 122 m 0,0,1
 629 122 629 122 705.5 153.5 c 128,-1,2
 782 185 782 185 834 232 c 1,3,-1
 912 111 l 1,4,5
 755 -18 755 -18 548 -18 c 0,6,7
 436 -18 436 -18 341 18 c 128,-1,8
 246 54 246 54 182.5 115 c 128,-1,9
 119 176 119 176 84 256.5 c 128,-1,10
 49 337 49 337 49 426 c 0,11,12
 49 652 49 652 296 764 c 1,13,14
 219 792 219 792 151.5 867 c 128,-1,15
 84 942 84 942 84 1038 c 0,16,17
 84 1123 84 1123 113.5 1189.5 c 128,-1,18
 143 1256 143 1256 189 1296 c 128,-1,19
 235 1336 235 1336 298.5 1362.5 c 128,-1,20
 362 1389 362 1389 424 1399 c 128,-1,21
 486 1409 486 1409 553 1409 c 0,22,23
 651 1409 651 1409 747.5 1373 c 128,-1,24
 844 1337 844 1337 884 1304 c 1,25,-1
 806 1188 l 1,26,27
 757 1222 757 1222 687 1245.5 c 128,-1,28
 617 1269 617 1269 558 1269 c 0,29,30
 488 1269 488 1269 435 1252 c 128,-1,31
 382 1235 382 1235 353 1210 c 128,-1,32
 324 1185 324 1185 305.5 1151 c 128,-1,33
 287 1117 287 1117 281.5 1089.5 c 128,-1,34
 276 1062 276 1062 276 1034 c 0,35,36
 276 975 276 975 306.5 929 c 128,-1,37
 337 883 337 883 383 858.5 c 128,-1,38
 429 834 429 834 474.5 822 c 128,-1,39
 520 810 520 810 558 810 c 2,40,-1
 700 810 l 1,41,-1
 700 670 l 1,42,-1
 543 670 l 2,43,44
 396 670 396 670 318.5 598 c 128,-1,45
 241 526 241 526 241 420 c 0,46,47
 241 292 241 292 330 207 c 128,-1,48
 419 122 419 122 564 122 c 0,0,1
EndSplineSet
EndChar

StartChar: uni0191
Encoding: 401 401 218
Width: 999
GlyphClass: 2
Flags: W
LayerCount: 2
Fore
SplineSet
180 1391 m 1,0,-1
 975 1391 l 1,1,-1
 975 1252 l 1,2,-1
 361 1252 l 1,3,-1
 361 783 l 1,4,-1
 779 784 l 1,5,-1
 779 644 l 1,6,-1
 361 644 l 1,7,-1
 361 28 l 2,8,9
 361 -54 361 -54 350 -122.5 c 128,-1,10
 339 -191 339 -191 322 -241 c 128,-1,11
 305 -291 305 -291 277.5 -330.5 c 128,-1,12
 250 -370 250 -370 223 -396 c 128,-1,13
 196 -422 196 -422 158 -441 c 128,-1,14
 120 -460 120 -460 90 -469.5 c 128,-1,15
 60 -479 60 -479 18.5 -484.5 c 128,-1,16
 -23 -490 -23 -490 -50 -491 c 128,-1,17
 -77 -492 -77 -492 -114 -492 c 1,18,-1
 -159 -354 l 1,19,20
 -110 -352 -110 -352 -72.5 -347.5 c 128,-1,21
 -35 -343 -35 -343 -2.5 -333 c 128,-1,22
 30 -323 30 -323 54 -312 c 128,-1,23
 78 -301 78 -301 97.5 -281 c 128,-1,24
 117 -261 117 -261 129.5 -241 c 128,-1,25
 142 -221 142 -221 152 -187.5 c 128,-1,26
 162 -154 162 -154 167 -122.5 c 128,-1,27
 172 -91 172 -91 175 -42 c 128,-1,28
 178 7 178 7 179 53 c 128,-1,29
 180 99 180 99 180 166 c 2,30,-1
 180 1391 l 1,0,-1
EndSplineSet
EndChar

StartChar: florin
Encoding: 402 402 219
Width: 675
GlyphClass: 2
Flags: W
LayerCount: 2
Fore
SplineSet
383 30 m 2,0,1
 383 -74 383 -74 364.5 -157 c 128,-1,2
 346 -240 346 -240 318.5 -293 c 128,-1,3
 291 -346 291 -346 249.5 -385 c 128,-1,4
 208 -424 208 -424 172 -443 c 128,-1,5
 136 -462 136 -462 90.5 -473 c 128,-1,6
 45 -484 45 -484 19 -486 c 128,-1,7
 -7 -488 -7 -488 -38 -488 c 1,8,-1
 -51 -360 l 1,9,10
 -12 -355 -12 -355 12 -350.5 c 128,-1,11
 36 -346 36 -346 67.5 -333.5 c 128,-1,12
 99 -321 99 -321 118 -303.5 c 128,-1,13
 137 -286 137 -286 158 -254 c 128,-1,14
 179 -222 179 -222 190.5 -179 c 128,-1,15
 202 -136 202 -136 210 -72.5 c 128,-1,16
 218 -9 218 -9 218 72 c 2,17,-1
 222 810 l 1,18,-1
 56 810 l 1,19,-1
 56 938 l 1,20,-1
 222 938 l 1,21,-1
 222 1020 l 2,22,23
 222 1464 222 1464 573 1464 c 0,24,25
 632 1464 632 1464 681 1452.5 c 128,-1,26
 730 1441 730 1441 753.5 1429.5 c 128,-1,27
 777 1418 777 1418 807 1398.5 c 128,-1,28
 837 1379 837 1379 846 1374 c 1,29,-1
 802 1247 l 1,30,31
 761 1283 761 1283 699.5 1309.5 c 128,-1,32
 638 1336 638 1336 575 1336 c 0,33,34
 500 1336 500 1336 441.5 1264 c 128,-1,35
 383 1192 383 1192 383 1107 c 2,36,-1
 383 938 l 1,37,-1
 612 938 l 1,38,-1
 612 810 l 1,39,-1
 383 810 l 1,40,-1
 383 30 l 2,0,1
EndSplineSet
EndChar

StartChar: uni0194
Encoding: 404 404 220
Width: 1241
GlyphClass: 2
Flags: W
LayerCount: 2
Fore
SplineSet
704 169 m 1,0,1
 751 63 751 63 787 -15.5 c 128,-1,2
 823 -94 823 -94 845.5 -167.5 c 128,-1,3
 868 -241 868 -241 868 -300 c 0,4,5
 868 -394 868 -394 796 -443 c 128,-1,6
 724 -492 724 -492 620 -492 c 0,7,8
 576 -492 576 -492 535.5 -482 c 128,-1,9
 495 -472 495 -472 458.5 -450 c 128,-1,10
 422 -428 422 -428 400 -387 c 128,-1,11
 378 -346 378 -346 378 -290 c 256,12,13
 378 -234 378 -234 412.5 -140 c 128,-1,14
 447 -46 447 -46 539 162 c 1,15,-1
 59 1391 l 1,16,-1
 232 1391 l 1,17,-1
 623 378 l 1,18,-1
 1020 1410 l 1,19,-1
 1182 1410 l 1,20,-1
 704 169 l 1,0,1
621 -50 m 1,21,22
 566 -207 566 -207 566 -261 c 0,23,24
 566 -312 566 -312 582.5 -332 c 128,-1,25
 599 -352 599 -352 620 -352 c 0,26,27
 680 -352 680 -352 680 -261 c 0,28,29
 680 -206 680 -206 621 -50 c 1,21,22
EndSplineSet
EndChar

StartChar: uni0196
Encoding: 406 406 221
Width: 696
GlyphClass: 2
Flags: W
AnchorPoint: "Anchor-4" 361 0 basechar 0 18
AnchorPoint: "Anchor-3" 361 0 basechar 0 18
AnchorPoint: "Anchor-2" 361 0 basechar 0 18
AnchorPoint: "Anchor-1" 270 1409 basechar 0 16
AnchorPoint: "Anchor-0" 270 1053 basechar 0 17
LayerCount: 2
Fore
SplineSet
361 1392 m 1,0,-1
 361 334 l 2,1,2
 361 123 361 123 496 123 c 0,3,4
 564 123 564 123 646 140 c 1,5,-1
 668 13 l 1,6,7
 634 1 634 1 569.5 -8.5 c 128,-1,8
 505 -18 505 -18 446 -18 c 0,9,10
 392 -18 392 -18 348 -3 c 128,-1,11
 304 12 304 12 264.5 47 c 128,-1,12
 225 82 225 82 202.5 149.5 c 128,-1,13
 180 217 180 217 180 313 c 2,14,-1
 180 1392 l 1,15,-1
 361 1392 l 1,0,-1
EndSplineSet
EndChar

StartChar: uni0197
Encoding: 407 407 222
Width: 663
GlyphClass: 2
Flags: W
AnchorPoint: "Anchor-4" 331 0 basechar 0 14
AnchorPoint: "Anchor-3" 331 0 basechar 0 14
AnchorPoint: "Anchor-2" 331 0 basechar 0 14
AnchorPoint: "Anchor-1" 331 1409 basechar 0 12
AnchorPoint: "Anchor-0" 331 1053 basechar 0 13
LayerCount: 2
Fore
SplineSet
241 664 m 1,0,-1
 61 664 l 1,1,-1
 61 803 l 1,2,-1
 241 803 l 1,3,-1
 241 1391 l 1,4,-1
 422 1391 l 1,5,-1
 422 804 l 1,6,-1
 602 804 l 1,7,-1
 602 664 l 1,8,-1
 422 664 l 1,9,-1
 422 0 l 1,10,-1
 241 0 l 1,11,-1
 241 664 l 1,0,-1
EndSplineSet
EndChar

StartChar: uni0198
Encoding: 408 408 223
Width: 1161
GlyphClass: 2
Flags: W
LayerCount: 2
Fore
SplineSet
1103 1 m 1,0,-1
 892 1 l 1,1,-1
 361 679 l 1,2,-1
 361 0 l 1,3,-1
 180 0 l 1,4,-1
 180 1391 l 1,5,-1
 361 1391 l 1,6,-1
 361 693 l 1,7,-1
 637 1071 l 2,8,9
 699 1155 699 1155 740 1207 c 128,-1,10
 781 1259 781 1259 821 1302 c 0,11,12
 861 1344 861 1344 895 1366 c 0,13,14
 928 1387 928 1387 963 1398 c 128,-1,15
 998 1409 998 1409 1039 1409 c 0,16,17
 1075 1409 1075 1409 1108 1403 c 0,18,19
 1140 1397 1140 1397 1178 1378 c 0,20,21
 1217 1359 1217 1359 1246 1328 c 1,22,23
 1276 1298 1276 1298 1300 1244 c 128,-1,24
 1324 1190 1324 1190 1332 1119 c 1,25,-1
 1171 1095 l 1,26,27
 1160 1177 1160 1177 1128 1223 c 128,-1,28
 1096 1269 1096 1269 1032 1269 c 0,29,30
 1014 1269 1014 1269 993 1257 c 0,31,32
 972 1246 972 1246 956 1233 c 128,-1,33
 940 1220 940 1220 917 1192 c 0,34,35
 893 1164 893 1164 883 1151 c 0,36,37
 873 1137 873 1137 849 1104 c 128,-1,38
 825 1071 825 1071 822 1066 c 2,39,-1
 555 701 l 1,40,-1
 1103 1 l 1,0,-1
EndSplineSet
EndChar

StartChar: uni0199
Encoding: 409 409 224
Width: 936
GlyphClass: 2
Flags: W
LayerCount: 2
Fore
SplineSet
325 0 m 1,0,-1
 164 0 l 1,1,-1
 164 1020 l 2,2,3
 164 1464 164 1464 515 1464 c 0,4,5
 574 1464 574 1464 623 1452.5 c 128,-1,6
 672 1441 672 1441 695.5 1429.5 c 128,-1,7
 719 1418 719 1418 749 1398.5 c 128,-1,8
 779 1379 779 1379 788 1374 c 1,9,-1
 744 1247 l 1,10,11
 703 1283 703 1283 641.5 1309.5 c 128,-1,12
 580 1336 580 1336 517 1336 c 0,13,14
 442 1336 442 1336 383.5 1265.5 c 128,-1,15
 325 1195 325 1195 325 1107 c 2,16,-1
 325 624 l 1,17,-1
 644 938 l 1,18,-1
 844 938 l 1,19,-1
 459 562 l 1,20,-1
 914 0 l 1,21,-1
 714 0 l 1,22,-1
 325 479 l 1,23,-1
 325 0 l 1,0,-1
EndSplineSet
EndChar

StartChar: uni019D
Encoding: 413 413 225
Width: 1385
GlyphClass: 2
Flags: W
LayerCount: 2
Fore
SplineSet
180 1391 m 1,0,-1
 361 1391 l 1,1,-1
 1024 348 l 1,2,-1
 1024 1391 l 1,3,-1
 1205 1391 l 1,4,-1
 1205 0 l 1,5,-1
 1024 0 l 1,6,-1
 361 1042 l 1,7,-1
 361 28 l 2,8,9
 361 -54 361 -54 350 -122.5 c 128,-1,10
 339 -191 339 -191 322 -241 c 128,-1,11
 305 -291 305 -291 277.5 -330.5 c 128,-1,12
 250 -370 250 -370 223 -396 c 128,-1,13
 196 -422 196 -422 158 -441 c 128,-1,14
 120 -460 120 -460 90 -469.5 c 128,-1,15
 60 -479 60 -479 18.5 -484.5 c 128,-1,16
 -23 -490 -23 -490 -50 -491 c 128,-1,17
 -77 -492 -77 -492 -114 -492 c 1,18,-1
 -159 -354 l 1,19,20
 -110 -352 -110 -352 -72.5 -347.5 c 128,-1,21
 -35 -343 -35 -343 -2.5 -333 c 128,-1,22
 30 -323 30 -323 54 -312 c 128,-1,23
 78 -301 78 -301 97.5 -281 c 128,-1,24
 117 -261 117 -261 129.5 -241 c 128,-1,25
 142 -221 142 -221 152 -187.5 c 128,-1,26
 162 -154 162 -154 167 -122.5 c 128,-1,27
 172 -91 172 -91 175 -42 c 128,-1,28
 178 7 178 7 179 53 c 128,-1,29
 180 99 180 99 180 166 c 2,30,-1
 180 1391 l 1,0,-1
EndSplineSet
EndChar

StartChar: uni019F
Encoding: 415 415 226
Width: 1444
GlyphClass: 2
Flags: W
AnchorPoint: "Anchor-4" 727 0 basechar 0 44
AnchorPoint: "Anchor-3" 727 0 basechar 0 44
AnchorPoint: "Anchor-2" 727 0 basechar 0 44
AnchorPoint: "Anchor-1" 727 1409 basechar 0 45
AnchorPoint: "Anchor-0" 1263 1053 basechar 0 43
LayerCount: 2
Fore
SplineSet
727 1409 m 0,0,1
 856 1409 856 1409 965.5 1373 c 128,-1,2
 1075 1337 1075 1337 1154.5 1272 c 128,-1,3
 1234 1207 1234 1207 1289.5 1118.5 c 128,-1,4
 1345 1030 1345 1030 1372 925 c 128,-1,5
 1399 820 1399 820 1399 703 c 0,6,7
 1399 587 1399 587 1371 479.5 c 128,-1,8
 1343 372 1343 372 1286 281.5 c 128,-1,9
 1229 191 1229 191 1149.5 124 c 128,-1,10
 1070 57 1070 57 961.5 19.5 c 128,-1,11
 853 -18 853 -18 727 -18 c 0,12,13
 562 -18 562 -18 431 37.5 c 128,-1,14
 300 93 300 93 216.5 190.5 c 128,-1,15
 133 288 133 288 89 418.5 c 128,-1,16
 45 549 45 549 45 703 c 0,17,18
 45 855 45 855 90.5 984 c 128,-1,19
 136 1113 136 1113 220.5 1207.5 c 128,-1,20
 305 1302 305 1302 435 1355.5 c 128,-1,21
 565 1409 565 1409 727 1409 c 0,0,1
1209 664 m 1,22,-1
 238 664 l 1,23,24
 243 548 243 548 276.5 450 c 128,-1,25
 310 352 310 352 370 279 c 128,-1,26
 430 206 430 206 521.5 164.5 c 128,-1,27
 613 123 613 123 727 123 c 0,28,29
 835 123 835 123 924.5 166 c 128,-1,30
 1014 209 1014 209 1074 283.5 c 128,-1,31
 1134 358 1134 358 1169 455.5 c 128,-1,32
 1204 553 1204 553 1209 664 c 1,22,-1
1204 804 m 1,33,34
 1192 904 1192 904 1155 988 c 128,-1,35
 1118 1072 1118 1072 1059.5 1135.5 c 128,-1,36
 1001 1199 1001 1199 915.5 1235 c 128,-1,37
 830 1271 830 1271 727 1271 c 0,38,39
 589 1271 589 1271 484 1210.5 c 128,-1,40
 379 1150 379 1150 319 1045.5 c 128,-1,41
 259 941 259 941 243 803 c 1,42,-1
 1204 804 l 1,33,34
EndSplineSet
EndChar

StartChar: uni01A9
Encoding: 425 425 227
Width: 1040
GlyphClass: 2
Flags: W
LayerCount: 2
Fore
SplineSet
55 1 m 1,0,-1
 583 696 l 1,1,-1
 55 1392 l 1,2,-1
 938 1392 l 1,3,-1
 938 1253 l 1,4,-1
 349 1253 l 1,5,-1
 770 696 l 1,6,-1
 350 140 l 1,7,-1
 938 141 l 1,8,-1
 938 1 l 1,9,-1
 55 1 l 1,0,-1
EndSplineSet
EndChar

StartChar: uni01B2
Encoding: 434 434 228
Width: 1325
GlyphClass: 2
Flags: W
AnchorPoint: "Anchor-4" 656 0 basechar 0 31
AnchorPoint: "Anchor-3" 656 0 basechar 0 31
AnchorPoint: "Anchor-2" 656 0 basechar 0 31
AnchorPoint: "Anchor-1" 656 1409 basechar 0 33
AnchorPoint: "Anchor-0" 964 1160 basechar 0 32
LayerCount: 2
Fore
SplineSet
681 -18 m 0,0,1
 180 -18 180 -18 180 438 c 2,2,-1
 180 1391 l 1,3,-1
 361 1391 l 1,4,-1
 361 486 l 2,5,6
 361 384 361 384 386.5 311 c 128,-1,7
 412 238 412 238 458.5 198 c 128,-1,8
 505 158 505 158 559.5 140.5 c 128,-1,9
 614 123 614 123 681 123 c 0,10,11
 749 123 749 123 818.5 151 c 128,-1,12
 888 179 888 179 950 232.5 c 128,-1,13
 1012 286 1012 286 1051.5 377.5 c 128,-1,14
 1091 469 1091 469 1091 583 c 0,15,16
 1091 688 1091 688 1067.5 781.5 c 128,-1,17
 1044 875 1044 875 995 960.5 c 128,-1,18
 946 1046 946 1046 884 1122 c 128,-1,19
 822 1198 822 1198 733 1284 c 1,20,-1
 874 1409 l 1,21,22
 963 1316 963 1316 1021 1248 c 128,-1,23
 1079 1180 1079 1180 1132.5 1100 c 128,-1,24
 1186 1020 1186 1020 1215.5 945 c 128,-1,25
 1245 870 1245 870 1262.5 779 c 128,-1,26
 1280 688 1280 688 1280 583 c 0,27,28
 1280 405 1280 405 1201.5 267.5 c 128,-1,29
 1123 130 1123 130 987 56 c 128,-1,30
 851 -18 851 -18 681 -18 c 0,0,1
EndSplineSet
EndChar

StartChar: uni01B3
Encoding: 435 435 229
Width: 1307
GlyphClass: 2
Flags: W
LayerCount: 2
Fore
SplineSet
985 1068 m 2,0,-1
 711 618 l 1,1,-1
 711 0 l 1,2,-1
 530 0 l 1,3,-1
 530 619 l 1,4,-1
 59 1391 l 1,5,-1
 237 1391 l 1,6,-1
 626 754 l 1,7,-1
 817 1068 l 2,8,9
 902 1206 902 1206 964 1279.5 c 128,-1,10
 1026 1353 1026 1353 1081 1381 c 128,-1,11
 1136 1409 1136 1409 1206 1409 c 0,12,13
 1444 1409 1444 1409 1478 1119 c 1,14,-1
 1317 1095 l 1,15,16
 1311 1140 1311 1140 1305.5 1165.5 c 128,-1,17
 1300 1191 1300 1191 1287.5 1218 c 128,-1,18
 1275 1245 1275 1245 1253.5 1257 c 128,-1,19
 1232 1269 1232 1269 1199 1269 c 0,20,21
 1179 1269 1179 1269 1158.5 1260.5 c 128,-1,22
 1138 1252 1138 1252 1122.5 1242 c 128,-1,23
 1107 1232 1107 1232 1087.5 1210.5 c 128,-1,24
 1068 1189 1068 1189 1057.5 1177 c 128,-1,25
 1047 1165 1047 1165 1028.5 1136.5 c 128,-1,26
 1010 1108 1010 1108 1006 1101.5 c 128,-1,27
 1002 1095 1002 1095 985 1068 c 2,0,-1
EndSplineSet
EndChar

StartChar: uni01B4
Encoding: 436 436 230
Width: 1130
GlyphClass: 2
Flags: W
LayerCount: 2
Fore
SplineSet
853 598 m 2,0,-1
 592 18 l 2,1,2
 499 -188 499 -188 430.5 -299 c 128,-1,3
 362 -410 362 -410 302.5 -453 c 128,-1,4
 243 -496 243 -496 170 -496 c 0,5,6
 70 -496 70 -496 -1 -420 c 1,7,-1
 57 -322 l 1,8,9
 76 -338 76 -338 87.5 -345.5 c 128,-1,10
 99 -353 99 -353 118 -360 c 128,-1,11
 137 -367 137 -367 157 -367 c 0,12,13
 181 -367 181 -367 205 -354 c 128,-1,14
 229 -341 229 -341 253 -313.5 c 128,-1,15
 277 -286 277 -286 298 -255.5 c 128,-1,16
 319 -225 319 -225 343.5 -177.5 c 128,-1,17
 368 -130 368 -130 387 -89 c 128,-1,18
 406 -48 406 -48 433 11 c 1,19,-1
 24 938 l 1,20,-1
 197 938 l 1,21,-1
 520 207 l 1,22,-1
 708 636 l 2,23,24
 747 723 747 723 782.5 782.5 c 128,-1,25
 818 842 818 842 848.5 876 c 128,-1,26
 879 910 879 910 915.5 928 c 128,-1,27
 952 946 952 946 982.5 951 c 128,-1,28
 1013 956 1013 956 1059 956 c 0,29,30
 1078 956 1078 956 1099 952.5 c 128,-1,31
 1120 949 1120 949 1155.5 932.5 c 128,-1,32
 1191 916 1191 916 1218.5 888 c 128,-1,33
 1246 860 1246 860 1270.5 803.5 c 128,-1,34
 1295 747 1295 747 1301 672 c 1,35,-1
 1140 642 l 1,36,37
 1137 695 1137 695 1104.5 755.5 c 128,-1,38
 1072 816 1072 816 1027 816 c 0,39,40
 1008 816 1008 816 989 805.5 c 128,-1,41
 970 795 970 795 954.5 778 c 128,-1,42
 939 761 939 761 924 738.5 c 128,-1,43
 909 716 909 716 897 692 c 128,-1,44
 885 668 885 668 873.5 643.5 c 128,-1,45
 862 619 862 619 853 598 c 2,0,-1
EndSplineSet
EndChar

StartChar: uni01B5
Encoding: 437 437 231
Width: 1259
GlyphClass: 2
Flags: W
AnchorPoint: "Anchor-4" 601 0 basechar 0 19
AnchorPoint: "Anchor-3" 1048 0 basechar 0 16
AnchorPoint: "Anchor-2" 1048 0 basechar 0 16
AnchorPoint: "Anchor-1" 601 1409 basechar 0 17
AnchorPoint: "Anchor-0" 808 1053 basechar 0 18
LayerCount: 2
Fore
SplineSet
654 664 m 1,0,-1
 320 139 l 1,1,-1
 1116 139 l 1,2,-1
 1116 -1 l 1,3,-1
 50 0 l 1,4,-1
 472 664 l 1,5,-1
 215 664 l 1,6,-1
 215 803 l 1,7,-1
 561 803 l 1,8,-1
 847 1252 l 1,9,-1
 87 1252 l 1,10,-1
 87 1391 l 1,11,-1
 1116 1391 l 1,12,-1
 743 804 l 1,13,-1
 1008 804 l 1,14,-1
 1008 664 l 1,15,-1
 654 664 l 1,0,-1
EndSplineSet
EndChar

StartChar: uni01B6
Encoding: 438 438 232
Width: 972
GlyphClass: 2
Flags: W
AnchorPoint: "Anchor-4" 508 0 basechar 0 16
AnchorPoint: "Anchor-3" 820 0 basechar 0 19
AnchorPoint: "Anchor-2" 820 0 basechar 0 19
AnchorPoint: "Anchor-1" 508 956 basechar 0 17
AnchorPoint: "Anchor-0" 738 828 basechar 0 18
LayerCount: 2
Fore
SplineSet
111 938 m 1,0,-1
 889 938 l 1,1,-1
 631 558 l 1,2,-1
 863 558 l 1,3,-1
 863 449 l 1,4,-1
 557 449 l 1,5,-1
 340 128 l 1,6,-1
 905 128 l 1,7,-1
 905 0 l 1,8,-1
 67 0 l 1,9,-1
 371 449 l 1,10,-1
 128 449 l 1,11,-1
 128 558 l 1,12,-1
 445 558 l 1,13,-1
 616 810 l 1,14,-1
 111 810 l 1,15,-1
 111 938 l 1,0,-1
EndSplineSet
EndChar

StartChar: uni01DD
Encoding: 477 477 241
Width: 939
GlyphClass: 2
Flags: W
AnchorPoint: "Anchor-4" 450 0 basechar 0 40
AnchorPoint: "Anchor-3" 450 0 basechar 0 40
AnchorPoint: "Anchor-2" 450 0 basechar 0 40
AnchorPoint: "Anchor-1" 450 956 basechar 0 41
AnchorPoint: "Anchor-0" 680 828 basechar 0 39
LayerCount: 2
Fore
SplineSet
433 110 m 0,0,1
 572 110 572 110 641 194 c 0,2,3
 689 252 689 252 704 358 c 1,4,-1
 219 358 l 1,5,6
 228 249 228 249 284.5 179.5 c 128,-1,7
 341 110 341 110 433 110 c 0,0,1
711 478 m 1,8,9
 709 644 709 644 623 734 c 0,10,11
 535 827 535 827 390 827 c 0,12,13
 347 827 347 827 327.5 825.5 c 128,-1,14
 308 824 308 824 258 810.5 c 128,-1,15
 208 797 208 797 138 768 c 1,16,-1
 95 883 l 1,17,18
 151 921 151 921 232.5 938.5 c 128,-1,19
 314 956 314 956 387 956 c 0,20,21
 620 956 620 956 746 823 c 128,-1,22
 872 690 872 690 872 469 c 0,23,24
 872 367 872 367 847 283.5 c 128,-1,25
 822 200 822 200 781 145 c 128,-1,26
 740 90 740 90 685 52.5 c 128,-1,27
 630 15 630 15 572 -1.5 c 128,-1,28
 514 -18 514 -18 453 -18 c 0,29,30
 381 -18 381 -18 322 0 c 128,-1,31
 263 18 263 18 223.5 47 c 128,-1,32
 184 76 184 76 153.5 116.5 c 128,-1,33
 123 157 123 157 106.5 196 c 128,-1,34
 90 235 90 235 79 279.5 c 128,-1,35
 68 324 68 324 65 355.5 c 128,-1,36
 62 387 62 387 61 418 c 1,37,-1
 85 478 l 1,38,-1
 711 478 l 1,8,9
EndSplineSet
EndChar

StartChar: uni0228
Encoding: 552 552 242
Width: 1077
GlyphClass: 2
Flags: W
LayerCount: 2
Fore
SplineSet
493 0 m 1,0,-1
 180 0 l 1,1,-1
 180 1391 l 1,2,-1
 975 1391 l 1,3,-1
 975 1252 l 1,4,-1
 361 1252 l 1,5,-1
 361 784 l 1,6,-1
 779 784 l 1,7,-1
 779 644 l 1,8,-1
 361 644 l 1,9,-1
 361 140 l 1,10,-1
 975 140 l 1,11,-1
 975 0 l 1,12,-1
 595 0 l 1,13,14
 571 -54 571 -54 571 -106 c 1,15,16
 621 -119 621 -119 657 -170 c 128,-1,17
 693 -221 693 -221 693 -288 c 0,18,19
 693 -370 693 -370 650.5 -414.5 c 128,-1,20
 608 -459 608 -459 522 -494 c 1,21,-1
 443 -419 l 1,22,23
 505 -393 505 -393 538.5 -364 c 128,-1,24
 572 -335 572 -335 572 -288 c 0,25,26
 572 -235 572 -235 538.5 -203.5 c 128,-1,27
 505 -172 505 -172 447 -172 c 1,28,29
 447 -73 447 -73 493 0 c 1,0,-1
EndSplineSet
EndChar

StartChar: uni0229
Encoding: 553 553 243
Width: 939
GlyphClass: 2
Flags: W
LayerCount: 2
Fore
SplineSet
500 828 m 0,0,1
 361 828 361 828 292 744 c 0,2,3
 244 686 244 686 229 580 c 1,4,-1
 714 580 l 1,5,6
 705 689 705 689 648.5 758.5 c 128,-1,7
 592 828 592 828 500 828 c 0,0,1
416 -6 m 1,8,9
 275 22 275 22 187 115 c 0,10,11
 61 248 61 248 61 469 c 0,12,13
 61 571 61 571 86 654.5 c 128,-1,14
 111 738 111 738 152 793 c 128,-1,15
 193 848 193 848 248 885.5 c 128,-1,16
 303 923 303 923 361 939.5 c 128,-1,17
 419 956 419 956 480 956 c 0,18,19
 552 956 552 956 611 938 c 128,-1,20
 670 920 670 920 709.5 891 c 128,-1,21
 749 862 749 862 779.5 821.5 c 128,-1,22
 810 781 810 781 826.5 742 c 128,-1,23
 843 703 843 703 854 658.5 c 128,-1,24
 865 614 865 614 868 582.5 c 128,-1,25
 871 551 871 551 872 520 c 1,26,-1
 848 460 l 1,27,-1
 222 460 l 1,28,29
 224 294 224 294 310 204 c 0,30,31
 398 111 398 111 543 111 c 0,32,33
 586 111 586 111 605.5 112.5 c 128,-1,34
 625 114 625 114 675 127.5 c 128,-1,35
 725 141 725 141 795 170 c 1,36,-1
 838 55 l 1,37,38
 782 17 782 17 700.5 -0.5 c 128,-1,39
 619 -18 619 -18 546 -18 c 0,40,41
 530 -18 530 -18 515 -17 c 1,42,43
 498 -62 498 -62 498 -106 c 1,44,45
 548 -119 548 -119 584 -170 c 128,-1,46
 620 -221 620 -221 620 -288 c 0,47,48
 620 -370 620 -370 577.5 -414.5 c 128,-1,49
 535 -459 535 -459 449 -494 c 1,50,-1
 370 -419 l 1,51,52
 432 -393 432 -393 465.5 -364 c 128,-1,53
 499 -335 499 -335 499 -288 c 0,54,55
 499 -235 499 -235 465.5 -203.5 c 128,-1,56
 432 -172 432 -172 374 -172 c 1,57,58
 374 -77 374 -77 416 -6 c 1,8,9
EndSplineSet
EndChar

StartChar: uni0237
Encoding: 567 567 246
Width: 547
GlyphClass: 2
Flags: W
AnchorPoint: "Anchor-4" 222 -492 basechar 0 21
AnchorPoint: "Anchor-3" 222 -492 basechar 0 21
AnchorPoint: "Anchor-2" 222 -492 basechar 0 21
AnchorPoint: "Anchor-1" 302 956 basechar 0 19
AnchorPoint: "Anchor-0" 302 828 basechar 0 20
LayerCount: 2
Fore
SplineSet
383 938 m 1,0,-1
 383 111 l 2,1,2
 383 48 383 48 381 5.5 c 128,-1,3
 379 -37 379 -37 370.5 -94.5 c 128,-1,4
 362 -152 362 -152 343 -204 c 128,-1,5
 324 -256 324 -256 293 -304 c 0,6,7
 226 -409 226 -409 100 -492 c 1,8,-1
 10 -420 l 1,9,10
 48 -383 48 -383 68.5 -361 c 128,-1,11
 89 -339 89 -339 115.5 -303 c 128,-1,12
 142 -267 142 -267 160 -230 c 0,13,14
 222 -103 222 -103 222 111 c 2,15,-1
 222 810 l 1,16,-1
 56 810 l 1,17,-1
 56 938 l 1,18,-1
 383 938 l 1,0,-1
EndSplineSet
EndChar

StartChar: uni0244
Encoding: 580 580 247
Width: 1432
GlyphClass: 2
Flags: W
AnchorPoint: "Anchor-4" 716 0 basechar 0 31
AnchorPoint: "Anchor-3" 716 0 basechar 0 31
AnchorPoint: "Anchor-2" 716 0 basechar 0 31
AnchorPoint: "Anchor-1" 716 1392 basechar 0 33
AnchorPoint: "Anchor-0" 1109 1053 basechar 0 32
LayerCount: 2
Fore
SplineSet
422 486 m 2,0,1
 422 384 422 384 447.5 311 c 128,-1,2
 473 238 473 238 519.5 198 c 128,-1,3
 566 158 566 158 620.5 140.5 c 128,-1,4
 675 123 675 123 742 123 c 0,5,6
 875 123 875 123 947.5 218.5 c 128,-1,7
 1020 314 1020 314 1020 513 c 2,8,-1
 1020 664 l 1,9,-1
 422 664 l 1,10,-1
 422 486 l 2,0,1
241 664 m 1,11,-1
 61 664 l 1,12,-1
 61 803 l 1,13,-1
 241 803 l 1,14,-1
 241 1391 l 1,15,-1
 422 1391 l 1,16,-1
 422 803 l 1,17,-1
 1020 804 l 1,18,-1
 1020 1391 l 1,19,-1
 1191 1391 l 1,20,-1
 1191 804 l 1,21,-1
 1371 804 l 1,22,-1
 1371 664 l 1,23,-1
 1191 664 l 1,24,-1
 1191 469 l 2,25,26
 1191 248 1191 248 1073 115 c 128,-1,27
 955 -18 955 -18 742 -18 c 0,28,29
 241 -18 241 -18 241 438 c 2,30,-1
 241 664 l 1,11,-1
EndSplineSet
EndChar

StartChar: uni0245
Encoding: 581 581 248
Width: 1328
GlyphClass: 2
Flags: W
AnchorPoint: "Anchor-4" 664 0 basechar 0 10
AnchorPoint: "Anchor-3" 1166 0 basechar 0 9
AnchorPoint: "Anchor-2" 1166 0 basechar 0 9
AnchorPoint: "Anchor-1" 664 1409 basechar 0 7
AnchorPoint: "Anchor-0" 786 1053 basechar 0 8
LayerCount: 2
Fore
SplineSet
659 1143 m 1,0,-1
 235 0 l 1,1,-1
 67 0 l 1,2,-1
 589 1391 l 1,3,-1
 739 1391 l 1,4,-1
 1261 0 l 1,5,-1
 1083 0 l 1,6,-1
 659 1143 l 1,0,-1
EndSplineSet
EndChar

StartChar: uni0251
Encoding: 593 593 249
Width: 1016
GlyphClass: 2
Flags: W
AnchorPoint: "Anchor-4" 555 0 basechar 0 46
AnchorPoint: "Anchor-3" 848 0 basechar 0 45
AnchorPoint: "Anchor-2" 848 0 basechar 0 45
AnchorPoint: "Anchor-1" 555 956 basechar 0 48
AnchorPoint: "Anchor-0" 816 828 basechar 0 47
LayerCount: 2
Fore
SplineSet
735 156 m 1,0,1
 717 129 717 129 712 122 c 128,-1,2
 707 115 707 115 690 91.5 c 128,-1,3
 673 68 673 68 664 60.5 c 128,-1,4
 655 53 655 53 636.5 36 c 128,-1,5
 618 19 618 19 601.5 12.5 c 128,-1,6
 585 6 585 6 562 -3 c 128,-1,7
 539 -12 539 -12 512 -15 c 128,-1,8
 485 -18 485 -18 454 -18 c 0,9,10
 376 -18 376 -18 307 9.5 c 128,-1,11
 238 37 238 37 182 92 c 128,-1,12
 126 147 126 147 93.5 240.5 c 128,-1,13
 61 334 61 334 61 456 c 0,14,15
 61 551 61 551 89.5 633.5 c 128,-1,16
 118 716 118 716 165.5 774 c 128,-1,17
 213 832 213 832 274.5 874 c 128,-1,18
 336 916 336 916 402 936 c 128,-1,19
 468 956 468 956 534 956 c 0,20,21
 737 956 737 956 896 858 c 1,22,-1
 896 209 l 2,23,24
 896 126 896 126 903 87.5 c 128,-1,25
 910 49 910 49 929 0 c 1,26,-1
 768 0 l 1,27,28
 749 27 749 27 742 56.5 c 128,-1,29
 735 86 735 86 735 156 c 1,0,1
464 110 m 0,30,31
 628 110 628 110 735 290 c 1,32,-1
 735 790 l 1,33,34
 677 827 677 827 570 827 c 0,35,36
 484 827 484 827 416.5 797 c 128,-1,37
 349 767 349 767 307 715 c 128,-1,38
 265 663 265 663 243.5 595 c 128,-1,39
 222 527 222 527 222 448 c 0,40,41
 222 357 222 357 243.5 288.5 c 128,-1,42
 265 220 265 220 301 182.5 c 128,-1,43
 337 145 337 145 377.5 127.5 c 128,-1,44
 418 110 418 110 464 110 c 0,30,31
EndSplineSet
EndChar

StartChar: uni0253
Encoding: 595 595 250
Width: 1059
GlyphClass: 2
Flags: W
AnchorPoint: "Anchor-4" 555 0 basechar 0 47
AnchorPoint: "Anchor-3" 555 0 basechar 0 47
AnchorPoint: "Anchor-2" 555 0 basechar 0 47
AnchorPoint: "Anchor-1" 555 1475 basechar 0
AnchorPoint: "Anchor-0" 841 828 basechar 0 48
LayerCount: 2
Fore
SplineSet
594 828 m 0,0,1
 431 827 431 827 325 648 c 1,2,-1
 325 148 l 1,3,4
 383 111 383 111 490 111 c 0,5,6
 576 111 576 111 643.5 141 c 128,-1,7
 711 171 711 171 753 223 c 128,-1,8
 795 275 795 275 816.5 343 c 128,-1,9
 838 411 838 411 838 490 c 0,10,11
 838 582 838 582 816.5 650.5 c 128,-1,12
 795 719 795 719 758.5 756 c 128,-1,13
 722 793 722 793 681 810.5 c 128,-1,14
 640 828 640 828 594 828 c 0,0,1
325 828 m 1,15,16
 390 901 390 901 457 928.5 c 128,-1,17
 524 956 524 956 606 956 c 0,18,19
 684 956 684 956 753 928.5 c 128,-1,20
 822 901 822 901 878 846 c 128,-1,21
 934 791 934 791 966.5 697.5 c 128,-1,22
 999 604 999 604 999 482 c 0,23,24
 999 387 999 387 970.5 304.5 c 128,-1,25
 942 222 942 222 894.5 164 c 128,-1,26
 847 106 847 106 785.5 64 c 128,-1,27
 724 22 724 22 658 2 c 128,-1,28
 592 -18 592 -18 526 -18 c 0,29,30
 323 -18 323 -18 164 80 c 1,31,-1
 164 1020 l 2,32,33
 164 1464 164 1464 515 1464 c 0,34,35
 574 1464 574 1464 623 1452.5 c 128,-1,36
 672 1441 672 1441 695.5 1429.5 c 128,-1,37
 719 1418 719 1418 749 1398.5 c 128,-1,38
 779 1379 779 1379 788 1374 c 1,39,-1
 744 1247 l 1,40,41
 703 1283 703 1283 641.5 1309.5 c 128,-1,42
 580 1336 580 1336 517 1336 c 0,43,44
 442 1336 442 1336 383.5 1264 c 128,-1,45
 325 1192 325 1192 325 1107 c 2,46,-1
 325 828 l 1,15,16
EndSplineSet
EndChar

StartChar: uni0254
Encoding: 596 596 251
Width: 921
GlyphClass: 2
Flags: W
AnchorPoint: "Anchor-4" 429 0 basechar 0 30
AnchorPoint: "Anchor-3" 429 0 basechar 0 30
AnchorPoint: "Anchor-1" 429 956 basechar 0 32
AnchorPoint: "Anchor-0" 707 828 basechar 0 31
LayerCount: 2
Fore
SplineSet
860 469 m 0,0,1
 860 248 860 248 739.5 115 c 128,-1,2
 619 -18 619 -18 413 -18 c 0,3,4
 351 -18 351 -18 297.5 -2.5 c 128,-1,5
 244 13 244 13 207 36.5 c 128,-1,6
 170 60 170 60 140 93 c 128,-1,7
 110 126 110 126 92 156.5 c 128,-1,8
 74 187 74 187 61 220 c 1,9,-1
 173 282 l 1,10,11
 187 247 187 247 205 219 c 128,-1,12
 223 191 223 191 251 165 c 128,-1,13
 279 139 279 139 319.5 125 c 128,-1,14
 360 111 360 111 411 111 c 0,15,16
 554 111 554 111 626.5 213.5 c 128,-1,17
 699 316 699 316 699 469 c 0,18,19
 699 617 699 617 611.5 722 c 128,-1,20
 524 827 524 827 378 827 c 2,21,-1
 372 827 l 2,22,23
 311 827 311 827 260 810 c 0,24,25
 206 791 206 791 147 748 c 1,26,-1
 85 856 l 1,27,28
 231 956 231 956 392 956 c 0,29,30
 607 956 607 956 733.5 820.5 c 128,-1,31
 860 685 860 685 860 469 c 0,0,1
EndSplineSet
EndChar

StartChar: uni0256
Encoding: 598 598 252
Width: 1063
GlyphClass: 2
Flags: W
AnchorPoint: "Anchor-4" 482 0 basechar 0 47
AnchorPoint: "Anchor-3" 1063 -492 basechar 0 48
AnchorPoint: "Anchor-2" 1063 -492 basechar 0 48
AnchorPoint: "Anchor-1" 816 1475 basechar 0 46
AnchorPoint: "Anchor-0" 816 828 basechar 0 49
LayerCount: 2
Fore
SplineSet
899 68 m 2,0,1
 899 -13 899 -13 906.5 -76.5 c 128,-1,2
 914 -140 914 -140 925.5 -183 c 128,-1,3
 937 -226 937 -226 958 -258 c 128,-1,4
 979 -290 979 -290 998 -307.5 c 128,-1,5
 1017 -325 1017 -325 1049 -337.5 c 128,-1,6
 1081 -350 1081 -350 1105 -354.5 c 128,-1,7
 1129 -359 1129 -359 1168 -364 c 1,8,-1
 1155 -492 l 1,9,10
 1124 -492 1124 -492 1098 -490 c 128,-1,11
 1072 -488 1072 -488 1026.5 -477 c 128,-1,12
 981 -466 981 -466 945 -447 c 128,-1,13
 909 -428 909 -428 867.5 -389 c 128,-1,14
 826 -350 826 -350 798.5 -297 c 128,-1,15
 771 -244 771 -244 752.5 -161 c 128,-1,16
 734 -78 734 -78 734 26 c 2,17,-1
 734 110 l 1,18,19
 621 -18 621 -18 465 -18 c 0,20,21
 349 -18 349 -18 255 46 c 128,-1,22
 161 110 161 110 111 212.5 c 128,-1,23
 61 315 61 315 61 432 c 0,24,25
 61 665 61 665 196.5 810.5 c 128,-1,26
 332 956 332 956 533 956 c 0,27,28
 617 956 617 956 734 924 c 1,29,-1
 734 1475 l 1,30,-1
 899 1475 l 1,31,-1
 899 68 l 2,0,1
734 784 m 1,32,33
 651 828 651 828 543 828 c 0,34,35
 488 828 488 828 431.5 799.5 c 128,-1,36
 375 771 375 771 328 721.5 c 128,-1,37
 281 672 281 672 251.5 597 c 128,-1,38
 222 522 222 522 222 436 c 0,39,40
 222 297 222 297 296.5 204 c 128,-1,41
 371 111 371 111 480 111 c 0,42,43
 554 111 554 111 621 161.5 c 128,-1,44
 688 212 688 212 734 290 c 1,45,-1
 734 784 l 1,32,33
EndSplineSet
EndChar

StartChar: uni0257
Encoding: 599 599 253
Width: 1063
GlyphClass: 2
Flags: W
AnchorPoint: "Anchor-4" 482 0 basechar 0 46
AnchorPoint: "Anchor-3" 482 0 basechar 0 46
AnchorPoint: "Anchor-2" 816 0 basechar 0 48
AnchorPoint: "Anchor-1" 816 1475 basechar 0 45
AnchorPoint: "Anchor-0" 816 828 basechar 0 47
LayerCount: 2
Fore
SplineSet
734 924 m 1,0,-1
 734 1016 l 2,1,2
 734 1124 734 1124 752 1206.5 c 128,-1,3
 770 1289 770 1289 798 1336.5 c 128,-1,4
 826 1384 826 1384 865.5 1414 c 128,-1,5
 905 1444 905 1444 941 1454 c 128,-1,6
 977 1464 977 1464 1018 1464 c 0,7,8
 1081 1464 1081 1464 1133.5 1440.5 c 128,-1,9
 1186 1417 1186 1417 1209 1394.5 c 128,-1,10
 1232 1372 1232 1372 1246 1349 c 1,11,-1
 1162 1254 l 1,12,13
 1102 1336 1102 1336 1024 1336 c 0,14,15
 970 1336 970 1336 934.5 1267.5 c 128,-1,16
 899 1199 899 1199 899 1067 c 2,17,-1
 899 0 l 1,18,-1
 734 0 l 1,19,-1
 734 110 l 1,20,21
 621 -18 621 -18 465 -18 c 0,22,23
 349 -18 349 -18 255 46 c 128,-1,24
 161 110 161 110 111 212.5 c 128,-1,25
 61 315 61 315 61 432 c 0,26,27
 61 665 61 665 196.5 810.5 c 128,-1,28
 332 956 332 956 533 956 c 0,29,30
 617 956 617 956 734 924 c 1,0,-1
734 784 m 1,31,32
 651 828 651 828 543 828 c 0,33,34
 488 828 488 828 431.5 799.5 c 128,-1,35
 375 771 375 771 328 721.5 c 128,-1,36
 281 672 281 672 251.5 597 c 128,-1,37
 222 522 222 522 222 436 c 0,38,39
 222 297 222 297 296.5 204 c 128,-1,40
 371 111 371 111 480 111 c 0,41,42
 554 111 554 111 621 161.5 c 128,-1,43
 688 212 688 212 734 290 c 1,44,-1
 734 784 l 1,31,32
EndSplineSet
EndChar

StartChar: uni025B
Encoding: 603 603 255
Width: 822
GlyphClass: 2
Flags: W
AnchorPoint: "Anchor-4" 448 0 basechar 0
AnchorPoint: "Anchor-3" 478 0 basechar 0
AnchorPoint: "Anchor-1" 448 956 basechar 0
AnchorPoint: "Anchor-0" 668 828 basechar 0
LayerCount: 2
Fore
SplineSet
741 884 m 1,0,-1
 680 768 l 1,1,2
 642 790 642 790 582 809 c 128,-1,3
 522 828 522 828 466 828 c 0,4,5
 424 828 424 828 382 818.5 c 128,-1,6
 340 809 340 809 303 778.5 c 128,-1,7
 266 748 266 748 266 702 c 0,8,9
 266 637 266 637 327 601 c 128,-1,10
 388 565 388 565 502 565 c 2,11,-1
 588 565 l 1,12,-1
 572 445 l 1,13,-1
 472 445 l 2,14,15
 351 445 351 445 286.5 403 c 128,-1,16
 222 361 222 361 222 286 c 0,17,18
 222 226 222 226 259.5 184.5 c 128,-1,19
 297 143 297 143 344 127 c 128,-1,20
 391 111 391 111 440 111 c 0,21,22
 504 111 504 111 560 130 c 128,-1,23
 616 149 616 149 640.5 166.5 c 128,-1,24
 665 184 665 184 698 213 c 1,25,-1
 762 111 l 1,26,27
 716 57 716 57 632.5 19.5 c 128,-1,28
 549 -18 549 -18 434 -18 c 0,29,30
 338 -18 338 -18 254 14.5 c 128,-1,31
 170 47 170 47 115.5 114.5 c 128,-1,32
 61 182 61 182 61 272 c 0,33,34
 61 363 61 363 107.5 421 c 128,-1,35
 154 479 154 479 222 505 c 1,36,37
 100 557 100 557 100 702 c 0,38,39
 100 777 100 777 152 836.5 c 128,-1,40
 204 896 204 896 283 926 c 128,-1,41
 362 956 362 956 450 956 c 0,42,43
 554 956 554 956 631 933.5 c 128,-1,44
 708 911 708 911 741 884 c 1,0,-1
EndSplineSet
EndChar

StartChar: uni0261
Encoding: 609 609 256
Width: 1060
GlyphClass: 2
Flags: W
LayerCount: 2
Fore
SplineSet
454 -18 m 0,0,1
 376 -18 376 -18 307 9.5 c 128,-1,2
 238 37 238 37 182 92 c 128,-1,3
 126 147 126 147 93.5 240.5 c 128,-1,4
 61 334 61 334 61 456 c 0,5,6
 61 551 61 551 89.5 633.5 c 128,-1,7
 118 716 118 716 165.5 774 c 128,-1,8
 213 832 213 832 274.5 874 c 128,-1,9
 336 916 336 916 402 936 c 128,-1,10
 468 956 468 956 534 956 c 0,11,12
 737 956 737 956 896 858 c 1,13,-1
 896 28 l 2,14,15
 896 -248 896 -248 797.5 -370 c 128,-1,16
 699 -492 699 -492 472 -492 c 0,17,18
 363 -492 363 -492 271 -462.5 c 128,-1,19
 179 -433 179 -433 120 -393 c 1,20,-1
 176 -281 l 1,21,22
 224 -315 224 -315 311 -339.5 c 128,-1,23
 398 -364 398 -364 471 -364 c 0,24,25
 575 -364 575 -364 631 -325 c 128,-1,26
 687 -286 687 -286 711 -194.5 c 128,-1,27
 735 -103 735 -103 735 68 c 2,28,-1
 735 110 l 1,29,30
 670 37 670 37 603 9.5 c 128,-1,31
 536 -18 536 -18 454 -18 c 0,0,1
464 110 m 0,32,33
 628 110 628 110 735 290 c 1,34,-1
 735 790 l 1,35,36
 677 827 677 827 570 827 c 0,37,38
 484 827 484 827 416.5 797 c 128,-1,39
 349 767 349 767 307 715 c 128,-1,40
 265 663 265 663 243.5 595 c 128,-1,41
 222 527 222 527 222 448 c 0,42,43
 222 357 222 357 243.5 288.5 c 128,-1,44
 265 220 265 220 300.5 182.5 c 128,-1,45
 336 145 336 145 377 127.5 c 128,-1,46
 418 110 418 110 464 110 c 0,32,33
EndSplineSet
EndChar

StartChar: uni0263
Encoding: 611 611 257
Width: 1040
GlyphClass: 2
Flags: W
LayerCount: 2
Fore
SplineSet
516 -42 m 1,0,1
 462 -176 462 -176 462 -276 c 0,2,3
 462 -330 462 -330 475 -348.5 c 128,-1,4
 488 -367 488 -367 516 -367 c 0,5,6
 549 -367 549 -367 562.5 -349 c 128,-1,7
 576 -331 576 -331 576 -276 c 0,8,9
 576 -220 576 -220 561 -166 c 128,-1,10
 546 -112 546 -112 516 -42 c 1,0,1
438 136 m 1,11,-1
 84 938 l 1,12,-1
 257 938 l 1,13,-1
 524 332 l 1,14,-1
 794 938 l 1,15,-1
 956 938 l 1,16,-1
 603 154 l 1,17,18
 673 -7 673 -7 705 -110 c 128,-1,19
 737 -213 737 -213 737 -300 c 0,20,21
 737 -379 737 -379 673.5 -435.5 c 128,-1,22
 610 -492 610 -492 516 -492 c 0,23,24
 429 -492 429 -492 365 -437.5 c 128,-1,25
 301 -383 301 -383 301 -290 c 0,26,27
 301 -230 301 -230 331 -134 c 128,-1,28
 361 -38 361 -38 438 136 c 1,11,-1
EndSplineSet
EndChar

StartChar: uni0269
Encoding: 617 617 259
Width: 593
GlyphClass: 2
Flags: W
AnchorPoint: "Anchor-4" 344 0 basechar 0 14
AnchorPoint: "Anchor-3" 344 0 basechar 0 14
AnchorPoint: "Anchor-2" 344 0 basechar 0 14
AnchorPoint: "Anchor-1" 244 956 basechar 0 16
AnchorPoint: "Anchor-0" 244 828 basechar 0 15
LayerCount: 2
Fore
SplineSet
324 938 m 1,0,-1
 324 256 l 2,1,2
 324 179 324 179 354.5 145.5 c 128,-1,3
 385 112 385 112 422 112 c 0,4,5
 437 112 437 112 525 120 c 1,6,-1
 538 3 l 1,7,8
 438 -18 438 -18 371 -18 c 0,9,10
 269 -18 269 -18 216 44.5 c 128,-1,11
 163 107 163 107 163 246 c 2,12,-1
 163 938 l 1,13,-1
 324 938 l 1,0,-1
EndSplineSet
EndChar

StartChar: uni0272
Encoding: 626 626 260
Width: 1121
GlyphClass: 2
Flags: W
AnchorPoint: "Anchor-4" 555 0 basechar 0
AnchorPoint: "Anchor-3" 827 0 basechar 0
AnchorPoint: "Anchor-2" 854 0 basechar 0
AnchorPoint: "Anchor-1" 555 956 basechar 0
AnchorPoint: "Anchor-0" 907 828 basechar 0
LayerCount: 2
Fore
SplineSet
164 938 m 1,0,-1
 325 938 l 1,1,-1
 325 766 l 1,2,3
 415 956 415 956 618 956 c 0,4,5
 654 956 654 956 694 946.5 c 128,-1,6
 734 937 734 937 782.5 910 c 128,-1,7
 831 883 831 883 868.5 841 c 128,-1,8
 906 799 906 799 931.5 727 c 128,-1,9
 957 655 957 655 957 563 c 2,10,-1
 957 0 l 1,11,-1
 796 0 l 1,12,-1
 796 507 l 2,13,14
 796 678 796 678 736 753 c 128,-1,15
 676 828 676 828 566 828 c 0,16,17
 507 828 507 828 458 796.5 c 128,-1,18
 409 765 409 765 382 721 c 128,-1,19
 355 677 355 677 340 638.5 c 128,-1,20
 325 600 325 600 325 578 c 2,21,-1
 325 26 l 2,22,23
 325 -78 325 -78 306.5 -161 c 128,-1,24
 288 -244 288 -244 260.5 -297 c 128,-1,25
 233 -350 233 -350 191.5 -389 c 128,-1,26
 150 -428 150 -428 114 -447 c 128,-1,27
 78 -466 78 -466 32.5 -477 c 128,-1,28
 -13 -488 -13 -488 -39 -490 c 128,-1,29
 -65 -492 -65 -492 -96 -492 c 1,30,-1
 -109 -364 l 1,31,32
 -70 -359 -70 -359 -46 -354.5 c 128,-1,33
 -22 -350 -22 -350 10.5 -337.5 c 128,-1,34
 43 -325 43 -325 62.5 -307.5 c 128,-1,35
 82 -290 82 -290 103.5 -258 c 128,-1,36
 125 -226 125 -226 136.5 -183 c 128,-1,37
 148 -140 148 -140 156 -76.5 c 128,-1,38
 164 -13 164 -13 164 68 c 2,39,-1
 164 938 l 1,0,-1
EndSplineSet
EndChar

StartChar: uni0283
Encoding: 643 643 261
Width: 572
GlyphClass: 2
Flags: W
LayerCount: 2
Fore
SplineSet
131 688 m 1,0,1
 109 749 109 749 84 856 c 128,-1,2
 59 963 59 963 59 1020 c 0,3,4
 59 1464 59 1464 410 1464 c 0,5,6
 469 1464 469 1464 518 1452.5 c 128,-1,7
 567 1441 567 1441 590.5 1429.5 c 128,-1,8
 614 1418 614 1418 644 1398.5 c 128,-1,9
 674 1379 674 1379 683 1374 c 1,10,-1
 639 1247 l 1,11,12
 598 1283 598 1283 536.5 1309.5 c 128,-1,13
 475 1336 475 1336 412 1336 c 0,14,15
 338 1336 338 1336 279 1261 c 128,-1,16
 220 1186 220 1186 220 1057 c 0,17,18
 220 1008 220 1008 243 907.5 c 128,-1,19
 266 807 266 807 286 754 c 1,20,-1
 427 296 l 1,21,22
 454 221 454 221 483.5 115 c 128,-1,23
 513 9 513 9 513 -46 c 0,24,25
 513 -490 513 -490 162 -490 c 0,26,27
 103 -490 103 -490 54 -478.5 c 128,-1,28
 5 -467 5 -467 -18.5 -455.5 c 128,-1,29
 -42 -444 -42 -444 -72 -424.5 c 128,-1,30
 -102 -405 -102 -405 -111 -400 c 1,31,-1
 -67 -273 l 1,32,33
 -26 -309 -26 -309 35.5 -335.5 c 128,-1,34
 97 -362 97 -362 160 -362 c 0,35,36
 248 -362 248 -362 300 -281.5 c 128,-1,37
 352 -201 352 -201 352 -83 c 0,38,39
 352 -36 352 -36 324 64 c 128,-1,40
 296 164 296 164 272 230 c 1,41,-1
 131 688 l 1,0,1
EndSplineSet
EndChar

StartChar: uni0289
Encoding: 649 649 262
Width: 1237
GlyphClass: 2
Flags: W
AnchorPoint: "Anchor-4" 613 0 basechar 0 36
AnchorPoint: "Anchor-3" 934 0 basechar 0 39
AnchorPoint: "Anchor-2" 934 0 basechar 0 39
AnchorPoint: "Anchor-1" 613 956 basechar 0 37
AnchorPoint: "Anchor-0" 965 828 basechar 0 38
LayerCount: 2
Fore
SplineSet
383 431 m 2,0,1
 383 260 383 260 443 185 c 128,-1,2
 503 110 503 110 613 110 c 0,3,4
 672 110 672 110 721 141.5 c 128,-1,5
 770 173 770 173 797 217 c 128,-1,6
 824 261 824 261 839 299.5 c 128,-1,7
 854 338 854 338 854 360 c 2,8,-1
 854 449 l 1,9,-1
 383 449 l 1,10,-1
 383 431 l 2,0,1
1015 558 m 1,11,-1
 1176 558 l 1,12,-1
 1176 449 l 1,13,-1
 1015 449 l 1,14,-1
 1015 0 l 1,15,-1
 854 0 l 1,16,-1
 854 172 l 1,17,18
 764 -18 764 -18 561 -18 c 0,19,20
 525 -18 525 -18 485 -8.5 c 128,-1,21
 445 1 445 1 396.5 28 c 128,-1,22
 348 55 348 55 310.5 97 c 128,-1,23
 273 139 273 139 247.5 211 c 128,-1,24
 222 283 222 283 222 375 c 2,25,-1
 222 449 l 1,26,-1
 61 449 l 1,27,-1
 61 558 l 1,28,-1
 222 558 l 1,29,-1
 222 938 l 1,30,-1
 383 938 l 1,31,-1
 383 558 l 1,32,-1
 854 558 l 1,33,-1
 854 938 l 1,34,-1
 1015 938 l 1,35,-1
 1015 558 l 1,11,-1
EndSplineSet
EndChar

StartChar: uni028B
Encoding: 651 651 263
Width: 1121
GlyphClass: 2
Flags: W
AnchorPoint: "Anchor-4" 492 0 basechar 0 27
AnchorPoint: "Anchor-3" 492 0 basechar 0 27
AnchorPoint: "Anchor-2" 492 0 basechar 0 27
AnchorPoint: "Anchor-1" 492 956 basechar 0 29
AnchorPoint: "Anchor-0" 765 828 basechar 0 28
LayerCount: 2
Fore
SplineSet
164 938 m 1,0,-1
 325 938 l 1,1,-1
 325 366 l 2,2,3
 325 264 325 264 375 187.5 c 128,-1,4
 425 111 425 111 516 111 c 0,5,6
 589 111 589 111 643 139 c 128,-1,7
 697 167 697 167 728 219.5 c 128,-1,8
 759 272 759 272 773.5 338.5 c 128,-1,9
 788 405 788 405 788 489 c 0,10,11
 788 546 788 546 774 598.5 c 128,-1,12
 760 651 760 651 731.5 700.5 c 128,-1,13
 703 750 703 750 683.5 777 c 128,-1,14
 664 804 664 804 628 850 c 1,15,-1
 759 956 l 1,16,17
 951 705 951 705 951 489 c 0,18,19
 951 382 951 382 925 292 c 128,-1,20
 899 202 899 202 846.5 131.5 c 128,-1,21
 794 61 794 61 707.5 21.5 c 128,-1,22
 621 -18 621 -18 507 -18 c 0,23,24
 352 -18 352 -18 258 85 c 128,-1,25
 164 188 164 188 164 366 c 2,26,-1
 164 938 l 1,0,-1
EndSplineSet
EndChar

StartChar: uni028C
Encoding: 652 652 264
Width: 984
GlyphClass: 2
Flags: W
AnchorPoint: "Anchor-4" 492 0 basechar 0 7
AnchorPoint: "Anchor-3" 876 0 basechar 0 10
AnchorPoint: "Anchor-2" 876 0 basechar 0 10
AnchorPoint: "Anchor-1" 492 956 basechar 0 9
AnchorPoint: "Anchor-0" 846 828 basechar 0 8
LayerCount: 2
Fore
SplineSet
486 672 m 1,0,-1
 183 0 l 1,1,-1
 21 0 l 1,2,-1
 438 938 l 1,3,-1
 544 938 l 1,4,-1
 963 0 l 1,5,-1
 790 0 l 1,6,-1
 486 672 l 1,0,-1
EndSplineSet
EndChar

StartChar: uni02BB
Encoding: 699 699 265
Width: 450
GlyphClass: 2
Flags: W
LayerCount: 2
Fore
SplineSet
221 1142 m 0,0,1
 221 1130 221 1130 236.5 1119.5 c 128,-1,2
 252 1109 252 1109 270 1100.5 c 128,-1,3
 288 1092 288 1092 303.5 1067 c 128,-1,4
 319 1042 319 1042 319 1004 c 0,5,6
 319 962 319 962 287.5 926.5 c 128,-1,7
 256 891 256 891 201 891 c 0,8,9
 160 891 160 891 132.5 908.5 c 128,-1,10
 105 926 105 926 94 954 c 128,-1,11
 83 982 83 982 79 1003 c 128,-1,12
 75 1024 75 1024 75 1046 c 0,13,14
 75 1124 75 1124 114 1210.5 c 128,-1,15
 153 1297 153 1297 269 1409 c 1,16,-1
 351 1337 l 1,17,18
 221 1213 221 1213 221 1142 c 0,0,1
EndSplineSet
EndChar

StartChar: afii57929
Encoding: 700 700 266
Width: 450
GlyphClass: 2
Flags: W
LayerCount: 2
Fore
SplineSet
205 1158 m 0,0,1
 205 1170 205 1170 189.5 1180.5 c 128,-1,2
 174 1191 174 1191 156 1199.5 c 128,-1,3
 138 1208 138 1208 122.5 1233 c 128,-1,4
 107 1258 107 1258 107 1296 c 0,5,6
 107 1338 107 1338 138.5 1373.5 c 128,-1,7
 170 1409 170 1409 225 1409 c 0,8,9
 266 1409 266 1409 293.5 1391.5 c 128,-1,10
 321 1374 321 1374 332 1346 c 128,-1,11
 343 1318 343 1318 347 1297 c 128,-1,12
 351 1276 351 1276 351 1254 c 0,13,14
 351 1176 351 1176 312 1089.5 c 128,-1,15
 273 1003 273 1003 157 891 c 1,16,-1
 75 963 l 1,17,18
 205 1087 205 1087 205 1158 c 0,0,1
EndSplineSet
EndChar

StartChar: afii64937
Encoding: 701 701 267
Width: 450
GlyphClass: 2
Flags: W
LayerCount: 2
Fore
SplineSet
221 1158 m 0,0,1
 221 1087 221 1087 351 963 c 1,2,-1
 269 891 l 1,3,4
 153 1003 153 1003 114 1089.5 c 128,-1,5
 75 1176 75 1176 75 1254 c 0,6,7
 75 1276 75 1276 79 1297 c 128,-1,8
 83 1318 83 1318 94 1346 c 128,-1,9
 105 1374 105 1374 132.5 1391.5 c 128,-1,10
 160 1409 160 1409 201 1409 c 0,11,12
 256 1409 256 1409 287.5 1373.5 c 128,-1,13
 319 1338 319 1338 319 1296 c 0,14,15
 319 1258 319 1258 303.5 1233 c 128,-1,16
 288 1208 288 1208 270 1199.5 c 128,-1,17
 252 1191 252 1191 236.5 1180.5 c 128,-1,18
 221 1170 221 1170 221 1158 c 0,0,1
EndSplineSet
EndChar

StartChar: uni02DE
Encoding: 734 734 268
Width: 576
GlyphClass: 4
Flags: W
AnchorPoint: "Anchor-0" 0 828 mark 0
LayerCount: 2
Fore
SplineSet
166 931 m 1,1,2
 166 873 166 873 197.5 839.5 c 128,-1,3
 229 806 229 806 282 806 c 0,4,5
 329 806 329 806 358 839.5 c 128,-1,6
 387 873 387 873 413 935 c 1,7,-1
 488 856 l 1,8,9
 453 770 453 770 408.5 727.5 c 128,-1,10
 364 685 364 685 282 685 c 0,11,12
 215 685 215 685 164 721 c 128,-1,13
 113 757 113 757 100 807 c 1,14,15
 30 807 30 807 -42 765 c 1,16,-1
 -42 858 l 1,17,0
 41 931 41 931 166 931 c 1,1,2
EndSplineSet
EndChar

StartChar: gravecomb
Encoding: 768 768 269
Width: 0
GlyphClass: 4
Flags: W
AnchorPoint: "Anchor-5" 0 1475 basemark 0 4
AnchorPoint: "Anchor-5" 0 956 mark 0 5
AnchorPoint: "Anchor-1" 0 956 mark 0 5
LayerCount: 2
Fore
SplineSet
-249 1475 m 1,0,-1
 -61 1475 l 1,1,-1
 82 1144 l 1,2,-1
 -10 1100 l 1,3,-1
 -249 1475 l 1,0,-1
EndSplineSet
EndChar

StartChar: acutecomb
Encoding: 769 769 270
Width: 0
GlyphClass: 4
Flags: W
AnchorPoint: "Anchor-5" 0 1475 basemark 0 4
AnchorPoint: "Anchor-5" 0 956 mark 0 5
AnchorPoint: "Anchor-1" 0 956 mark 0 5
LayerCount: 2
Fore
SplineSet
249 1475 m 1,0,-1
 10 1100 l 1,1,-1
 -82 1144 l 1,2,-1
 61 1475 l 1,3,-1
 249 1475 l 1,0,-1
EndSplineSet
EndChar

StartChar: uni0302
Encoding: 770 770 271
Width: 0
GlyphClass: 4
Flags: W
AnchorPoint: "Anchor-5" 0 1475 basemark 0 7
AnchorPoint: "Anchor-5" 0 956 mark 0 8
AnchorPoint: "Anchor-1" 0 956 mark 0 8
LayerCount: 2
Fore
SplineSet
0 1349 m 1,0,-1
 -234 1100 l 1,1,-1
 -309 1149 l 1,2,-1
 -94 1449 l 1,3,-1
 94 1449 l 1,4,-1
 309 1149 l 1,5,-1
 234 1100 l 1,6,-1
 0 1349 l 1,0,-1
EndSplineSet
EndChar

StartChar: tildecomb
Encoding: 771 771 272
Width: 0
GlyphClass: 4
Flags: W
AnchorPoint: "Anchor-5" 0 1410 basemark 0 24
AnchorPoint: "Anchor-5" 0 1035 mark 0 26
AnchorPoint: "Anchor-1" 0 956 mark 0 25
LayerCount: 2
Fore
SplineSet
-272 1107 m 1,0,-1
 -342 1167 l 1,1,2
 -316 1218 -316 1218 -285 1255 c 128,-1,3
 -254 1292 -254 1292 -224 1311 c 128,-1,4
 -194 1330 -194 1330 -168.5 1338 c 128,-1,5
 -143 1346 -143 1346 -120 1346 c 0,6,7
 -78 1346 -78 1346 -2.5 1302 c 128,-1,8
 73 1258 73 1258 108 1258 c 0,9,10
 141 1258 141 1258 182 1282 c 128,-1,11
 223 1306 223 1306 251 1356 c 1,12,-1
 321 1296 l 1,13,14
 295 1245 295 1245 264 1208 c 128,-1,15
 233 1171 233 1171 203 1152 c 128,-1,16
 173 1133 173 1133 147.5 1124.5 c 128,-1,17
 122 1116 122 1116 99 1116 c 0,18,19
 57 1116 57 1116 -18.5 1161 c 128,-1,20
 -94 1206 -94 1206 -128 1206 c 0,21,22
 -161 1206 -161 1206 -202.5 1181.5 c 128,-1,23
 -244 1157 -244 1157 -272 1107 c 1,0,-1
EndSplineSet
EndChar

StartChar: uni0304
Encoding: 772 772 273
Width: 0
GlyphClass: 4
Flags: W
AnchorPoint: "Anchor-5" 0 1379 basemark 0 4
AnchorPoint: "Anchor-5" 0 1170 mark 0 6
AnchorPoint: "Anchor-1" 0 956 mark 0 5
LayerCount: 2
Fore
SplineSet
314 1250 m 1,0,-1
 -314 1250 l 1,1,-1
 -314 1359 l 1,2,-1
 314 1359 l 1,3,-1
 314 1250 l 1,0,-1
EndSplineSet
EndChar

StartChar: uni0306
Encoding: 774 774 274
Width: 0
GlyphClass: 4
Flags: W
AnchorPoint: "Anchor-5" 0 1475 basemark 0 18
AnchorPoint: "Anchor-5" 0 956 mark 0 19
AnchorPoint: "Anchor-1" 0 956 mark 0 19
LayerCount: 2
Fore
SplineSet
0 1130 m 256,0,1
 -64 1130 -64 1130 -116 1147.5 c 128,-1,2
 -168 1165 -168 1165 -200.5 1190.5 c 128,-1,3
 -233 1216 -233 1216 -258.5 1255.5 c 128,-1,4
 -284 1295 -284 1295 -297 1328.5 c 128,-1,5
 -310 1362 -310 1362 -322 1405 c 1,6,-1
 -234 1440 l 1,7,8
 -169 1252 -169 1252 0 1252 c 256,9,10
 169 1252 169 1252 234 1440 c 1,11,-1
 322 1405 l 1,12,13
 310 1362 310 1362 297 1328.5 c 128,-1,14
 284 1295 284 1295 258.5 1255.5 c 128,-1,15
 233 1216 233 1216 200.5 1190.5 c 128,-1,16
 168 1165 168 1165 116 1147.5 c 128,-1,17
 64 1130 64 1130 0 1130 c 256,0,1
EndSplineSet
EndChar

StartChar: uni0307
Encoding: 775 775 275
Width: 0
GlyphClass: 2
Flags: W
AnchorPoint: "Anchor-5" 0 1475 basemark 0 12
AnchorPoint: "Anchor-5" 0 1120 mark 0 14
AnchorPoint: "Anchor-1" 0 956 mark 0 13
LayerCount: 2
Fore
SplineSet
-118 1309 m 256,0,1
 -118 1359 -118 1359 -83.5 1394.5 c 128,-1,2
 -49 1430 -49 1430 0 1430 c 256,3,4
 49 1430 49 1430 83.5 1394.5 c 128,-1,5
 118 1359 118 1359 118 1309 c 256,6,7
 118 1259 118 1259 83.5 1223.5 c 128,-1,8
 49 1188 49 1188 0 1188 c 256,9,10
 -49 1188 -49 1188 -83.5 1223.5 c 128,-1,11
 -118 1259 -118 1259 -118 1309 c 256,0,1
EndSplineSet
EndChar

StartChar: uni0308
Encoding: 776 776 276
Width: 0
GlyphClass: 4
Flags: W
AnchorPoint: "Anchor-5" 0 1475 basemark 0 25
AnchorPoint: "Anchor-5" 0 1120 mark 0 26
AnchorPoint: "Anchor-1" 0 956 mark 0 24
LayerCount: 2
Fore
SplineSet
-354 1309 m 256,0,1
 -354 1359 -354 1359 -319.5 1394.5 c 128,-1,2
 -285 1430 -285 1430 -236 1430 c 256,3,4
 -187 1430 -187 1430 -152.5 1394.5 c 128,-1,5
 -118 1359 -118 1359 -118 1309 c 256,6,7
 -118 1259 -118 1259 -152.5 1223.5 c 128,-1,8
 -187 1188 -187 1188 -236 1188 c 256,9,10
 -285 1188 -285 1188 -319.5 1223.5 c 128,-1,11
 -354 1259 -354 1259 -354 1309 c 256,0,1
118 1309 m 256,12,13
 118 1359 118 1359 152.5 1394.5 c 128,-1,14
 187 1430 187 1430 236 1430 c 256,15,16
 285 1430 285 1430 319.5 1394.5 c 128,-1,17
 354 1359 354 1359 354 1309 c 256,18,19
 354 1259 354 1259 319.5 1223.5 c 128,-1,20
 285 1188 285 1188 236 1188 c 256,21,22
 187 1188 187 1188 152.5 1223.5 c 128,-1,23
 118 1259 118 1259 118 1309 c 256,12,13
EndSplineSet
EndChar

StartChar: hookabovecomb
Encoding: 777 777 277
Width: 0
GlyphClass: 4
Flags: W
AnchorPoint: "Anchor-5" 0 1475 basemark 0 33
AnchorPoint: "Anchor-5" 0 956 mark 0 34
AnchorPoint: "Anchor-1" 0 956 mark 0 34
LayerCount: 2
Fore
SplineSet
-150 1350 m 1,0,1
 -130 1382 -130 1382 -88.5 1411 c 128,-1,2
 -47 1440 -47 1440 11 1440 c 0,3,4
 81 1440 81 1440 123 1393.5 c 128,-1,5
 165 1347 165 1347 165 1278 c 0,6,7
 165 1248 165 1248 152.5 1225 c 128,-1,8
 140 1202 140 1202 122 1188.5 c 128,-1,9
 104 1175 104 1175 85.5 1163 c 128,-1,10
 67 1151 67 1151 54.5 1135.5 c 128,-1,11
 42 1120 42 1120 42 1100 c 0,12,13
 42 1085 42 1085 45 1072.5 c 128,-1,14
 48 1060 48 1060 53 1045.5 c 128,-1,15
 58 1031 58 1031 61 1020 c 1,16,-1
 -24 1020 l 1,17,18
 -37 1037 -37 1037 -46.5 1062 c 128,-1,19
 -56 1087 -56 1087 -56 1108 c 0,20,21
 -56 1136 -56 1136 -44.5 1156.5 c 128,-1,22
 -33 1177 -33 1177 -17 1190 c 128,-1,23
 -1 1203 -1 1203 15 1214 c 128,-1,24
 31 1225 31 1225 42.5 1240.5 c 128,-1,25
 54 1256 54 1256 54 1275 c 0,26,27
 54 1296 54 1296 39 1314 c 128,-1,28
 24 1332 24 1332 -4 1332 c 0,29,30
 -27 1332 -27 1332 -49 1320.5 c 128,-1,31
 -71 1309 -71 1309 -81 1295 c 1,32,-1
 -150 1350 l 1,0,1
EndSplineSet
EndChar

StartChar: uni030A
Encoding: 778 778 278
Width: 0
GlyphClass: 4
Flags: W
AnchorPoint: "Anchor-5" 0 1475 basemark 0 24
AnchorPoint: "Anchor-5" 0 956 mark 0 25
AnchorPoint: "Anchor-1" 0 956 mark 0 25
LayerCount: 2
Fore
SplineSet
-95 1220 m 0,0,1
 -95 1181 -95 1181 -67 1153.5 c 128,-1,2
 -39 1126 -39 1126 0 1126 c 256,3,4
 39 1126 39 1126 67 1153.5 c 128,-1,5
 95 1181 95 1181 95 1220 c 0,6,7
 95 1260 95 1260 67 1287.5 c 128,-1,8
 39 1315 39 1315 0 1315 c 256,9,10
 -39 1315 -39 1315 -67 1287.5 c 128,-1,11
 -95 1260 -95 1260 -95 1220 c 0,0,1
-180 1220 m 256,12,13
 -180 1294 -180 1294 -127 1347 c 128,-1,14
 -74 1400 -74 1400 0 1400 c 256,15,16
 74 1400 74 1400 127 1347 c 128,-1,17
 180 1294 180 1294 180 1220 c 256,18,19
 180 1146 180 1146 127 1093 c 128,-1,20
 74 1040 74 1040 0 1040 c 256,21,22
 -74 1040 -74 1040 -127 1093 c 128,-1,23
 -180 1146 -180 1146 -180 1220 c 256,12,13
EndSplineSet
EndChar

StartChar: uni030B
Encoding: 779 779 279
Width: 0
GlyphClass: 4
Flags: W
AnchorPoint: "Anchor-5" 0 1475 basemark 0 8
AnchorPoint: "Anchor-5" 0 956 mark 0 9
AnchorPoint: "Anchor-1" 0 956 mark 0 9
LayerCount: 2
Fore
SplineSet
22 1475 m 1,0,-1
 -217 1100 l 1,1,-1
 -309 1144 l 1,2,-1
 -166 1475 l 1,3,-1
 22 1475 l 1,0,-1
382 1475 m 1,4,-1
 143 1100 l 1,5,-1
 51 1144 l 1,6,-1
 194 1475 l 1,7,-1
 382 1475 l 1,4,-1
EndSplineSet
EndChar

StartChar: uni030C
Encoding: 780 780 280
Width: 0
GlyphClass: 4
Flags: W
AnchorPoint: "Anchor-5" 0 1475 basemark 0 7
AnchorPoint: "Anchor-5" 0 956 mark 0 8
AnchorPoint: "Anchor-1" 0 956 mark 0 8
LayerCount: 2
Fore
SplineSet
0 1200 m 1,0,-1
 234 1449 l 1,1,-1
 309 1400 l 1,2,-1
 94 1100 l 1,3,-1
 -94 1100 l 1,4,-1
 -309 1400 l 1,5,-1
 -234 1449 l 1,6,-1
 0 1200 l 1,0,-1
EndSplineSet
EndChar

StartChar: uni030D
Encoding: 781 781 281
Width: 0
GlyphClass: 4
Flags: W
AnchorPoint: "Anchor-5" 0 1475 basemark 0 4
AnchorPoint: "Anchor-5" 0 956 mark 0 5
AnchorPoint: "Anchor-1" 0 956 mark 0 5
LayerCount: 2
Fore
SplineSet
-54 1101 m 1,0,-1
 -54 1461 l 1,1,-1
 54 1461 l 1,2,-1
 54 1101 l 1,3,-1
 -54 1101 l 1,0,-1
EndSplineSet
EndChar

StartChar: uni030E
Encoding: 782 782 282
Width: 0
GlyphClass: 4
Flags: W
AnchorPoint: "Anchor-5" 0 1475 basemark 0 8
AnchorPoint: "Anchor-5" 0 956 mark 0 9
AnchorPoint: "Anchor-1" 0 956 mark 0 9
LayerCount: 2
Fore
SplineSet
108 1101 m 1,0,-1
 108 1461 l 1,1,-1
 216 1461 l 1,2,-1
 216 1101 l 1,3,-1
 108 1101 l 1,0,-1
-216 1101 m 1,4,-1
 -216 1461 l 1,5,-1
 -108 1461 l 1,6,-1
 -108 1101 l 1,7,-1
 -216 1101 l 1,4,-1
EndSplineSet
EndChar

StartChar: uni0310
Encoding: 784 784 283
Width: 0
GlyphClass: 4
Flags: W
AnchorPoint: "Anchor-0" 0 828 mark 0
LayerCount: 2
Fore
SplineSet
269 1158 m 1,0,1
 269 1170 269 1170 253.5 1180.5 c 128,-1,2
 238 1191 238 1191 220 1199.5 c 128,-1,3
 202 1208 202 1208 186.5 1233 c 128,-1,4
 171 1258 171 1258 171 1296 c 0,5,6
 171 1338 171 1338 202.5 1373.5 c 128,-1,7
 234 1409 234 1409 289 1409 c 0,8,9
 330 1409 330 1409 357.5 1391.5 c 128,-1,10
 385 1374 385 1374 396 1346 c 128,-1,11
 407 1318 407 1318 411 1297 c 128,-1,12
 415 1276 415 1276 415 1254 c 0,13,14
 415 1163 415 1163 376 1090 c 0,15,16
 263 877 263 877 -22 760 c 1,17,-1
 -90 850 l 1,18,19
 192 959 192 959 269 1158 c 1,0,1
EndSplineSet
EndChar

StartChar: uni0311
Encoding: 785 785 284
Width: 0
GlyphClass: 4
Flags: W
AnchorPoint: "Anchor-5" 0 1475 basemark 0 18
AnchorPoint: "Anchor-5" 0 956 mark 0 19
AnchorPoint: "Anchor-1" 0 956 mark 0 19
LayerCount: 2
Fore
SplineSet
0 1440 m 256,0,1
 64 1440 64 1440 116 1422.5 c 128,-1,2
 168 1405 168 1405 200.5 1379.5 c 128,-1,3
 233 1354 233 1354 258.5 1314.5 c 128,-1,4
 284 1275 284 1275 297 1241.5 c 128,-1,5
 310 1208 310 1208 322 1165 c 1,6,-1
 234 1130 l 1,7,8
 169 1318 169 1318 0 1318 c 256,9,10
 -169 1318 -169 1318 -234 1130 c 1,11,-1
 -322 1165 l 1,12,13
 -310 1208 -310 1208 -297 1241.5 c 128,-1,14
 -284 1275 -284 1275 -258.5 1314.5 c 128,-1,15
 -233 1354 -233 1354 -200.5 1379.5 c 128,-1,16
 -168 1405 -168 1405 -116 1422.5 c 128,-1,17
 -64 1440 -64 1440 0 1440 c 256,0,1
EndSplineSet
EndChar

StartChar: uni0312
Encoding: 786 786 285
Width: 0
GlyphClass: 4
Flags: W
AnchorPoint: "Anchor-5" 0 1475 basemark 0 17
AnchorPoint: "Anchor-5" 0 956 mark 0 18
AnchorPoint: "Anchor-1" 0 956 mark 0 18
LayerCount: 2
Fore
SplineSet
34 1254 m 0,0,1
 34 1247 34 1247 48.5 1239 c 128,-1,2
 63 1231 63 1231 80 1223 c 128,-1,3
 97 1215 97 1215 111.5 1192 c 128,-1,4
 126 1169 126 1169 126 1136 c 0,5,6
 126 1088 126 1088 92.5 1061 c 128,-1,7
 59 1034 59 1034 8 1034 c 0,8,9
 -46 1034 -46 1034 -82 1078 c 128,-1,10
 -118 1122 -118 1122 -118 1181 c 0,11,12
 -118 1243 -118 1243 -85.5 1302 c 128,-1,13
 -53 1361 -53 1361 38 1430 c 1,14,-1
 120 1358 l 1,15,16
 34 1290 34 1290 34 1254 c 0,0,1
EndSplineSet
EndChar

StartChar: uni0314
Encoding: 788 788 287
Width: 0
GlyphClass: 4
Flags: W
AnchorPoint: "Anchor-5" 0 1475 basemark 0 17
AnchorPoint: "Anchor-5" 0 956 mark 0 18
AnchorPoint: "Anchor-1" 0 956 mark 0 18
LayerCount: 2
Fore
SplineSet
34 1210 m 0,0,1
 34 1174 34 1174 120 1106 c 1,2,-1
 38 1034 l 1,3,4
 -53 1103 -53 1103 -85.5 1162 c 128,-1,5
 -118 1221 -118 1221 -118 1283 c 0,6,7
 -118 1342 -118 1342 -82 1386 c 128,-1,8
 -46 1430 -46 1430 8 1430 c 0,9,10
 59 1430 59 1430 92.5 1403 c 128,-1,11
 126 1376 126 1376 126 1328 c 0,12,13
 126 1295 126 1295 111.5 1272 c 128,-1,14
 97 1249 97 1249 80 1241 c 128,-1,15
 63 1233 63 1233 48.5 1225 c 128,-1,16
 34 1217 34 1217 34 1210 c 0,0,1
EndSplineSet
EndChar

StartChar: uni0315
Encoding: 789 789 288
Width: 0
GlyphClass: 4
Flags: W
AnchorPoint: "Anchor-5" 0 1475 basemark 0 17
AnchorPoint: "Anchor-5" 0 956 mark 0 18
AnchorPoint: "Anchor-1" 0 956 mark 0 18
LayerCount: 2
Fore
SplineSet
-26 1210 m 0,0,1
 -26 1217 -26 1217 -40.5 1225 c 128,-1,2
 -55 1233 -55 1233 -72 1241 c 128,-1,3
 -89 1249 -89 1249 -103.5 1272 c 128,-1,4
 -118 1295 -118 1295 -118 1328 c 0,5,6
 -118 1376 -118 1376 -84.5 1403 c 128,-1,7
 -51 1430 -51 1430 0 1430 c 0,8,9
 54 1430 54 1430 90 1386 c 128,-1,10
 126 1342 126 1342 126 1283 c 0,11,12
 126 1221 126 1221 93.5 1162 c 128,-1,13
 61 1103 61 1103 -30 1034 c 1,14,-1
 -112 1106 l 1,15,16
 -26 1174 -26 1174 -26 1210 c 0,0,1
EndSplineSet
EndChar

StartChar: dotbelowcomb
Encoding: 803 803 289
Width: 0
GlyphClass: 4
Flags: W
AnchorPoint: "Anchor-6" 0 -349 basemark 0 12
AnchorPoint: "Anchor-6" 0 0 mark 0 13
AnchorPoint: "Anchor-4" 0 0 mark 0 13
LayerCount: 2
Fore
SplineSet
-118 -183 m 256,0,1
 -118 -133 -118 -133 -83.5 -97.5 c 128,-1,2
 -49 -62 -49 -62 0 -62 c 256,3,4
 49 -62 49 -62 83.5 -97.5 c 128,-1,5
 118 -133 118 -133 118 -183 c 256,6,7
 118 -233 118 -233 83.5 -268.5 c 128,-1,8
 49 -304 49 -304 0 -304 c 256,9,10
 -49 -304 -49 -304 -83.5 -268.5 c 128,-1,11
 -118 -233 -118 -233 -118 -183 c 256,0,1
EndSplineSet
EndChar

StartChar: uni0325
Encoding: 805 805 291
Width: 0
GlyphClass: 4
Flags: W
AnchorPoint: "Anchor-4" 0 0 mark 0
LayerCount: 2
Fore
SplineSet
-95 -242 m 0,0,1
 -95 -281 -95 -281 -67 -308.5 c 128,-1,2
 -39 -336 -39 -336 0 -336 c 256,3,4
 39 -336 39 -336 67 -308.5 c 128,-1,5
 95 -281 95 -281 95 -242 c 0,6,7
 95 -202 95 -202 67 -174.5 c 128,-1,8
 39 -147 39 -147 0 -147 c 256,9,10
 -39 -147 -39 -147 -67 -174.5 c 128,-1,11
 -95 -202 -95 -202 -95 -242 c 0,0,1
-180 -242 m 256,12,13
 -180 -168 -180 -168 -127 -115 c 128,-1,14
 -74 -62 -74 -62 0 -62 c 256,15,16
 74 -62 74 -62 127 -115 c 128,-1,17
 180 -168 180 -168 180 -242 c 256,18,19
 180 -316 180 -316 127 -369 c 128,-1,20
 74 -422 74 -422 0 -422 c 256,21,22
 -74 -422 -74 -422 -127 -369 c 128,-1,23
 -180 -316 -180 -316 -180 -242 c 256,12,13
EndSplineSet
EndChar

StartChar: uni0326
Encoding: 806 806 292
Width: 0
GlyphClass: 4
Flags: W
AnchorPoint: "Anchor-4" 0 0 mark 0
LayerCount: 2
Fore
SplineSet
-26 -282 m 0,0,1
 -26 -275 -26 -275 -40.5 -267 c 128,-1,2
 -55 -259 -55 -259 -72 -251 c 128,-1,3
 -89 -243 -89 -243 -103.5 -220 c 128,-1,4
 -118 -197 -118 -197 -118 -164 c 0,5,6
 -118 -116 -118 -116 -84.5 -89 c 128,-1,7
 -51 -62 -51 -62 0 -62 c 0,8,9
 54 -62 54 -62 90 -106 c 128,-1,10
 126 -150 126 -150 126 -209 c 0,11,12
 126 -271 126 -271 93.5 -330 c 128,-1,13
 61 -389 61 -389 -30 -458 c 1,14,-1
 -112 -386 l 1,15,16
 -26 -318 -26 -318 -26 -282 c 0,0,1
EndSplineSet
EndChar

StartChar: uni0327
Encoding: 807 807 293
Width: 0
GlyphClass: 4
Flags: W
AnchorPoint: "Anchor-6" 0 -492 basemark 0 18
AnchorPoint: "Anchor-3" 0 0 mark 0 19
LayerCount: 2
Fore
SplineSet
-48 36 m 1,0,-1
 45 36 l 1,1,2
 3 -36 3 -36 3 -106 c 1,3,4
 53 -119 53 -119 89 -170 c 128,-1,5
 125 -221 125 -221 125 -288 c 0,6,7
 125 -370 125 -370 82.5 -414.5 c 128,-1,8
 40 -459 40 -459 -46 -494 c 1,9,-1
 -125 -419 l 1,10,11
 -63 -393 -63 -393 -29.5 -364 c 128,-1,12
 4 -335 4 -335 4 -288 c 0,13,14
 4 -235 4 -235 -29.5 -203.5 c 128,-1,15
 -63 -172 -63 -172 -121 -172 c 1,16,17
 -121 -47 -121 -47 -48 36 c 1,0,-1
EndSplineSet
EndChar

StartChar: uni0328
Encoding: 808 808 294
Width: 0
GlyphClass: 4
Flags: W
AnchorPoint: "Anchor-2" 0 0 mark 0 18
LayerCount: 2
Fore
SplineSet
48 36 m 1,0,1
 -65 -113 -65 -113 -65 -194 c 0,2,3
 -65 -248 -65 -248 -38.5 -270 c 128,-1,4
 -12 -292 -12 -292 39 -292 c 0,5,6
 66 -292 66 -292 88 -281 c 1,7,-1
 103 -374 l 1,8,9
 69 -390 69 -390 26 -390 c 0,10,11
 -67 -390 -67 -390 -119.5 -333.5 c 128,-1,12
 -172 -277 -172 -277 -172 -202 c 0,13,14
 -172 -149 -172 -149 -143 -96 c 128,-1,15
 -114 -43 -114 -43 -45 36 c 1,16,-1
 48 36 l 1,0,1
EndSplineSet
EndChar

StartChar: uni0329
Encoding: 809 809 295
Width: 0
GlyphClass: 4
Flags: W
AnchorPoint: "Anchor-4" 0 0 mark 0
LayerCount: 2
Fore
SplineSet
-54 -422 m 1,0,-1
 -54 -62 l 1,1,-1
 54 -62 l 1,2,-1
 54 -422 l 1,3,-1
 -54 -422 l 1,0,-1
EndSplineSet
EndChar

StartChar: uni032C
Encoding: 812 812 296
Width: 0
GlyphClass: 4
Flags: W
AnchorPoint: "Anchor-6" 0 -483 basemark 0 7
AnchorPoint: "Anchor-6" 0 0 mark 0 8
AnchorPoint: "Anchor-4" 0 0 mark 0 8
LayerCount: 2
Fore
SplineSet
0 -358 m 1,0,-1
 234 -109 l 1,1,-1
 309 -158 l 1,2,-1
 94 -458 l 1,3,-1
 -94 -458 l 1,4,-1
 -309 -158 l 1,5,-1
 -234 -109 l 1,6,-1
 0 -358 l 1,0,-1
EndSplineSet
EndChar

StartChar: uni032D
Encoding: 813 813 297
Width: 0
GlyphClass: 4
Flags: W
AnchorPoint: "Anchor-6" 0 -483 basemark 0 7
AnchorPoint: "Anchor-6" 0 0 mark 0 8
AnchorPoint: "Anchor-4" 0 0 mark 0 8
LayerCount: 2
Fore
SplineSet
0 -209 m 1,0,-1
 -234 -458 l 1,1,-1
 -309 -409 l 1,2,-1
 -94 -109 l 1,3,-1
 94 -109 l 1,4,-1
 309 -409 l 1,5,-1
 234 -458 l 1,6,-1
 0 -209 l 1,0,-1
EndSplineSet
EndChar

StartChar: uni0331
Encoding: 817 817 298
Width: 0
GlyphClass: 4
Flags: W
AnchorPoint: "Anchor-6" 0 -349 basemark 0 4
AnchorPoint: "Anchor-6" 0 0 mark 0 5
AnchorPoint: "Anchor-4" 0 0 mark 0 5
LayerCount: 2
Fore
SplineSet
-314 -109 m 1,0,-1
 314 -109 l 1,1,-1
 314 -218 l 1,2,-1
 -314 -218 l 1,3,-1
 -314 -109 l 1,0,-1
EndSplineSet
EndChar

StartChar: uni2010
Encoding: 8208 8208 351
Width: 595
GlyphClass: 2
Flags: W
LayerCount: 2
Fore
SplineSet
534 449 m 1,0,-1
 61 449 l 1,1,-1
 61 558 l 1,2,-1
 534 558 l 1,3,-1
 534 449 l 1,0,-1
EndSplineSet
EndChar

StartChar: emdash
Encoding: 8212 8212 354
Width: 1556
GlyphClass: 2
Flags: W
LayerCount: 2
Fore
SplineSet
1488 449 m 1,0,-1
 68 449 l 1,1,-1
 68 558 l 1,2,-1
 1488 558 l 1,3,-1
 1488 449 l 1,0,-1
EndSplineSet
EndChar

StartChar: quoteleft
Encoding: 8216 8216 355
Width: 450
GlyphClass: 2
Flags: W
LayerCount: 2
Fore
SplineSet
221 1142 m 0,0,1
 221 1130 221 1130 236.5 1119.5 c 128,-1,2
 252 1109 252 1109 270 1100.5 c 128,-1,3
 288 1092 288 1092 303.5 1067 c 128,-1,4
 319 1042 319 1042 319 1004 c 0,5,6
 319 962 319 962 287.5 926.5 c 128,-1,7
 256 891 256 891 201 891 c 0,8,9
 160 891 160 891 132.5 908.5 c 128,-1,10
 105 926 105 926 94 954 c 128,-1,11
 83 982 83 982 79 1003 c 128,-1,12
 75 1024 75 1024 75 1046 c 0,13,14
 75 1124 75 1124 114 1210.5 c 128,-1,15
 153 1297 153 1297 269 1409 c 1,16,-1
 351 1337 l 1,17,18
 221 1213 221 1213 221 1142 c 0,0,1
EndSplineSet
EndChar

StartChar: quoteright
Encoding: 8217 8217 356
Width: 450
GlyphClass: 2
Flags: W
LayerCount: 2
Fore
SplineSet
205 1158 m 0,0,1
 205 1170 205 1170 189.5 1180.5 c 128,-1,2
 174 1191 174 1191 156 1199.5 c 128,-1,3
 138 1208 138 1208 122.5 1233 c 128,-1,4
 107 1258 107 1258 107 1296 c 0,5,6
 107 1338 107 1338 138.5 1373.5 c 128,-1,7
 170 1409 170 1409 225 1409 c 0,8,9
 266 1409 266 1409 293.5 1391.5 c 128,-1,10
 321 1374 321 1374 332 1346 c 128,-1,11
 343 1318 343 1318 347 1297 c 128,-1,12
 351 1276 351 1276 351 1254 c 0,13,14
 351 1176 351 1176 312 1089.5 c 128,-1,15
 273 1003 273 1003 157 891 c 1,16,-1
 75 963 l 1,17,18
 205 1087 205 1087 205 1158 c 0,0,1
EndSplineSet
EndChar

StartChar: quotereversed
Encoding: 8219 8219 358
Width: 450
GlyphClass: 2
Flags: W
LayerCount: 2
Fore
SplineSet
221 1158 m 0,0,1
 221 1087 221 1087 351 963 c 1,2,-1
 269 891 l 1,3,4
 153 1003 153 1003 114 1089.5 c 128,-1,5
 75 1176 75 1176 75 1254 c 0,6,7
 75 1276 75 1276 79 1297 c 128,-1,8
 83 1318 83 1318 94 1346 c 128,-1,9
 105 1374 105 1374 132.5 1391.5 c 128,-1,10
 160 1409 160 1409 201 1409 c 0,11,12
 256 1409 256 1409 287.5 1373.5 c 128,-1,13
 319 1338 319 1338 319 1296 c 0,14,15
 319 1258 319 1258 303.5 1233 c 128,-1,16
 288 1208 288 1208 270 1199.5 c 128,-1,17
 252 1191 252 1191 236.5 1180.5 c 128,-1,18
 221 1170 221 1170 221 1158 c 0,0,1
EndSplineSet
EndChar

StartChar: bullet
Encoding: 8226 8226 363
Width: 466
GlyphClass: 2
Flags: W
LayerCount: 2
Fore
SplineSet
63 504 m 256,0,1
 63 576 63 576 113 627 c 128,-1,2
 163 678 163 678 233 678 c 256,3,4
 303 678 303 678 353 627 c 128,-1,5
 403 576 403 576 403 504 c 256,6,7
 403 432 403 432 353 381 c 128,-1,8
 303 330 303 330 233 330 c 256,9,10
 163 330 163 330 113 381 c 128,-1,11
 63 432 63 432 63 504 c 256,0,1
EndSplineSet
EndChar

StartChar: guilsinglleft
Encoding: 8249 8249 364
Width: 572
GlyphClass: 2
Flags: W
LayerCount: 2
Fore
SplineSet
187 525 m 1,0,-1
 467 268 l 1,1,-1
 434 168 l 1,2,-1
 18 525 l 1,3,-1
 434 882 l 1,4,-1
 467 782 l 1,5,-1
 187 525 l 1,0,-1
EndSplineSet
EndChar

StartChar: guilsinglright
Encoding: 8250 8250 365
Width: 572
GlyphClass: 2
Flags: W
LayerCount: 2
Fore
SplineSet
385 525 m 1,0,-1
 105 782 l 1,1,-1
 138 882 l 1,2,-1
 554 525 l 1,3,-1
 138 168 l 1,4,-1
 105 268 l 1,5,-1
 385 525 l 1,0,-1
EndSplineSet
EndChar

StartChar: uni20A6
Encoding: 8358 8358 366
Width: 1305
GlyphClass: 2
Flags: W
LayerCount: 2
Fore
SplineSet
944 350 m 1,0,-1
 944 476 l 1,1,-1
 866 476 l 1,2,-1
 944 350 l 1,0,-1
361 1296 m 1,3,-1
 668 798 l 1,4,-1
 944 798 l 1,5,-1
 944 1296 l 1,6,-1
 1125 1296 l 1,7,-1
 1125 798 l 1,8,-1
 1252 798 l 1,9,-1
 1252 689 l 1,10,-1
 1125 689 l 1,11,-1
 1125 585 l 1,12,-1
 1252 585 l 1,13,-1
 1252 476 l 1,14,-1
 1125 476 l 1,15,-1
 1125 0 l 1,16,-1
 944 0 l 1,17,-1
 650 476 l 1,18,-1
 361 476 l 1,19,-1
 361 0 l 1,20,-1
 180 0 l 1,21,-1
 180 476 l 1,22,-1
 53 476 l 1,23,-1
 53 585 l 1,24,-1
 180 585 l 1,25,-1
 180 689 l 1,26,-1
 53 689 l 1,27,-1
 53 798 l 1,28,-1
 180 798 l 1,29,-1
 180 1296 l 1,30,-1
 361 1296 l 1,3,-1
361 945 m 1,31,-1
 361 798 l 1,32,-1
 452 798 l 1,33,-1
 361 945 l 1,31,-1
361 689 m 1,34,-1
 361 585 l 1,35,-1
 583 585 l 1,36,-1
 519 689 l 1,37,-1
 361 689 l 1,34,-1
944 689 m 1,38,-1
 735 689 l 1,39,-1
 799 585 l 1,40,-1
 944 585 l 1,41,-1
 944 689 l 1,38,-1
EndSplineSet
EndChar

StartChar: Euro
Encoding: 8364 8364 367
Width: 1398
GlyphClass: 2
Flags: W
LayerCount: 2
Fore
SplineSet
877 1305 m 0,0,1
 953 1305 953 1305 1019.5 1295.5 c 128,-1,2
 1086 1286 1086 1286 1128.5 1274 c 128,-1,3
 1171 1262 1171 1262 1214 1240.5 c 128,-1,4
 1257 1219 1257 1219 1276.5 1205.5 c 128,-1,5
 1296 1192 1296 1192 1326 1170 c 1,6,-1
 1238 1064 l 1,7,8
 1222 1078 1222 1078 1200.5 1092.5 c 128,-1,9
 1179 1107 1179 1107 1137.5 1128 c 128,-1,10
 1096 1149 1096 1149 1034.5 1162.5 c 128,-1,11
 973 1176 973 1176 903 1176 c 0,12,13
 720 1176 720 1176 590 1075.5 c 128,-1,14
 460 975 460 975 418 798 c 1,15,-1
 1002 798 l 1,16,-1
 1002 689 l 1,17,-1
 402 689 l 1,18,19
 401 666 401 666 401 643 c 0,20,21
 401 613 401 613 403 585 c 1,22,-1
 948 585 l 1,23,-1
 948 476 l 1,24,-1
 417 476 l 1,25,26
 434 394 434 394 469 329 c 128,-1,27
 504 264 504 264 560 214.5 c 128,-1,28
 616 165 616 165 698 138 c 128,-1,29
 780 111 780 111 883 111 c 0,30,31
 1066 111 1066 111 1248 217 c 1,32,-1
 1326 115 l 1,33,34
 1245 54 1245 54 1133.5 18 c 128,-1,35
 1022 -18 1022 -18 855 -18 c 0,36,37
 747 -18 747 -18 650 12 c 128,-1,38
 553 42 553 42 472 101.5 c 128,-1,39
 391 161 391 161 334 257 c 128,-1,40
 277 353 277 353 254 476 c 1,41,-1
 61 476 l 1,42,-1
 61 585 l 1,43,-1
 242 585 l 1,44,45
 240 613 240 613 240 643 c 0,46,47
 240 666 240 666 241 689 c 1,48,-1
 114 689 l 1,49,-1
 114 798 l 1,50,-1
 255 798 l 1,51,52
 286 950 286 950 374 1065 c 128,-1,53
 462 1180 462 1180 592.5 1242.5 c 128,-1,54
 723 1305 723 1305 877 1305 c 0,0,1
EndSplineSet
EndChar

StartChar: uni20B5
Encoding: 8373 8373 368
Width: 1146
GlyphClass: 2
Flags: W
LayerCount: 2
Fore
SplineSet
654 1176 m 2,0,1
 788 1176 788 1176 893.5 1138.5 c 128,-1,2
 999 1101 999 1101 1062 1054 c 1,3,-1
 982 945 l 1,4,5
 956 971 956 971 864 1009 c 128,-1,6
 772 1047 772 1047 678 1047 c 0,7,8
 655 1047 655 1047 632 1045 c 1,9,-1
 632 112 l 1,10,11
 646 111 646 111 660 111 c 0,12,13
 825 111 825 111 991 207 c 1,14,-1
 1062 103 l 1,15,16
 903 -18 903 -18 634 -18 c 2,17,-1
 632 -18 l 1,18,-1
 632 -180 l 1,19,-1
 515 -180 l 1,20,-1
 515 -7 l 1,21,22
 314 31 314 31 195 188 c 128,-1,23
 76 345 76 345 76 579 c 0,24,25
 76 792 76 792 198.5 952.5 c 128,-1,26
 321 1113 321 1113 515 1160 c 1,27,-1
 515 1338 l 1,28,-1
 632 1338 l 1,29,-1
 632 1176 l 1,30,-1
 654 1176 l 2,0,1
515 132 m 1,31,-1
 515 1018 l 1,32,33
 389 970 389 970 313 855 c 128,-1,34
 237 740 237 740 237 584 c 0,35,36
 237 414 237 414 308.5 294 c 128,-1,37
 380 174 380 174 515 132 c 1,31,-1
EndSplineSet
EndChar

StartChar: uni2C6D
Encoding: 11373 11373 369
Width: 1319
GlyphClass: 2
Flags: W
AnchorPoint: "Anchor-4" 684 0 basechar 0 39
AnchorPoint: "Anchor-3" 684 0 basechar 0 39
AnchorPoint: "Anchor-2" 1048 0 basechar 0 42
AnchorPoint: "Anchor-1" 684 1409 basechar 0 40
AnchorPoint: "Anchor-0" 1048 1053 basechar 0 41
LayerCount: 2
Fore
SplineSet
958 411 m 1,0,-1
 958 1209 l 1,1,2
 916 1239 916 1239 853 1254 c 128,-1,3
 790 1269 790 1269 726 1269 c 0,4,5
 629 1269 629 1269 548.5 1238 c 128,-1,6
 468 1207 468 1207 411 1151.5 c 128,-1,7
 354 1096 354 1096 314.5 1019.5 c 128,-1,8
 275 943 275 943 256 854 c 128,-1,9
 237 765 237 765 237 665 c 0,10,11
 237 546 237 546 257 451.5 c 128,-1,12
 277 357 277 357 310.5 296.5 c 128,-1,13
 344 236 344 236 389 196 c 128,-1,14
 434 156 434 156 481.5 139.5 c 128,-1,15
 529 123 529 123 580 123 c 0,16,17
 707 123 707 123 798 201 c 128,-1,18
 889 279 889 279 958 411 c 1,0,-1
560 -18 m 0,19,20
 479 -18 479 -18 405 6.5 c 128,-1,21
 331 31 331 31 264.5 85 c 128,-1,22
 198 139 198 139 150 218.5 c 128,-1,23
 102 298 102 298 73.5 415.5 c 128,-1,24
 45 533 45 533 45 676 c 0,25,26
 45 815 45 815 82.5 936 c 128,-1,27
 120 1057 120 1057 182 1142 c 128,-1,28
 244 1227 244 1227 324.5 1288.5 c 128,-1,29
 405 1350 405 1350 492 1379.5 c 128,-1,30
 579 1409 579 1409 665 1409 c 0,31,32
 931 1409 931 1409 1139 1265 c 1,33,-1
 1139 0 l 1,34,-1
 958 0 l 1,35,-1
 958 170 l 1,36,37
 871 72 871 72 779.5 27 c 128,-1,38
 688 -18 688 -18 560 -18 c 0,19,20
EndSplineSet
EndChar

StartChar: uni0268.dotless
Encoding: 65537 -1 370
Width: 605
GlyphClass: 2
Flags: W
AnchorPoint: "Anchor-4" 302 0 basechar 0 16
AnchorPoint: "Anchor-3" 302 0 basechar 0 16
AnchorPoint: "Anchor-2" 302 0 basechar 0 16
AnchorPoint: "Anchor-1" 302 956 basechar 0 14
AnchorPoint: "Anchor-0" 302 828 basechar 0 15
LayerCount: 2
Fore
SplineSet
222 558 m 1,0,-1
 222 810 l 1,1,-1
 56 810 l 1,2,-1
 56 938 l 1,3,-1
 383 938 l 1,4,-1
 383 558 l 1,5,-1
 544 558 l 1,6,-1
 544 449 l 1,7,-1
 383 449 l 1,8,-1
 383 0 l 1,9,-1
 222 0 l 1,10,-1
 222 449 l 1,11,-1
 61 449 l 1,12,-1
 61 558 l 1,13,-1
 222 558 l 1,0,-1
EndSplineSet
EndChar

StartChar: glyph371
Encoding: 65538 -1 371
Width: 1121
Flags: W
LayerCount: 2
Fore
SplineSet
325 431 m 2,0,1
 325 260 325 260 385 185 c 256,2,3
 445 110 445 110 555 110 c 0,4,5
 614 110 614 110 663 142 c 0,6,7
 712 173 712 173 739 217 c 256,8,9
 766 261 766 261 781 300 c 0,10,11
 796 338 796 338 796 360 c 2,12,-1
 796 938 l 1,13,-1
 957 938 l 1,14,-1
 957 0 l 1,15,-1
 796 0 l 1,16,-1
 796 172 l 1,17,18
 751 77 751 77 678 30 c 0,19,20
 605 -18 605 -18 503 -18 c 0,21,22
 467 -18 467 -18 427 -8.5 c 128,-1,23
 387 1 387 1 339 28 c 0,24,25
 290 55 290 55 253 97 c 0,26,27
 215 139 215 139 190 211 c 0,28,29
 164 283 164 283 164 375 c 2,30,-1
 164 938 l 1,31,-1
 325 938 l 1,32,-1
 325 431 l 2,0,1
EndSplineSet
EndChar
